<?xml version="1.0" encoding="utf-8"?>
<!-- Generator: Adobe Illustrator 22.0.1, SVG Export Plug-In . SVG Version: 6.00 Build 0)  -->
<svg version="1.1" xmlns="http://www.w3.org/2000/svg" xmlns:xlink="http://www.w3.org/1999/xlink" x="0px" y="0px"
	 viewBox="0 0 500 500" style="enable-background:new 0 0 500 500;" xml:space="preserve">
<g id="Background_Complete">
	<g>
		<rect x="46.11" y="315.74" style="fill:#EBEBEB;" width="26.48" height="11.19"/>
		<rect x="31.34" y="329.85" style="fill:#EBEBEB;" width="26.48" height="11.19"/>
		<rect x="366.38" y="147.56" style="fill:#EBEBEB;" width="26.48" height="11.19"/>
		<rect x="351.6" y="161.67" style="fill:#EBEBEB;" width="26.48" height="11.19"/>
		<rect x="336.89" y="147.56" style="fill:#EBEBEB;" width="26.48" height="11.19"/>
		<rect x="442.18" y="329.85" style="fill:#EBEBEB;" width="26.48" height="11.19"/>
		<rect x="427.41" y="46.74" style="fill:#EBEBEB;" width="26.48" height="11.19"/>
		<rect x="442.18" y="60.85" style="fill:#EBEBEB;" width="26.48" height="11.19"/>
		<rect x="46.11" y="46.74" style="fill:#EBEBEB;" width="26.48" height="11.19"/>
	</g>
	<g>
		<g>
			<rect x="49.91" y="145.59" style="fill:#EBEBEB;" width="172.13" height="10.22"/>
			<g>
				<rect x="62.98" y="155.82" style="fill:#EBEBEB;" width="10.22" height="33.8"/>
				<rect x="62.98" y="155.82" style="fill:#DBDBDB;" width="10.22" height="10.45"/>
			</g>
			<g>
				<rect x="198.76" y="155.82" style="fill:#EBEBEB;" width="10.22" height="33.8"/>
				<rect x="198.76" y="155.82" style="fill:#DBDBDB;" width="10.22" height="10.45"/>
			</g>
		</g>
		<g>
			
				<rect x="69.05" y="104.82" transform="matrix(-1.836970e-16 1 -1 -1.836970e-16 214.6456 11.4055)" style="fill:#C7C7C7;" width="65.14" height="16.4"/>
			
				<rect x="98.04" y="72.35" transform="matrix(-1.836970e-16 1 -1 -1.836970e-16 182.1729 -21.0673)" style="fill:#DBDBDB;" width="7.16" height="16.4"/>
			
				<rect x="100.29" y="86.43" transform="matrix(-1.836970e-16 1 -1 -1.836970e-16 196.2515 -6.9886)" style="fill:#DBDBDB;" width="2.66" height="16.4"/>
			
				<rect x="99.06" y="124.25" transform="matrix(-1.836970e-16 1 -1 -1.836970e-16 236.1131 30.829)" style="fill:#DBDBDB;" width="7.16" height="18.45"/>
			<g>
				
					<rect x="77.56" y="101.87" transform="matrix(-1.836970e-16 1 -1 -1.836970e-16 223.1561 -7.9514)" style="fill:#DBDBDB;" width="75.98" height="11.46"/>
				
					<rect x="100.89" y="87.93" transform="matrix(-1.836970e-16 1 -1 -1.836970e-16 206.8704 -24.1372)" style="fill:#EBEBEB;" width="29.22" height="6.88"/>
			</g>
			<g>
				
					<rect x="133.8" y="109.09" transform="matrix(0.7112 0.703 -0.703 0.7112 130.3298 -87.6088)" style="fill:#C7C7C7;" width="75.98" height="11.46"/>
				
					<rect x="161.16" y="115.26" transform="matrix(0.7112 0.703 -0.703 0.7112 134.1985 -89.2821)" style="fill:#DBDBDB;" width="29.22" height="6.88"/>
			</g>
			<g>
				
					<rect x="102.15" y="107.02" transform="matrix(-1.836970e-16 1 -1 -1.836970e-16 247.7612 -14.2626)" style="fill:#A6A6A6;" width="57.72" height="19.47"/>
				
					<rect x="128.32" y="127.07" transform="matrix(-1.836970e-16 1 -1 -1.836970e-16 267.811 5.7873)" style="fill:#C7C7C7;" width="5.38" height="19.47"/>
				
					<rect x="129.97" y="119.8" transform="matrix(-1.836970e-16 1 -1 -1.836970e-16 260.5478 -1.476)" style="fill:#C7C7C7;" width="2.09" height="19.47"/>
			</g>
			<g>
				
					<rect x="59.57" y="111.76" transform="matrix(-1.836970e-16 1 -1 -1.836970e-16 205.1812 31.7925)" style="fill:#A6A6A6;" width="54.24" height="13.45"/>
				
					<rect x="84.17" y="130.61" transform="matrix(-1.836970e-16 1 -1 -1.836970e-16 224.0238 50.6352)" style="fill:#C7C7C7;" width="5.06" height="13.45"/>
				
					<rect x="84.17" y="98.35" transform="matrix(-1.836970e-16 1 -1 -1.836970e-16 191.7691 18.3804)" style="fill:#C7C7C7;" width="5.06" height="13.45"/>
				
					<rect x="85.71" y="105.32" transform="matrix(-1.836970e-16 1 -1 -1.836970e-16 198.7397 25.3511)" style="fill:#C7C7C7;" width="1.96" height="13.45"/>
			</g>
		</g>
	</g>
</g>
<g id="Table">
	<g>
		<polygon style="fill:#263238;" points="458.68,420.17 406.51,420.42 354.34,420.51 250,420.67 145.66,420.51 93.49,420.42 
			41.32,420.17 93.49,419.93 145.66,419.84 250,419.67 354.34,419.84 406.51,419.93 		"/>
	</g>
</g>
<g id="Character">
	<g>
		<g>
			<g>
				<g>
					<path style="fill:#AD6359;" d="M227.37,297.35c5.09,35.67,17.63,81.35,29.45,91.34c9.53,8.06,61.64,25.24,64.58,25.81
						c7.28,1.36,26.14-49.29,18.71-52.03c-9.37-3.46-54.82-8.71-57.19-11.59c-2.46-3.01-17.15-26.86-33.74-54.46
						C237.72,277.34,224.2,275.22,227.37,297.35z"/>
					<g>
						<path style="fill:#AD6359;" d="M315.74,411.15c0.84,0.52,12.73,7.81,20.22,10.68c5.59,2.14,21.84,7.88,24.81,1.96
							c2.03-4.03-7.13-8.53-13.54-11.86c-3.38-1.75-7.38-5.78-6.16-7.94c2.13-3.78,10.81,0.93,16.44,4.87
							c10.89,7.62,25.14,20.88,32.62,15.66c2.83-1.97,0.09-6.23-4.07-10.53c6.9,5.18,14.36,9.59,17.59,7.52
							c1.85-1.18,2.08-2.99,1.29-5.14c2.19,0.92,4.19,0.95,5.7-0.4c2.58-2.28,1.73-6.04-0.55-10.01c0.84-0.02,1.62-0.38,2.27-1.23
							c5.66-7.23-17.6-31.3-26.11-34.09c-25.04-8.22-52.4-8.29-52.4-8.29C323.15,369.51,315.72,411.14,315.74,411.15z"/>
						<g>
							<path style="fill:#263238;" d="M355.29,390.79c5.94,1.45,11.67,4.2,16.49,7.99c6.12,4.82,9.99,10.18,15,15.68
								c0.13,0.14-0.09,0.35-0.22,0.21c-2.39-2.61-12.36-12.52-14.96-14.8c-4.77-4.18-10.22-7.29-16.34-8.98
								C355.19,390.88,355.22,390.78,355.29,390.79z"/>
							<path style="fill:#263238;" d="M360.96,380.35c6.56,2.4,13.28,4.84,19.25,8.54c6.53,4.05,11.39,10.16,16.18,16.06
								c2.88,3.54,5.68,7.14,8.39,10.81c0.11,0.15-0.1,0.36-0.22,0.21c-4.85-6.08-9.88-12.02-15.1-17.8
								c-4.91-5.43-10.52-9.74-17.12-12.92c-3.72-1.79-7.57-3.29-11.41-4.78C360.85,380.44,360.89,380.33,360.96,380.35z"/>
							<path style="fill:#263238;" d="M368.93,371.48c6.41,1.89,12.01,3.51,17.49,7.49c7.26,5.27,13.99,13.69,16.34,16.67
								c2.6,3.29,5.1,6.67,7.54,10.09c0.1,0.14-0.14,0.32-0.24,0.18c-5.6-7.49-11.72-14.68-18.24-21.38
								c-3.12-3.2-6.56-6.06-10.52-8.17c-3.91-2.09-8.18-3.45-12.38-4.84C368.89,371.51,368.9,371.47,368.93,371.48z"/>
						</g>
					</g>
				</g>
				<g>
					<path style="fill:#FFC727;" d="M237.65,357.8l39.51-22.13c0,0-15.38-27.34-31.15-47.93c-15.77-20.59-22.07-8.75-19.81,13.59
						C228.46,323.67,237.65,357.8,237.65,357.8z"/>
					<g>
						<path style="fill:#263238;" d="M271.14,330.14c-11.26,5.68-22.43,11.73-33.05,18.55c-0.16,0.1,0,0.36,0.17,0.28
							c11.36-5.5,22.35-11.88,33.07-18.53C271.5,330.34,271.32,330.05,271.14,330.14z"/>
					</g>
					<path style="opacity:0.1;" d="M270.18,339.58l-32.53,18.22c0,0-9.19-34.13-11.45-56.47c-1.44-14.13,0.56-24.06,6.22-24.23
						L270.18,339.58z"/>
				</g>
			</g>
			<g>
				<g>
					<path style="fill:#FFC727;" d="M126.5,419.7h149.53c1.88-1.4-15.44-102.72-37.45-137.69c-4.12-6.55-23.86-16.54-39.31-4.69
						C152.64,313.08,124.75,417.46,126.5,419.7z"/>
				</g>
			</g>
			<g>
				<path style="fill:#FFFFFF;" d="M302.23,344.23c0,0,8.29-4.4,15.44-6.24c7.15-1.84,22.85-4.69,25.66-5.85l4.74-0.17l-30.71,81.03
					l-42.08,8.64l-69.99-16.71l24.97-77.08l4.82-0.24c0,0,8.89,2.43,16.24,3.8C258.68,332.77,284.08,333.9,302.23,344.23z"/>
				<polygon style="fill:#455A64;" points="269.05,423.68 296.52,345.61 227.26,327.04 201.24,406.74 				"/>
				<polygon style="fill:#37474F;" points="269.05,423.68 279.14,424.24 306.72,346.16 296.52,345.61 				"/>
				<polygon style="fill:#455A64;" points="279.14,424.24 306.72,346.16 350.12,331.26 318.49,413.76 				"/>
			</g>
			<g>
				<g>
					<path style="fill:#AD6359;" d="M195.01,281.5c-35.52,40.29-80.58,115.33-72.79,130.19c9.87,18.83,78.11,15.35,94.04,11.64
						c6.79-1.58-16.69-60.44-23.99-58.9c-6.36,1.34-11.84,2.68-12.07,1.8c-0.23-0.91,18.76-28.93,30.32-69.33
						C218.4,269.35,202.54,272.95,195.01,281.5z"/>
					<g>
						<g>
							<g>
								<g>
									<path style="fill:#AD6359;" d="M160.29,392.45c0,0,2.65-2.71,14.29-19.31c8.05-11.48,34.99-34.29,73.27-24.98
										c14.67,3.57,18.57,15.42,2.67,14.42c-11.2-0.7-18.89-2.15-22.61-1.36c0,0,12.74,11.52,11.57,21.4
										c-0.52,4.42-2.23,16.44-4.89,25.6c0,0-2.15-0.04-4.87-0.49c0,0-1.88,12.39-15.48,16.03L160.29,392.45z"/>
								</g>
							</g>
							<g>
								<path style="fill:#AD6359;" d="M184.01,363.41c7.13-1.76,22.32-5.23,35.72-3.75c14.89,1.64,43.14,8.83,41.81,19.81
									c-0.97,8.05-12,6.26-12,6.26s11.05,5.43,8.58,12.51c-2.25,6.45-10.7,4.55-10.7,4.55s6.14,4.45,2.77,10.24
									c-4.05,6.97-16.24-3.49-26.45,0.03C221.46,413.86,184.01,363.41,184.01,363.41z"/>
								<g>
									<path style="fill:#263238;" d="M215.37,375.11c6.98-0.55,23.16,2.26,34.05,10.33c0.25,0.18,0.24,0.47-0.02,0.35
										c-13.89-6.34-27.99-9.54-34.05-10.54C215.28,375.24,215.3,375.12,215.37,375.11z"/>
								</g>
								<g>
									<path style="fill:#263238;" d="M214.15,390.19c6.07,0.14,22.61,3.79,33.38,12.34c0.24,0.19,0.22,0.48-0.04,0.35
										c-14.24-7.22-27.37-11.19-33.36-12.55C214.05,390.31,214.07,390.19,214.15,390.19z"/>
								</g>
							</g>
						</g>
					</g>
					<g>
						<path style="fill:#263238;" d="M149.66,384.72c4.28-5.54,17.23-15.63,30.53-18.28c0.3-0.06,0.51,0.14,0.25,0.25
							c-14.03,6.03-25.87,14.32-30.69,18.14C149.69,384.88,149.61,384.78,149.66,384.72z"/>
					</g>
				</g>
				<g>
					<path style="fill:#FFC727;" d="M153.07,331.19l42.32,16.11c0,0,11.1-29.34,16.78-54.65c5.68-25.31-7.45-22.55-23.13-6.48
						C173.35,302.24,153.07,331.19,153.07,331.19z"/>
					<g>
						<path style="fill:#263238;" d="M208.5,314.53c0.04-0.11-0.11-0.19-0.16-0.08c-0.74,1.38-1.46,2.76-2.19,4.14
							c0.76-2.8,1.47-5.62,2.12-8.47c0.02-0.09-0.12-0.14-0.16-0.05c-2.15,6.11-4.26,12.23-6.31,18.38
							c-2.05,6.15-4.38,12.21-6.37,18.38c-1.22-0.25-1.87-0.44-2.78-0.6c-0.21-0.03-0.34,0.2-0.15,0.3c1.15,0.58,3.4,1.47,3.47,1.32
							c2.68-5.9,4.86-12.52,6.95-18.65c1.03-3.02,1.96-6.06,2.82-9.12C206.74,318.27,207.7,316.44,208.5,314.53z"/>
						<path style="fill:#263238;" d="M195.77,339.13c-11.58-4.99-23.39-9.68-35.44-13.45c-0.18-0.06-0.28,0.24-0.11,0.31
							c11.51,5.19,23.45,9.52,35.43,13.48C195.85,339.54,195.96,339.21,195.77,339.13z"/>
					</g>
				</g>
			</g>
			<g>
				<g>
					<g>
						<path style="fill:#AD6359;" d="M208,279.2c0.02,2.44,7.7,20.01,18.42,21.9c3.49,0.61,7.68-18.3,7.68-18.3l0.63-1.33
							l8.78-18.56l-22.52-22.61C220.99,240.3,208,278.17,208,279.2z"/>
						<path style="fill:#263238;" d="M243.5,262.92l-8.78,18.55l-0.62,1.34c0,0-0.76,3.42-1.9,7.31
							c-13.97-5.41-18.15-17.77-19.34-25.91c3.68-10.95,8.13-23.9,8.13-23.9L243.5,262.92z"/>
					</g>
				</g>
				<g>
					<path style="fill:#AD6359;" d="M279.32,233.62c-4.63,43.75-31.36,45.92-40.79,44.91c-8.56-0.92-37.61-5.12-37.52-49.12
						c0.09-44,21.89-55.67,41.59-54.61C262.29,175.86,283.95,189.87,279.32,233.62z"/>
					<g>
						<g>
							<path style="fill:#263238;" d="M268.16,240.19c4.83,0.73,3.01,10.33-1.46,9.65C262.3,249.18,264.11,239.58,268.16,240.19z"/>
						</g>
						<g>
							<path style="fill:#263238;" d="M245.85,236.97c-4.79-0.91-6.27,8.74-1.83,9.59C248.39,247.4,249.86,237.74,245.85,236.97z"/>
						</g>
						<path style="fill:#263238;" d="M272.39,234.7c-0.99-0.3-1.86-0.74-2.82-1.14c-1.08-0.45-1.98-0.69-2.65-1.71
							c-0.36-0.54-0.16-1.48,0.34-1.88c1.15-0.93,2.61-0.71,3.93-0.23c1.43,0.53,2.4,1.3,3.17,2.61
							C275.1,233.63,273.7,235.09,272.39,234.7z"/>
						<path style="fill:#263238;" d="M242.71,230.88c1.04,0.06,2-0.05,3.04-0.1c1.17-0.05,2.1,0.03,3.08-0.69
							c0.53-0.39,0.66-1.34,0.33-1.88c-0.76-1.27-2.2-1.56-3.61-1.56c-1.52,0-2.7,0.4-3.88,1.36
							C240.53,228.94,241.34,230.8,242.71,230.88z"/>
						<path style="fill:#263238;" d="M242.35,263.35c0.53,0.85,1,1.96,2.04,2.3c0.99,0.33,2.29,0.16,3.31,0.02
							c0.1-0.01,0.17,0.11,0.09,0.18c-1.03,0.94-2.78,1.25-4.08,0.69c-1.26-0.55-1.64-1.85-1.67-3.13
							C242.04,263.24,242.28,263.23,242.35,263.35z"/>
						<g>
							<path style="fill:#263238;" d="M256.61,254.93c0,0-0.19,4.51-0.57,6.59c-0.04,0.19-0.56,0.2-1.27,0.11
								c-0.04,0-0.06,0.01-0.08-0.01c-3.77-0.09-7.23-2.03-8.92-5.42c-0.11-0.23,0.2-0.4,0.36-0.23c2.37,2.51,5.3,3.57,8.55,4.22
								c0.25-0.55,0.09-7.82,0.4-7.7c1.34,0.48,3.66,1.54,4.52,1.92c0.19-2.93,0.32-11.27,0.67-16.6c0.02-0.33,0.54-0.35,0.57-0.04
								c0.63,8.2,0.83,12.48,0.57,18.8C261.39,257.05,257.38,255.43,256.61,254.93z"/>
						</g>
					</g>
					<g>
						<path style="fill:#263238;" d="M195.73,231.61c12.27,4.55,23.18-8.47,23.76-21.34c0,0,32,14.17,41.43-12.09
							c0,0,3.14,13.52,18.13,18.34l0.84,10.94c3.7,0.01,10.18-8.63,4.06-18.69c0,0,3.33-13.49-4.15-24.37
							c-7.48-10.87-18.78-8.48-18.78-8.48s-5.9-8.81-18.63-10.83c-12.73-2.02-21.05,7.68-21.05,7.68s-17.42-1.68-23.66,9.21
							c-6.24,10.89-2.49,20.52-2.49,20.52s-5.49,3.39-6.31,14C188.34,223.34,192.05,230.24,195.73,231.61z"/>
						<path style="fill:#263238;" d="M260.88,195.58c-0.42,2.25-0.97,4.46-1.84,6.55c-0.76,2.13-1.83,4.11-3.06,5.96
							c-2.53,3.65-6.23,6.4-10.52,7.34c-4.27,1.25-8.81,0.31-13.18-0.51c-2.14-0.7-4.34-1.25-6.46-2.07
							c-2.1-0.85-4.19-1.76-6.34-2.58c1.98,1.14,4.01,2.2,6.03,3.31c2.08,0.98,4.28,1.68,6.43,2.54c4.45,1.11,9.2,2.1,13.88,0.88
							c4.63-1.13,8.74-4.2,11.17-8.22C259.43,204.75,260.69,200.15,260.88,195.58z"/>
						<path style="fill:#263238;" d="M221.33,172.78c-4.19-1.19-8.65-1.53-13.05-0.93c-4.39,0.57-8.76,2.52-11.84,5.93
							c-1.47,1.76-2.59,3.73-3.41,5.8c-0.88,2.05-1.42,4.27-1.56,6.5c-0.32,4.46,0.98,9.03,3.72,12.44
							c-2.17-3.76-3.03-8.16-2.49-12.32c0.55-4.11,2.25-8.27,4.95-11.36c1.35-1.57,3.02-2.82,4.87-3.79
							c1.88-0.9,3.89-1.58,5.97-1.98C212.65,172.24,217.02,172.24,221.33,172.78z"/>
						<path style="fill:#263238;" d="M261.01,175.92c3.51-0.2,7.03,0.08,10.34,0.97c3.3,0.9,6.39,2.48,8.78,4.84
							c2.4,2.35,4,5.42,4.98,8.71c0.95,3.3,1.34,6.8,1.29,10.32c0.72-3.47,0.64-7.1-0.09-10.62c-0.74-3.52-2.43-6.93-5.06-9.55
							c-2.65-2.56-6.08-4.24-9.63-4.89C268.09,175.02,264.44,175.07,261.01,175.92z"/>
						<path style="fill:#263238;" d="M273.51,216.06c-3.31-2.44-6.27-5.15-8.51-8.4c-1.17-1.59-2.01-3.37-2.71-5.21
							c-0.75-1.85-0.98-3.83-1.32-5.88c-0.34,2.02-0.41,4.17,0.13,6.23c0.46,2.06,1.35,4.05,2.57,5.77
							c1.23,1.73,2.69,3.28,4.37,4.53C269.72,214.36,271.54,215.43,273.51,216.06z"/>
					</g>
					<g>
						<path style="fill:#AD6359;" d="M227.55,242.41c-0.17,0.35-0.59,0.5-0.95,0.33c-0.35-0.17-0.5-0.59-0.33-0.95
							c0.17-0.35,0.59-0.5,0.95-0.33C227.57,241.64,227.72,242.06,227.55,242.41z"/>
						<path style="fill:#AD6359;" d="M241.24,248.21c-0.17,0.35-0.59,0.5-0.95,0.33c-0.35-0.17-0.5-0.59-0.33-0.95
							c0.17-0.35,0.59-0.5,0.95-0.33C241.26,247.43,241.41,247.85,241.24,248.21z"/>
						<path style="fill:#AD6359;" d="M234.27,250.64c-0.17,0.35-0.59,0.5-0.95,0.33c-0.35-0.17-0.5-0.59-0.33-0.95
							c0.17-0.35,0.59-0.5,0.95-0.33C234.29,249.87,234.44,250.29,234.27,250.64z"/>
						<path style="fill:#AD6359;" d="M230.45,237.3c-0.17,0.35-0.59,0.5-0.95,0.33c-0.35-0.17-0.5-0.59-0.33-0.95
							c0.17-0.35,0.59-0.5,0.95-0.33C230.47,236.53,230.62,236.95,230.45,237.3z"/>
						<path style="fill:#AD6359;" d="M235.04,243.93c-0.17,0.35-0.59,0.5-0.95,0.33c-0.35-0.17-0.5-0.59-0.33-0.95
							c0.17-0.35,0.59-0.5,0.95-0.33C235.06,243.16,235.21,243.58,235.04,243.93z"/>
						<path style="fill:#AD6359;" d="M272.4,250.48c-0.17,0.35-0.59,0.5-0.95,0.33c-0.35-0.17-0.5-0.59-0.33-0.95
							c0.17-0.35,0.59-0.5,0.95-0.33C272.42,249.7,272.57,250.13,272.4,250.48z"/>
						<path style="fill:#AD6359;" d="M265.66,251.72c-0.17,0.35-0.59,0.5-0.95,0.33c-0.35-0.17-0.5-0.59-0.33-0.95
							c0.17-0.35,0.59-0.5,0.95-0.33C265.68,250.94,265.83,251.37,265.66,251.72z"/>
						<path style="fill:#AD6359;" d="M264.92,256.54c-0.17,0.35-0.59,0.5-0.95,0.33c-0.35-0.17-0.5-0.59-0.33-0.95
							c0.17-0.35,0.59-0.5,0.95-0.33C264.94,255.77,265.09,256.19,264.92,256.54z"/>
						<path style="fill:#AD6359;" d="M270.67,255.7c-0.17,0.35-0.59,0.5-0.95,0.33c-0.35-0.17-0.5-0.59-0.33-0.95
							c0.17-0.35,0.59-0.5,0.95-0.33C270.69,254.92,270.84,255.35,270.67,255.7z"/>
					</g>
					<g>
						<path style="fill:#455A64;" d="M234.78,252.7c-6.56-1.99-11.21-8.25-10.88-15.4c0.39-8.47,7.59-15.03,16.05-14.65
							c8.47,0.39,15.03,7.59,14.65,16.05l0,0c-0.39,8.46-7.59,15.03-16.05,14.65C237.24,253.28,235.98,253.06,234.78,252.7z
							 M243.12,225.26c-1.04-0.32-2.13-0.51-3.26-0.56c-7.33-0.34-13.57,5.36-13.91,12.69c-0.33,7.33,5.36,13.58,12.69,13.9
							c7.33,0.33,13.57-5.36,13.91-12.69C252.83,232.4,248.81,226.98,243.12,225.26z"/>
						<path style="fill:#455A64;" d="M268.25,258.37c-5.63-1.71-8.98-9.02-7.56-16.91c0.72-3.98,2.53-7.53,5.1-10
							c2.66-2.55,5.81-3.65,8.88-3.1c3.08,0.55,5.64,2.68,7.25,6c1.55,3.21,2.01,7.17,1.29,11.15c-1.5,8.34-7.77,14.21-13.98,13.1
							C268.89,258.55,268.57,258.47,268.25,258.37z M275.06,230.57c-0.25-0.08-0.5-0.14-0.76-0.18c-2.4-0.43-4.93,0.48-7.1,2.56
							c-2.26,2.17-3.86,5.32-4.5,8.88c-1.3,7.22,1.77,13.85,6.88,14.76c5.09,0.92,10.29-4.22,11.59-11.44
							c0.64-3.56,0.24-7.07-1.12-9.89C278.89,232.84,277.14,231.2,275.06,230.57z"/>
						<path style="fill:#455A64;" d="M253.93,240.38l-0.86-1.5c2.23-1.28,7.09-2.65,9.6,1.24l-1.45,0.94
							C258.97,237.56,254.13,240.26,253.93,240.38z"/>
						<path style="fill:#455A64;" d="M191.8,232.6l-1.37-1.05c0.49-0.64,4.92-6.25,8.84-6.19c3.66,0.07,26.12,6.33,27.08,6.59
							l-0.47,1.67c-6.44-1.8-23.81-6.48-26.64-6.53C196.65,227.05,192.99,231.06,191.8,232.6z"/>
					</g>
					<g>
						<g>
							<path style="fill:#AD6359;" d="M208.89,234.32c0,0-6.8-15.31-13.57-13.14c-6.77,2.17-3.48,23.09,3.18,27.16
								c6.66,4.07,10.55-2.02,10.55-2.02L208.89,234.32z"/>
							<path style="fill:#263238;" d="M196.41,227.16c-0.11-0.03-0.17,0.13-0.08,0.18c4.64,3.02,6.38,8.2,7.3,13.41
								c-1.14-2.15-2.98-3.57-5.82-2.28c-0.15,0.07-0.06,0.3,0.08,0.3c2.15-0.04,3.57,0.61,4.64,2.53c0.76,1.36,1.15,2.97,1.59,4.46
								c0.15,0.5,1.01,0.41,0.94-0.14c-0.01-0.04-0.01-0.08-0.02-0.12C206.42,239.1,203.17,229.14,196.41,227.16z"/>
						</g>
					</g>
				</g>
			</g>
		</g>
	</g>
</g>
<g id="Device">
	<g>
		<g>
			<rect x="272.4" y="423.75" style="fill:#455A64;" width="120.67" height="5.41"/>
			<rect x="272.4" y="423.75" style="fill:#A6A6A6;" width="60.73" height="5.41"/>
		</g>
		<g>
			<g>
				<polygon style="fill:#C7C7C7;" points="331.72,429.15 449.32,429.15 465.94,349.28 348.34,349.28 				"/>
			</g>
			<path style="fill:#FFFFFF;" d="M389.71,391c-0.45,4.33,2.69,7.84,7.01,7.84c4.33,0,8.21-3.51,8.66-7.84
				c0.45-4.33-2.69-7.84-7.01-7.84C394.05,383.16,390.17,386.67,389.71,391z"/>
		</g>
	</g>
</g>
<g id="Books">
	<g>
		<g>
			<rect x="58.94" y="416.37" style="fill:#37474F;" width="100.44" height="11.89"/>
			<rect x="78.64" y="416.37" style="fill:#455A64;" width="4.1" height="11.89"/>
			<rect x="137.75" y="416.37" style="fill:#455A64;" width="9.81" height="11.89"/>
			<rect x="89.51" y="419.02" style="fill:none;" width="39.3" height="9.24"/>
			<text transform="matrix(1 0 0 1 89.5096 425.4048)" style="fill:#FFFFFF; font-family:'MyriadPro-Regular'; font-size:9px;">TÜRKÇE</text>
		</g>
		<g>
			<rect x="50.9" y="352.42" style="fill:#FFC727;" width="100.44" height="15.32"/>
			<rect x="59.35" y="352.42" style="fill:#455A64;" width="25.24" height="15.32"/>
			<rect x="64.1" y="354.55" style="fill:#FFC727;" width="15.75" height="2.69"/>
			<rect x="64.1" y="358.73" style="fill:#FFC727;" width="15.75" height="2.69"/>
			<rect x="64.1" y="362.9" style="fill:#FFC727;" width="15.75" height="2.69"/>
		</g>
		<g>
			<rect x="54.72" y="367.73" style="fill:#37474F;" width="102.59" height="15.71"/>
			<rect x="114.52" y="372.83" style="fill:#FFC727;" width="24.64" height="5.52"/>
			<path style="fill:#FFC727;" d="M151.52,375.59c0,1.68-1.46,3.05-3.25,3.05c-1.8,0-3.25-1.37-3.25-3.05s1.46-3.05,3.25-3.05
				C150.06,372.54,151.52,373.9,151.52,375.59z"/>
			<rect x="63.09" y="372.02" style="fill:none;" width="44.33" height="9.24"/>
			<text transform="matrix(1 0 0 1 63.0871 379.1156)" style="fill:#FFFFFF; font-family:'MyriadPro-Regular'; font-size:10px;">ARAPÇA</text>
		</g>
		<g>
			<rect x="50.21" y="383.44" style="fill:#263238;" width="51.83" height="13.87"/>
			<rect x="102.04" y="383.44" style="fill:#263238;" width="47.91" height="13.87"/>
			<rect x="50.21" y="384.88" style="fill:#FFFFFF;" width="51.83" height="10.99"/>
			<path style="fill:#DBDBDB;" d="M54.72,387.14c5.43-0.08,10.86-0.13,16.29-0.16l7.37-0.05l16.29,0.05
				c5.43,0.03,1.94,0.08,7.37,0.16c-5.43,0.08-1.94,0.13-7.37,0.16l-16.29,0.05l-7.37-0.05C65.58,387.27,60.15,387.21,54.72,387.14z
				"/>
			<path style="fill:#DBDBDB;" d="M54.72,389.29c5.43-0.08,10.86-0.13,16.29-0.16l7.37-0.05l16.29,0.05
				c5.43,0.03,1.94,0.08,7.37,0.16c-5.43,0.08-1.94,0.13-7.37,0.16l-16.29,0.05l-7.37-0.05C65.58,389.43,60.15,389.37,54.72,389.29z
				"/>
			<path style="fill:#DBDBDB;" d="M54.72,391.45c5.43-0.08,10.86-0.13,16.29-0.16l7.37-0.05l16.29,0.05
				c5.43,0.03,1.94,0.08,7.37,0.16c-5.43,0.08-1.94,0.13-7.37,0.16l-16.29,0.05l-7.37-0.05C65.58,391.58,60.15,391.53,54.72,391.45z
				"/>
			<path style="fill:#DBDBDB;" d="M54.72,393.61c5.43-0.08,10.86-0.13,16.29-0.16l7.37-0.05l16.29,0.05
				c5.43,0.03,1.94,0.08,7.37,0.16c-5.43,0.08-1.94,0.13-7.37,0.16l-16.29,0.05l-7.37-0.05C65.58,393.74,60.15,393.68,54.72,393.61z
				"/>
			<rect x="112.65" y="383.44" style="fill:#455A64;" width="6.74" height="13.87"/>
			<rect x="142.94" y="383.44" style="fill:#455A64;" width="4.53" height="13.87"/>
		</g>
		<g>
			
				<rect x="89.55" y="397.3" transform="matrix(-1 -1.224647e-16 1.224647e-16 -1 237.4784 813.6649)" style="fill:#FFC727;" width="58.37" height="19.06"/>
			
				<rect x="45.23" y="397.3" transform="matrix(-1 -1.224647e-16 1.224647e-16 -1 134.7887 813.6649)" style="fill:#FFC727;" width="44.32" height="19.06"/>
			
				<rect x="89.55" y="399.28" transform="matrix(-1 -1.224647e-16 1.224647e-16 -1 237.4784 813.665)" style="fill:#FFFFFF;" width="58.37" height="15.1"/>
			<path style="fill:#DBDBDB;" d="M144.15,411.28c-4.55,0.08-9.1,0.13-13.65,0.16l-13.65,0.05l-13.65-0.05
				c-4.55-0.03-9.1-0.08-13.65-0.16c4.55-0.08,9.1-0.13,13.65-0.16l13.65-0.05l13.65,0.05C135.05,411.14,139.6,411.2,144.15,411.28z
				"/>
			<path style="fill:#DBDBDB;" d="M144.15,408.31c-4.55,0.08-9.1,0.13-13.65,0.16l-13.65,0.05l-13.65-0.05
				c-4.55-0.03-9.1-0.08-13.65-0.16c4.55-0.08,9.1-0.13,13.65-0.16l13.65-0.05l13.65,0.05C135.05,408.18,139.6,408.24,144.15,408.31
				z"/>
			<path style="fill:#DBDBDB;" d="M144.15,405.35c-4.55,0.08-9.1,0.13-13.65,0.16l-13.65,0.05l-13.65-0.05
				c-4.55-0.03-9.1-0.08-13.65-0.16c4.55-0.08,9.1-0.13,13.65-0.16l13.65-0.05l13.65,0.05C135.05,405.22,139.6,405.27,144.15,405.35
				z"/>
			<path style="fill:#DBDBDB;" d="M144.15,402.39c-4.55,0.08-9.1,0.13-13.65,0.16l-13.65,0.05l-13.65-0.05
				c-4.55-0.03-9.1-0.08-13.65-0.16c4.55-0.08,9.1-0.13,13.65-0.16l13.65-0.05l13.65,0.05C135.05,402.26,139.6,402.31,144.15,402.39
				z"/>
			<rect x="52.29" y="397.3" style="fill:#455A64;" width="8.3" height="19.06"/>
		</g>
	</g>
</g>
</svg>
