<?xml version="1.0" encoding="utf-8"?>
<!-- Generator: Adobe Illustrator 22.0.1, SVG Export Plug-In . SVG Version: 6.00 Build 0)  -->
<svg version="1.1" xmlns="http://www.w3.org/2000/svg" xmlns:xlink="http://www.w3.org/1999/xlink" x="0px" y="0px"
	 viewBox="0 0 750 500" style="enable-background:new 0 0 750 500;" xml:space="preserve">
<g id="OBJECTS">
	<g>
		<g>
			<path style="opacity:0.33;fill:#B8E5FF;" d="M641.07,298.23c-4.51,36-30.5,30.01-34.61,71.86c-1.47,14.94,9.62,24.33,15.12,37.26
				c6.1,14.3,3.94,27.14-4.3,36.94H165.39c-9.99-4.5-19.52-9.28-27.82-15.03c-11.42-7.9-20.46-17.63-25.07-30.98
				c-4.16-12.06-7.37-23.69,3.56-32.84c5.93-4.97,12.11-8.81,17.48-13.42c4.04-3.46,7.61-7.36,10.31-12.52
				c19.7-37.79-5.57-71.09-14.85-108.9c-0.9-3.67-1.72-7.39-2.37-11.11c-1.7-9.48-2.49-19.11-1.48-28.48
				c0.91-8.58,3.34-16.98,7.92-24.88c6.89-11.85,24.74-29.34,43.92-26c14.41,2.51,23.48,16.33,36.5,21.33
				c16.4,6.3,34.59,1.26,46.88-8c23.9-18.01,39.21-52.23,80.05-49.1c13.85,1.06,23.2,12,35.34,17.01
				c16.69,6.9,33.16,6.85,49.11,0.14c18.35-7.72,30.93-22.07,48.95-30.28c5.9-2.69,12.32-5.04,19.02-6.84
				c14.49-3.92,30.34-5.31,45.28-2.29c3.17,0.64,6.17,1.4,9.02,2.29c49.96,15.38,52.32,65.77,49.97,102.53
				c-1.08,16.84-14.56,45.89-4.6,63.3C602.47,267.63,645.42,263.43,641.07,298.23z"/>
			<g>
				<g>
					<polygon style="fill:#B8E5FF;" points="197.18,444.29 192.97,444.29 192.44,425.74 203.08,425.74 					"/>
					<polygon style="fill:#B8E5FF;" points="275.77,444.29 279.98,444.29 280.51,425.74 269.87,425.74 					"/>
				</g>
				<rect x="186.9" y="245.57" style="fill:#94D5FF;" width="99.15" height="182.3"/>
				<g>
					<g>
						<rect x="195.3" y="259.33" style="fill:#B8E5FF;" width="82.36" height="35.82"/>
						<circle style="fill:#94D5FF;" cx="236.48" cy="277.25" r="5.48"/>
					</g>
					<g>
						<rect x="195.3" y="298.98" style="fill:#B8E5FF;" width="82.36" height="35.82"/>
						<circle style="fill:#94D5FF;" cx="236.48" cy="316.89" r="5.48"/>
					</g>
					<g>
						<rect x="195.3" y="338.63" style="fill:#B8E5FF;" width="82.36" height="35.82"/>
						<circle style="fill:#94D5FF;" cx="236.48" cy="356.54" r="5.48"/>
					</g>
					<g>
						<rect x="195.3" y="378.28" style="fill:#B8E5FF;" width="82.36" height="35.82"/>
						<circle style="fill:#94D5FF;" cx="236.48" cy="396.19" r="5.48"/>
					</g>
				</g>
				<rect x="183.97" y="242.56" style="fill:#B8E5FF;" width="105" height="6.88"/>
			</g>
			<g>
				<g>
					<g>
						<g>
							<path style="fill:#94D5FF;" d="M223.09,121.49c-1.19-3.29,1.29-7.53,4.53-9.66c2.16-1.42,4.67-2.34,6.01-4.21
								c-0.13,2.47-0.77,4.63-2.42,6.98C229.41,117.18,226.64,119.85,223.09,121.49z"/>
							<path style="fill:#B8E5FF;" d="M223.09,122.62c0.46-1.81-1.45-3.53-2.67-4.51c-1.23-1-2.6-1.84-3.67-2.95
								c-2.35-2.42-2.44-7.12,0.22-9.67c-0.75,0.64,0.42,2.81,0.78,3.37c0.84,1.3,2.15,2.27,3.26,3.4
								C223.6,114.92,224.04,118.83,223.09,122.62z"/>
							<path style="fill:#B8E5FF;" d="M223.75,119.16c-0.6-1.66,1.13-3.66,2.23-4.83c1.11-1.18,2.37-2.24,3.32-3.5
								c2.07-2.74,1.78-7.26-1.01-9.24c0.78,0.49-0.17,2.78-0.47,3.38c-0.71,1.4-1.91,2.56-2.89,3.85
								C222.61,111.84,222.5,115.69,223.75,119.16z"/>
							<path style="fill:#94D5FF;" d="M222.78,118.73c-0.59-0.14-1.17-0.93-1.45-1.35c-0.55-0.81-0.86-1.71-1.02-2.64
								c-0.39-2.35,0.32-4.64,0.43-6.91c0.08-1.76-0.03-3.52-0.63-5.13c-0.3-0.81-0.81-1.47-1.26-2.19
								c-0.04-0.06,0.73,0.18,0.78,0.2c4.69,2.12,5.68,6.47,4.79,10.93c-0.28,1.39-0.47,2.76-0.91,4.16
								C223.23,116.67,222.56,117.85,222.78,118.73z"/>
						</g>
						<g>
							<polygon style="fill:#B8E5FF;" points="229.3,130.53 219.63,130.53 216.46,120.41 232.47,120.41 							"/>
							<polygon style="fill:#94D5FF;" points="229.76,131.3 219.12,131.3 219.05,129.7 229.82,129.7 							"/>
							<polygon style="fill:#94D5FF;" points="232.75,121.61 216.12,121.61 215.81,118.42 233.06,118.42 							"/>
						</g>
					</g>
					<path style="fill:#94D5FF;" d="M289.46,111.91l1.15,2.34c0.43,0.87,1.26,1.48,2.23,1.62l2.58,0.38
						c2.43,0.35,3.4,3.34,1.64,5.05l-1.87,1.82c-0.7,0.68-1.02,1.66-0.85,2.62l0.44,2.57c0.41,2.42-2.12,4.26-4.29,3.12l-2.31-1.21
						c-0.86-0.45-1.89-0.45-2.75,0l-2.31,1.21c-2.17,1.14-4.71-0.7-4.29-3.12l0.44-2.57c0.16-0.96-0.15-1.94-0.85-2.62l-1.87-1.82
						c-1.76-1.71-0.79-4.69,1.64-5.05l2.58-0.38c0.96-0.14,1.8-0.75,2.23-1.62l1.15-2.34C285.24,109.71,288.37,109.71,289.46,111.91
						z"/>
					<g>
						<rect x="251.25" y="92.44" style="fill:#94D5FF;" width="10.61" height="39.08"/>
						<rect x="261.56" y="97.55" style="fill:#50BCFF;" width="6.05" height="33.98"/>
						<rect x="242.55" y="106.17" style="fill:#B8E5FF;" width="8.91" height="25.36"/>
						<rect x="242.55" y="110.04" style="opacity:0.68;fill:#94D5FF;" width="8.91" height="2.94"/>
						<rect x="242.55" y="125.53" style="opacity:0.68;fill:#94D5FF;" width="8.91" height="2.94"/>
						<rect x="267.09" y="95.32" style="fill:#94D5FF;" width="7.48" height="36.21"/>
						<rect x="269.06" y="106.29" style="fill:#B8E5FF;" width="3.53" height="16.22"/>
					</g>
					<g>
						<g>
							<g>
								
									<rect x="282.39" y="140.02" transform="matrix(-1 -1.224647e-16 1.224647e-16 -1 571.0364 295.2406)" style="fill:#94D5FF;" width="6.26" height="15.19"/>
								
									<rect x="278.32" y="138.63" transform="matrix(-1 -1.224647e-16 1.224647e-16 -1 571.0364 281.6381)" style="fill:#94D5FF;" width="14.4" height="4.37"/>
							</g>
							<g>
								
									<rect x="220.03" y="140.02" transform="matrix(-1 -1.224647e-16 1.224647e-16 -1 446.3128 295.2406)" style="fill:#94D5FF;" width="6.26" height="15.19"/>
								
									<rect x="215.96" y="138.63" transform="matrix(-1 -1.224647e-16 1.224647e-16 -1 446.3129 281.6381)" style="fill:#94D5FF;" width="14.4" height="4.37"/>
							</g>
						</g>
						
							<rect x="205.22" y="131.14" transform="matrix(-1 -1.224647e-16 1.224647e-16 -1 508.6746 270.498)" style="fill:#B8E5FF;" width="98.23" height="8.21"/>
					</g>
				</g>
				<g>
					<g>
						<path style="fill:#94D5FF;" d="M177.39,178.76h-6.38c-0.23,0-0.42,0.14-0.5,0.36l-11.41,19.25c-0.14,0.41,0.17,0.87,0.59,0.87
							l11.1,0c0.23,0,0.42-0.14,0.5-0.36l6.68-19.25C178.12,179.22,177.81,178.76,177.39,178.76z"/>
						<polygon style="fill:#50BCFF;" points="164.97,171.05 198.54,171.05 203.07,199.28 169.49,199.28 						"/>
						<polygon style="fill:#94D5FF;" points="166.14,171.05 199.72,171.05 204.24,199.28 170.67,199.28 						"/>
						<polygon style="fill:#FFFFFF;" points="169.21,173.66 197.49,173.66 201.18,196.68 172.9,196.68 						"/>
						<polygon style="fill:#94D5FF;" points="173.95,178.08 194.16,178.08 196.44,192.26 176.22,192.26 						"/>
					</g>
					<g>
						<path style="fill:#94D5FF;" d="M228.44,189.55c0,3.62-2.04,6.76-5.04,8.33c-0.06,0.04-0.12,0.07-0.18,0.09
							c-1.26,0.64-2.68,0.99-4.19,0.99c-2.91,0-5.52-1.33-7.25-3.42c-0.14-0.16-0.27-0.33-0.39-0.51c-1.12-1.54-1.77-3.43-1.77-5.48
							c0-4.67,3.42-8.55,7.88-9.28c0.15-0.03,0.3-0.05,0.45-0.07c0.35-0.04,0.71-0.06,1.08-0.06c4.74,0,8.66,3.51,9.31,8.07
							c0.03,0.19,0.05,0.38,0.07,0.57C228.43,189.03,228.44,189.29,228.44,189.55z"/>
						<path style="fill:#B8E5FF;" d="M217.35,190.16c-0.89,1.46-2.03,2.82-3.32,3.95c-0.67,0.58-1.42,1.11-2.25,1.43
							c-0.14-0.16-0.27-0.33-0.39-0.51c1.16-0.5,2.17-1.32,3.07-2.23c1.25-1.27,2.35-2.7,3.12-4.32c0.8-1.69,1.17-3.61,0.89-5.48
							c-0.13-0.84-0.39-1.67-0.79-2.42c-0.05-0.1-0.11-0.21-0.18-0.31c0.15-0.03,0.3-0.05,0.45-0.07c0.11,0.18,0.2,0.36,0.28,0.52
							C219.73,183.76,219.06,187.36,217.35,190.16z"/>
						<path style="fill:#B8E5FF;" d="M228.41,188.78c-0.41,0.29-0.79,0.62-1.16,0.97c-2.22,2.13-3.57,5.08-3.85,8.13
							c-0.06,0.04-0.12,0.07-0.18,0.09c0.12-3.2,1.44-6.28,3.71-8.55c0.44-0.44,0.91-0.84,1.41-1.21
							C228.37,188.4,228.39,188.59,228.41,188.78z"/>
					</g>
					<g>
						<g>
							<g>
								
									<rect x="223.02" y="207.39" transform="matrix(-1 -1.224647e-16 1.224647e-16 -1 452.2908 429.9713)" style="fill:#94D5FF;" width="6.26" height="15.19"/>
								
									<rect x="218.95" y="206" transform="matrix(-1 -1.224647e-16 1.224647e-16 -1 452.2908 416.3687)" style="fill:#94D5FF;" width="14.4" height="4.37"/>
							</g>
							<g>
								
									<rect x="160.66" y="207.39" transform="matrix(-1 -1.224647e-16 1.224647e-16 -1 327.5674 429.9713)" style="fill:#94D5FF;" width="6.26" height="15.19"/>
								
									<rect x="156.59" y="206" transform="matrix(-1 -1.224647e-16 1.224647e-16 -1 327.5674 416.3687)" style="fill:#94D5FF;" width="14.4" height="4.37"/>
							</g>
						</g>
						
							<rect x="145.85" y="198.51" transform="matrix(-1 -1.224647e-16 1.224647e-16 -1 389.9291 405.2287)" style="fill:#B8E5FF;" width="98.23" height="8.21"/>
					</g>
				</g>
			</g>
			<g>
				<ellipse style="fill:#94D5FF;" cx="569.36" cy="378.61" rx="23.4" ry="22.22"/>
				<polygon style="fill:#B8E5FF;" points="592.09,381.55 546.97,381.55 549.21,444.29 589.85,444.29 				"/>
				<rect x="544.46" y="377.69" style="fill:#94D5FF;" width="51.16" height="8.05"/>
				<g>
					<path style="fill:#B8E5FF;" d="M562.71,361.19c-1.25,2.89-2.22,5.89-2.89,8.96c-0.55,2.5-0.79,5.01-0.98,7.53h33.88
						c-0.36-8.35-5.56-15.51-13.01-19.01c-2.8,0.63-5.64,1.14-8.47,1.6C568.42,360.74,565.57,361.1,562.71,361.19z"/>
				</g>
			</g>
		</g>
		<g>
			<rect x="330.03" y="69.06" style="fill:#FFD245;" width="152.33" height="100.77"/>
			<path style="fill:#FFD245;" d="M358.78,168.33c-0.08,0.37,0.37,24.57,0.37,24.57l13.03-24.44L358.78,168.33z"/>
			<g>
				<rect x="333.9" y="73.47" style="fill:#FFFFFF;" width="144.57" height="91.96"/>
				<g>
					<path style="opacity:0.4;fill:#50BCFF;" d="M478.48,148.8H356.09c-1.63,0-2.96-1.32-2.96-2.96V73.47h125.34V148.8z"/>
					<path style="opacity:0.83;fill:#FFFFFF;" d="M478.48,142.77H363.16c-0.95,0-1.72-0.77-1.72-1.72V73.47h117.03V142.77z"/>
					<g style="opacity:0.36;">
						<path style="fill:#004DBE;" d="M469.64,92.62c-1.42-1.25-4.23-0.86-6.1-0.9c-5.61-0.13-11.22-0.19-16.84-0.16
							c-0.31,0-0.59,0.2-0.59,0.47c-0.05,4.01,0.09,8.01,0.41,12.01c-2.31-2.84-4.81-5.62-7.76-8.01c-0.16-0.13-0.49,0.04-0.34,0.21
							c2.82,3.15,5.75,6.2,8.26,9.52c0.25,0.33,1,0.25,0.97-0.2c-0.31-4.34-0.45-8.69-0.38-13.04c4.45,0.03,8.91,0.08,13.36,0.16
							c2.2,0.04,4.43,0,6.63,0.15c2.46,0.17,1.93,2.1,2.53,3.5c0.12,0.28,0.55,0.28,0.69,0.01
							C471.05,95.21,470.67,93.53,469.64,92.62z"/>
						<path style="fill:#004DBE;" d="M468.76,100.85c-0.69,0.65-1.55,2.13-2.87,1.8c-0.76-0.19-0.96-1.08-1.2-1.61
							c-0.27-0.59-0.54-1.18-0.81-1.77c-0.13-0.29-0.66-0.44-0.88-0.11c-0.38,0.57-0.79,1.13-1.27,1.65
							c-0.34,0.37-1.2,1.45-1.9,1.21c-0.56-0.19-0.77-1.08-0.84-1.59c0.38-0.73,0.57-1.52,0.43-2.35c-0.06-0.33-0.73-0.42-0.9-0.11
							c-0.41,0.75-0.59,1.53-0.52,2.34c-0.14,0.24-0.3,0.47-0.48,0.7c-0.6,0.74-1.48,1.66-2.52,1.99c-1.38,0.44-2.22-0.67-2.55-1.61
							c-0.18-0.52-0.62-2.43,0.3-2.52c0.29-0.03,0.2-0.38-0.06-0.39c-0.17-0.01-0.33-0.02-0.5-0.03c-0.09-0.01-0.21,0.04-0.25,0.11
							c-0.65,1.11-0.71,2.4-0.15,3.55c0.49,1.01,1.52,1.94,2.96,1.77c1.44-0.17,2.55-1.25,3.37-2.16c0.06-0.07,0.11-0.15,0.17-0.22
							c0.2,0.5,0.5,0.98,0.98,1.23c1.56,0.79,3.16-1.11,4.06-2.4c0.28,0.64,0.56,1.29,0.88,1.92c0.31,0.62,0.78,1.11,1.63,1.23
							c1.81,0.26,3.06-1.12,3.34-2.42C469.2,100.88,468.94,100.68,468.76,100.85z"/>
						<path style="fill:#004DBE;" d="M476.83,90.05c-0.22-0.2-0.53-0.22-0.84-0.24c-0.3-0.02-0.61-0.07-0.89-0.16
							c-0.41-0.14-0.82-0.44-0.87-0.82c-0.02-0.37-0.72-0.39-0.72-0.01c0,0.03,0.01,0.05,0.02,0.08l-0.01,0
							c0.09,0.5,0.11,1.03-0.06,1.52c-0.08,0.25-0.2,0.48-0.38,0.7c-0.14,0.17-0.46,0.49-0.73,0.49c-0.26,0-0.32-0.35-0.35-0.51
							c-0.06-0.36-0.09-0.72-0.11-1.08c-0.03-0.72,0.02-1.43,0.15-2.14c0.03-0.14-0.27-0.18-0.3-0.04
							c-0.16,0.66-0.25,1.34-0.26,2.01c-0.01,0.34,0,0.68,0.03,1.01c0.02,0.25,0.04,0.51,0.15,0.74c0.1,0.19,0.27,0.36,0.53,0.41
							c0.34,0.07,0.65-0.1,0.89-0.27c0.45-0.31,0.74-0.75,0.91-1.2c0.07-0.21,0.11-0.42,0.15-0.63c0.13,0.1,0.27,0.18,0.43,0.25
							c0.35,0.16,0.73,0.24,1.12,0.29c0.39,0.05,0.81,0.1,1.13-0.13C476.92,90.25,476.91,90.13,476.83,90.05z"/>
						<path style="fill:#004DBE;" d="M436.81,122.14c-0.3,0.35-1.04,0.36-1.44,0.14c-0.54-0.29-0.78-0.87-0.97-1.35
							c-0.13-0.33-0.64-0.4-0.88-0.11c-0.45,0.54-0.89,1.07-1.34,1.61c-0.2,0.24-1.19,1.6-1.33,0.77c-0.22-1.26,0.08-2.69,0.39-3.92
							c0.12-0.46-0.75-0.68-0.87-0.21c-0.29,1.12-0.84,2.17-1.66,3.09c-0.63,0.7-2.03,2.16-3.27,1.9c-0.74-0.15-0.86-0.9-0.96-1.42
							c-0.13-0.63-0.17-1.27-0.13-1.91c0.08-1.29,0.51-2.55,1.23-3.69c0.19-0.31-0.36-0.59-0.56-0.28
							c-0.88,1.33-1.38,2.81-1.45,4.32c-0.05,1.1-0.08,3.1,1.42,3.6c1.5,0.5,3.07-0.78,3.94-1.62c0.36-0.35,0.67-0.72,0.96-1.1
							c0,0,0,0.01,0,0.01c-0.03,0.63-0.25,1.73,0.48,2.16c0.67,0.4,1.47,0.03,1.91-0.43c0.55-0.58,1.04-1.2,1.54-1.82
							c0.32,0.56,0.76,1.07,1.5,1.26c0.85,0.23,1.81-0.04,2.05-0.79C437.47,122.06,437.02,121.91,436.81,122.14z"/>
						<path style="fill:#004DBE;" d="M445.7,123.48c-0.14-0.22-0.44-0.41-0.65-0.58c-0.25-0.2-0.5-0.41-0.75-0.61
							c-0.09-0.08-0.19-0.15-0.28-0.23c0.07-0.17,0.15-0.33,0.21-0.5c0.38-0.99,0.66-2,0.65-3.04c0-0.25-0.45-0.25-0.47-0.01
							c-0.11,1.01-0.49,1.98-0.97,2.92c-0.02,0.04-0.04,0.08-0.06,0.11c-0.18-0.15-0.36-0.3-0.55-0.44l-3-2.32
							c-0.29-0.23-0.72,0.11-0.45,0.36c0.94,0.85,1.88,1.69,2.81,2.54c0.25,0.22,0.5,0.44,0.75,0.65c-0.08,0.14-0.16,0.29-0.24,0.44
							c-0.27,0.48-0.59,0.99-0.78,1.49c-0.16,0.43,0.62,0.73,0.88,0.32c0.31-0.47,0.54-1,0.77-1.5c0.02-0.05,0.04-0.1,0.06-0.15
							l0.66,0.56c0.24,0.21,0.48,0.49,0.82,0.58C445.55,124.19,445.88,123.78,445.7,123.48z"/>
						<path style="fill:#004DBE;" d="M471.23,119.15c-0.13-0.18-0.41-0.09-0.44,0.09c-0.13,0.81-0.71,1.8-1.75,2.01
							c-1.23,0.25-2.31-0.7-2.27-1.67c0.02-0.53-0.99-0.68-1.15-0.15c-0.26,0.88-0.67,2.33-2.02,2.41
							c-1.94,0.11-2.22-1.92-2.09-3.06c0.06-0.46-0.85-0.57-0.98-0.12c-0.35,1.26-1.31,2.63-2.85,3.12
							c-2.28,0.72-2.57-1.66-2.47-2.93c0.03-0.42-0.81-0.55-0.92-0.12c-0.01,0.03-0.01,0.07-0.02,0.1h0c0,0.01,0,0.02,0,0.03
							c-0.05,0.26-0.07,0.55-0.07,0.85c-0.13,0.64-0.44,1.31-1.01,1.64c-0.23,0.13-0.66,0.26-0.84,0.13
							c-0.16-0.11-0.1-0.57-0.09-0.77c0.03-0.57,0.25-1.1,0.6-1.59c0.14-0.19-0.2-0.35-0.35-0.18c-0.55,0.63-1.83,3.26-0.02,3.39
							c0.78,0.06,1.48-0.68,1.87-1.15c0.03-0.04,0.06-0.09,0.09-0.13c0.37,1,1.17,1.81,2.63,1.72c1.55-0.11,2.74-1.02,3.52-2.11
							c0.31,1.06,1.12,1.97,2.65,2.11c1.46,0.13,2.35-0.68,2.9-1.65c0.64,0.79,1.75,1.31,2.96,1.14
							C470.79,122.03,472.17,120.46,471.23,119.15z"/>
						<path style="fill:#004DBE;" d="M417.62,77.82c-0.06-0.21-0.38-0.32-0.61-0.21c-7.28,3.55-14.61,7.09-21.73,10.87
							c-0.25-0.2-0.52-0.38-0.82-0.52c-0.11-0.05-0.28-0.03-0.34,0.07c-0.11,0.18-0.15,0.34-0.01,0.52c0.08,0.1,0.26,0.04,0.24-0.08
							c0,0,0-0.01,0-0.01c0.12,0.11,0.24,0.21,0.36,0.32c-0.66,0.35-1.33,0.69-1.98,1.05c-0.18,0.1-0.03,0.33,0.16,0.24
							c0.71-0.34,1.41-0.69,2.12-1.03c0.28,0.25,0.55,0.5,0.79,0.79c0.47,0.57,0.85,1.19,1.11,1.84c0.16,0.41,0.33,0.88,0.41,1.35
							c-3.01-0.19-6.01-0.46-9.02-0.78c-0.43-0.04-0.55,0.56-0.12,0.63c3.02,0.46,6.08,0.76,9.17,0.94
							c-0.05,0.48-0.23,0.92-0.68,1.26c-0.09,0.07-0.06,0.22,0.07,0.24c0.84,0.16,1.22-0.58,1.32-1.14c0.02-0.1,0.02-0.21,0.02-0.32
							c7.12,0.37,14.33,0.07,21.31-0.72c0.19-0.02,0.34-0.2,0.34-0.35C419.62,87.74,418.95,82.74,417.62,77.82z M403.56,93.26
							c-1.84-0.01-3.67-0.1-5.5-0.2c-0.06-0.4-0.18-0.8-0.31-1.18c-0.28-0.78-0.7-1.52-1.25-2.19c-0.26-0.32-0.56-0.65-0.89-0.95
							c7.1-3.43,14.13-6.95,21.29-10.29c1.09,4.62,1.77,9.3,1.93,14C413.78,93.02,408.67,93.3,403.56,93.26z"/>
						<path style="fill:#004DBE;" d="M428.26,82.49c-0.48,0.03-0.94,0.24-1.37,0.39c-0.45,0.16-0.89,0.33-1.34,0.5
							c-0.91,0.35-1.89,0.66-2.73,1.1c-0.13,0.07-0.06,0.26,0.11,0.22c0.95-0.22,1.86-0.61,2.77-0.94c0.45-0.16,0.91-0.32,1.35-0.49
							c0.44-0.17,0.96-0.32,1.31-0.6C428.43,82.62,428.38,82.48,428.26,82.49z"/>
						<path style="fill:#004DBE;" d="M431.79,80.95c-0.31-0.17-0.72-0.09-1.06-0.06c-0.45,0.05-0.91,0.1-1.36,0.14
							c-0.45,0.05-0.91,0.1-1.36,0.14c-0.23,0.02-0.45,0.05-0.68,0.09c-0.23,0.04-0.51,0.05-0.71,0.16
							c-0.15,0.09-0.13,0.25,0.04,0.31c0.17,0.06,0.36,0.04,0.54,0.03c0.2,0,0.39,0,0.59-0.02c0.39-0.03,0.78-0.06,1.17-0.09
							l1.17-0.09c0.36-0.03,0.74-0.09,1.1-0.08c0,0,0.01,0,0.01,0c-0.05,0.12-0.12,0.23-0.18,0.35c-0.14,0.25-0.3,0.49-0.48,0.73
							c-0.17,0.23-0.35,0.44-0.55,0.65c-0.1,0.11-0.22,0.21-0.31,0.32c-0.11,0.12-0.16,0.25-0.24,0.39
							c-0.11,0.2,0.21,0.35,0.41,0.27c0.4-0.16,0.63-0.39,0.9-0.68c0.25-0.27,0.47-0.55,0.67-0.84c0.2-0.29,0.37-0.58,0.52-0.89
							C432.13,81.5,432.15,81.15,431.79,80.95z"/>
						<path style="fill:#004DBE;" d="M451.81,79.5c-0.35-0.06-0.7-0.09-1.05-0.16c-0.38-0.08-0.69-0.24-1.05-0.34
							c-0.42-0.12-0.82-0.07-1.18,0.15c-0.39,0.24-0.61,0.61-0.93,0.91c-0.79,0.73-1.52-0.1-1.88-0.73
							c-0.18-0.32-0.74-0.15-0.76,0.16c-0.05,0.55-0.83,0.73-1.33,0.49c-0.48-0.22-0.68-0.65-0.69-1.09
							c-0.01-0.32-0.51-0.45-0.73-0.17c-0.5,0.63-1.08,1.23-1.77,1.72c-0.53,0.38-1.1,0.09-1.31-0.39
							c-0.18-0.41-0.15-0.85,0.04-1.25c0.13-0.39-0.55-0.54-0.72-0.18c-0.22,0.68-0.65,1.29-1.32,1.74
							c-0.48,0.32-1.37,0.56-1.75,0.02c-0.26-0.37-0.3-1.03-0.25-1.46c0.01-0.05-0.09-0.06-0.1-0.01c-0.24,0.59-0.59,1.1-0.22,1.73
							c0.26,0.44,0.81,0.74,1.42,0.69c0.85-0.06,1.56-0.55,2.09-1.14c0.16,0.57,0.57,1.06,1.33,1.18c1.08,0.18,2.07-0.84,2.74-1.68
							c0.25,0.54,0.71,0.99,1.47,1.08c0.64,0.08,1.23-0.17,1.58-0.57c0.65,0.73,1.63,1.28,2.63,0.48c0.5-0.4,0.76-1.23,1.58-0.95
							c0.77,0.27,1.43,0.49,2.22,0.11C452.01,79.77,452.01,79.53,451.81,79.5z"/>
						<path style="fill:#004DBE;" d="M453.24,83.68c-0.64-0.16-1.35-0.04-2.03-0.17c-0.7-0.13-1.38-0.32-2.09-0.38
							c-0.67-0.06-1.32,0.04-1.9,0.32c-0.36,0.17-1.79,1.1-1.99,0.32c-0.07-0.27-0.49-0.34-0.72-0.17c-0.66,0.48-1.46,1.02-2.4,0.95
							c-0.83-0.06-1.6-0.88-0.77-1.41c0.32-0.2-0.09-0.67-0.42-0.47c-0.98,0.59-0.82,1.81,0.21,2.3c1.24,0.59,2.53,0.07,3.55-0.58
							c0.31,0.27,0.79,0.41,1.27,0.37c0.96-0.07,1.58-0.82,2.54-0.9c0.92-0.07,1.82,0.26,2.71,0.41c0.72,0.12,1.69,0.26,2.18-0.3
							C453.47,83.87,453.38,83.71,453.24,83.68z"/>
					</g>
				</g>
				<g>
					<path style="fill:#004DBE;" d="M431.93,165.43h-70.09c1.01-5.26,4.77-22.51,10.47-26.37c4.75-3.2,10.45-5.97,18.16-7
						c0.52-0.08,1.03-0.13,1.56-0.18c0.71-0.08,1.42-0.15,2.17-0.18c0,0,0,0,0.02,0c2.17-0.11,4.49-0.11,6.97,0.06h0.1
						c0.5,0.03,1,0.08,1.5,0.14c0.47,0.03,0.93,0.1,1.4,0.16c12.41,1.72,23.17,9.1,25.26,19.5c0.32,1.59,0.6,3.03,0.84,4.32v0.02
						C431.27,161,431.72,163.96,431.93,165.43z"/>
					<path style="fill:#50BCFF;" d="M408.67,165.43h-17.61c-0.47-4.69-1.67-19.63-1.82-22.24c-0.31-5.47-0.08-8.36,1.08-9.82
						c0.43-0.55,1-0.9,1.72-1.11c0.77-0.21,1.72-0.27,2.88-0.24c0.92,0.02,1.96,0.1,3.16,0.18c0.61,0.05,1.18,0.1,1.69,0.16
						c1.22,0.13,2.22,0.29,3.03,0.52c0.9,0.24,1.59,0.55,2.13,0.93c1.42,1,1.74,2.58,2.13,5.09
						C407.65,143,408.6,160.49,408.67,165.43z"/>
					<rect x="390.98" y="122.17" style="fill:#E79F8B;" width="12.69" height="11.32"/>
					<g>
						<path style="fill:#E79F8B;" d="M433.33,124.16c-0.24-4.13,0.4-8.4,2.47-11.98c0.47-0.82,1.55-1.68,2.23-1.02
							c0.3,0.29,0.34,0.75,0.35,1.16c0.09,3.19-0.21,6.38-0.89,9.5c0.5-1.06,1.85-1.61,2.97-1.25c1.12,0.36,1.88,1.56,1.8,2.73
							c0.29-1.19,2.11-1.33,2.99-0.48c0.88,0.85,1.02,2.19,1.03,3.42c0.44-0.6,1.46-0.43,1.94,0.15c0.47,0.58,0.53,1.38,0.53,2.13
							c-0.02,2.29-0.49,4.62-1.7,6.55c-1.21,1.94-3.24,3.44-5.52,3.67C434.32,139.49,433.61,129.09,433.33,124.16z"/>
						<path style="fill:#E79F8B;" d="M436.36,136.31c0,0-6-3.39-3.91-7.17c2.09-3.78,8.21-1.82,6.91,0.39
							c-1.3,2.22-4.17,1.82-4.17,1.82L436.36,136.31z"/>
					</g>
					<path style="fill:#FFFFFF;" d="M390.57,130.39c0.67-0.07,3.96,2.44,7.49,2.26c3.53-0.18,5.29-1.81,5.82-2.35
						c0.52-0.54,3.42,5.24,2.98,5.87c-0.44,0.63-1.73,3.1-3.02,2.65c-1.29-0.45-4.93-4.8-4.93-4.8s-3.3,5.26-4.53,5.26
						c-1.23,0-5.21-1.85-5.42-4.74C388.74,131.66,389.7,130.48,390.57,130.39z"/>
					<polygon style="fill:#004DBE;" points="447.97,136.32 447.71,165.43 428.58,165.43 430.29,155.9 430.29,155.88 433.88,135.92 
						435.8,135.96 435.81,135.96 435.99,135.98 436.28,135.98 446.13,136.27 					"/>
					<g>
						<path style="fill:#004DBE;" d="M411.85,91.81c-0.35-0.25-0.79-0.22-1.23,0.2c-0.37,0.36-0.76,1.02-0.9,1.51
							c-0.5,1.7-0.31,3.58-0.03,5.21c0.26,1.5,0.68,2.99,1.38,4.28c0.03,0.05,0.06,0.11,0.09,0.16c0.34,0.6,0.74,1.15,1.22,1.64
							c0.1,0.03,0.19,0.07,0.3,0.07c0.33-0.01,0.65-0.23,0.9-0.47c1.71-1.64,1.33-4.25,1.01-6.15c-0.38-2.23-1.2-4.32-2.42-6.11
							C412.07,92.01,411.96,91.9,411.85,91.81z"/>
						<path style="fill:#E79F8B;" d="M414.1,106.49c0,10.87-1.72,20.19-13.11,20.92c-14.69,0.94-20.68-10.06-20.68-20.92
							s7.56-19.67,16.9-19.67C406.54,86.82,414.1,95.62,414.1,106.49z"/>
						<path style="fill:#FFFFFF;" d="M396.14,116.37c0.43-0.73,2.71-0.55,5.39-0.85c3.03-0.34,5.14-0.92,5.67-0.63
							c1,0.55-1.06,4.97-4.97,5.34C399.44,120.49,395.37,117.69,396.14,116.37z"/>
						<path style="fill:#004DBE;" d="M393.31,92.5c3.11,1.87,6.2,3.82,9.55,5.19c3.82,1.56,8,2.08,11.56-0.46
							c0.82-0.59,1.84-1.82,0.59-2.47c-0.82-0.43-1.91-0.32-2.8-0.4c1.01,0.09,2.09-0.13,2.88-0.76c0.8-0.63,1.26-1.71,0.99-2.67
							c-0.2-0.7-0.75-1.26-1.33-1.71c-1.78-1.37-4.02-2.05-6.24-2.49c-0.39-0.08-0.78-0.14-1.17-0.21c0.31-0.43,0.6-0.91,0.51-1.42
							c-0.1-0.54-0.59-0.91-1.07-1.21c-3.8-2.32-8.6-2.46-13.13-2.47c-3.19,0-6.53,0.05-9.38,1.48c-1.33,0.66-2.69,1.77-2.84,3.19
							c-3.09,0.24-5.75,2.62-6.8,5.43c-1.05,2.81-0.69,5.95,0.37,8.74s2.36,5.94,3.38,6.53c1.02,0.59,1.07-0.11,2.3,0.48
							c1.23,0.59,1.31,2.34,2.25,2.41s0.91-2.43,1.16-3.59c0.51-2.35,0.49-4.78,1.1-7.11c0.65-2.52,2.06-4.89,4.01-6.82
							c0.31-0.31,0.66-0.62,1.06-0.8c0.1-0.05,1.13,0.2,1.3,0.25c0.58,0.16,1.13,0.52,1.64,0.83
							C393.23,92.46,393.27,92.48,393.31,92.5z"/>
						<g>
							<path style="fill:#E79F8B;" d="M380.44,107.17c-1.22-2.22-3.05-3.72-4.84-2.18c-0.58,0.5-0.88,1.45-0.91,2.4
								c-0.02,0.95,0.2,1.91,0.51,2.8c0.78,2.24,2.16,4.22,3.89,5.05c0.65,0.31,1.41,0.44,1.95-0.07c0.74-0.69,0.88-2.11,0.82-3.28
								C381.8,110.45,381.26,108.65,380.44,107.17z"/>
							<path style="fill:#C72C19;" d="M376.03,107.32c0.14-0.24,0.36-0.4,0.58-0.45c0.53-0.13,1.09,0.23,1.5,0.72
								c0.43,0.51,0.79,1.16,1.11,1.8c0.33,0.66,0.58,1.4,0.72,2.17c0.03,0.15-0.16,0.21-0.19,0.06c-0.3-1.24-0.93-2.39-1.61-3.32
								c-0.1-0.14-0.22-0.28-0.34-0.4c-0.15,0.6-0.16,1.26-0.04,1.9c0.14,0.77,0.43,1.42,0.76,2.08c0.03,0.07-0.02,0.15-0.07,0.09
								c-0.93-1.04-1.3-2.86-0.85-4.27c-0.21-0.17-0.43-0.3-0.67-0.32c-0.38-0.03-0.82,0.28-0.93,0.79
								c-0.02,0.09-0.14,0.06-0.15-0.04C375.86,107.83,375.89,107.55,376.03,107.32z"/>
						</g>
						<g>
							<path d="M415.84,101.86c-0.39-0.88-1.26-1.38-2.13-1.36c-0.95,0.03-1.91,0.09-2.88,0.13c-1.66,0.07-3.37,0.09-5.08,0.26
								c-1.23,0.12-2.21,0.68-2.29,2.09c0,0.02,0,0.04,0,0.05c0,0-0.01,0-0.01-0.01c-0.52-0.27-1.1-0.31-1.66-0.17
								c-0.56,0.15-1.05,0.46-1.49,0.86c0,0-0.01,0.01-0.01,0.01c-0.03-0.27-0.05-0.55-0.09-0.82c-0.21-1.42-1.29-1.94-2.6-2
								c-1.88-0.08-3.8,0-5.74,0.01c-1.16,0.01-2.33,0-3.51,0.03c-1.11,0.02-2.16,0.65-2.57,1.67c-0.23,0.58-0.27,1.22-0.22,1.85
								c-0.02,0-0.05,0.01-0.07,0.01c-0.3,0.04-0.61,0.09-0.91,0.13c-0.55,0.08-1.09,0.16-1.64,0.23c-0.54,0.08-1.08,0.18-1.63,0.28
								c-0.28,0.05-0.59,0.08-0.84,0.2c-0.17,0.08-0.38,0.29-0.25,0.5c0.26,0.4,1.02,0.22,1.43,0.19c0.53-0.04,1.06-0.08,1.59-0.15
								c0.53-0.07,1.06-0.13,1.59-0.2c0.27-0.04,0.54-0.07,0.8-0.11c0.03,0,0.05-0.01,0.08-0.01c0.3,1.88,0.67,3.82,1.31,5.58
								c0.26,0.73,0.6,1.44,1.37,1.74c0.72,0.27,1.57,0.19,2.32,0.18c0.98-0.02,1.96-0.07,2.93-0.17c1.75-0.17,3.56-0.38,5.2-0.89
								c1.57-0.48,1.74-1.88,1.71-3.34c-0.03-1.26-0.05-2.56-0.14-3.84c0.46-0.35,0.95-0.66,1.48-0.82
								c0.19-0.06,0.36-0.09,0.56-0.08c0.1,0,0.1,0,0.2,0.03c0.04,0.01,0.07,0.02,0.11,0.03c0.02,0.01,0.04,0.01,0.06,0.02
								c-0.04-0.02-0.04-0.02,0,0c0.08,0.04,0.15,0.08,0.22,0.13c0.01,0.01,0.02,0.01,0.02,0.02c0.04,0.03,0.07,0.07,0.1,0.11
								c0.01,0.01,0.07,0.1,0.04,0.05c-0.03-0.05,0.04,0.08,0.05,0.09c0.02,0.03,0.04,0.07,0.01,0.01c0.05,0.1,0.06,0.16,0.12,0.24
								c0.02,0.03,0.05,0.04,0.08,0.06c0.03,1.31,0.13,2.63,0.22,3.92c0.1,1.43,0.39,2.77,1.93,3.02c1.56,0.25,3.2,0.2,4.72,0.11
								c0.83-0.05,1.65-0.13,2.46-0.24c0.61-0.09,1.29-0.12,1.84-0.46c0.58-0.36,0.79-1.03,0.93-1.69c0.38-1.76,0.51-3.66,0.59-5.46
								C416.18,103.23,416.13,102.5,415.84,101.86z"/>
							<path style="fill:#FFFFFF;" d="M399.43,109.69c-0.08,0.76-0.44,1.09-1.16,1.26c-2.69,0.64-5.73,1-8.62,0.85
								c-1-0.05-1.25-0.52-1.57-1.38c-0.29-0.76-0.52-1.54-0.7-2.33c-0.29-1.26-0.7-2.55-0.63-3.86c0.09-1.74,0.84-2,2.48-2.01
								c0.79,0,1.56-0.01,2.34-0.01c1.53-0.01,3.05,0,4.54-0.03c0.61-0.01,1.25-0.07,1.85,0c0.71,0.08,1,0.33,1.09,1.06
								c0.19,1.47,0.27,2.96,0.34,4.43C399.43,108.35,399.5,109.03,399.43,109.69z"/>
							<path style="fill:#FFFFFF;" d="M415.03,106.77c-0.08,0.71-0.2,1.42-0.36,2.12c-0.19,0.8-0.35,1.24-1.14,1.4
								c-2.36,0.49-5.02,0.56-7.51,0.3c-0.68-0.07-1.06-0.34-1.2-1.07c-0.12-0.63-0.12-1.31-0.15-1.95
								c-0.07-1.44-0.13-2.9-0.08-4.34c0.02-0.71,0.27-0.97,0.93-1.1c0.56-0.1,1.14-0.09,1.7-0.11c1.33-0.06,2.65-0.15,3.95-0.23
								c0.64-0.04,1.29-0.08,1.92-0.11c1.31-0.08,1.91,0.12,2.12,1.64C415.37,104.47,415.15,105.63,415.03,106.77z"/>
						</g>
					</g>
				</g>
				<g>
					<g>
						<path style="fill:#D44459;" d="M348.75,157.21c0,2.48-2.01,4.49-4.49,4.49c-2.48,0-4.49-2.01-4.49-4.49
							c0-2.48,2.01-4.49,4.49-4.49C346.74,152.72,348.75,154.73,348.75,157.21z"/>
					</g>
				</g>
			</g>
		</g>
		<g>
			<path style="fill:#004DBE;" d="M301.6,357.87c1.23,0,2.08,0.19,2.79,1.29c0.42,0.66,0.61,1.45,0.68,2.2
				c0.06,0.64-0.14,1.5,0.4,1.89c0.84,0.6,2.42,0.61,3.37,0.48c1.7-0.24,2.52-1.1,1.86-2.74c-0.63-1.57-1.9-2.81-3.41-3.56
				c-1.16-0.57-2.45-1.05-3.74-1.1c-0.57-0.02-1.02,0.15-1.45,0.51C301.88,357.03,301.27,357.59,301.6,357.87z"/>
			<path style="fill:#004DBE;" d="M286.44,376.41c-2.73-0.9-7.57,9.17-8.74,10.83c-4.57,6.5-7.73,13.82-9.92,21.43
				c-2.95,10.25-6.02,20.58-4.83,31.37c0.77,6.98,5.19,12.07,12.71,11.28c3.57-0.38,10.49-0.95,13.44-3
				c1.35-0.93,1.44-2.15,0.27-3.81c-1.19-1.69-2.05-1.34-4.08-0.93c-3.84,0.76-7.14,1.79-10.45-1.18c-3.25-2.92-3.6-8.06-3.43-12.19
				c0.26-6.05,1.45-11.94,3.04-17.82c2.01-7.42,5.03-14.12,7.81-21.23c1.23-3.15,3-6.47,3.71-9.77c0.42-1.97-0.03-3.54,0.67-5.38
				C286.3,375.95,285.89,375.91,286.44,376.41z"/>
			<path style="opacity:0.38;fill:#50BCFF;" d="M272.47,448.99c-1.64-1.43-2.83-3.29-3.67-5.28c-1.88-4.49-2.16-9.57-2.01-14.38
				c0.17-5.34,0.96-10.66,1.83-15.92c0.73-4.41,1.61-8.79,2.76-13.11c0.43-1.63,0.92-3.23,1.45-4.82
				c-2.09,4.22-3.75,8.65-5.06,13.18c-2.95,10.25-6.02,20.58-4.83,31.37c0.77,6.98,5.19,12.07,12.71,11.28
				c0.22-0.02,0.46-0.05,0.71-0.07C274.95,450.74,273.63,450.01,272.47,448.99z"/>
			<g>
				<path style="fill:#FFD245;" d="M338.33,448.17c-1.83,1.78-15.58,3.95-28.34,4.59c-2.66,0.13-5.26,0.2-7.71,0.18
					c-6.04-0.03-13.57,0.2-15.67-1.51c-5-4.04-17.26-73.14,3.92-85.29c4.85-2.78,16.36-4.38,20.81-4.18
					c0.54,0.03,1.06,0.06,1.56,0.13c14.01,1.63,21.87,17.35,25.28,40.31C342.78,433.26,341.5,445.11,338.33,448.17z"/>
				<path style="opacity:0.51;fill:#F59711;" d="M309.99,452.76c-2.66,0.13-5.26,0.2-7.71,0.19c-6.04-0.03-13.57,0.19-15.67-1.51
					c-5-4.05-17.26-73.14,3.92-85.29c2.15-1.23,5.6-2.23,9.17-2.95c1.76-0.35,3.56-0.64,5.23-0.84c2.59-0.32,4.9-0.46,6.41-0.4
					c0.54,0.03,1.06,0.06,1.57,0.13c-5.42,0.52-9.78,4.37-11.84,10.95C294.95,392.61,301.14,428.82,309.99,452.76z"/>
				<path style="opacity:0.5;fill:#F55E11;" d="M304.93,362.36c-2,1.11-3.84,2.45-5.39,4.16c-3.41,3.76-5.73,8.63-7.27,13.44
					c-1.55,4.83-2.35,9.88-2.68,14.94c-0.36,5.37,0.22,10.68,0.55,16.04c0.37,6.02,1.45,11.85,2.05,17.84
					c0.04,0.44-1.29,0.8-1.68,0.57c-0.45,0.11-0.93,0.11-0.99-0.12c-0.87-3.4-1.12-7.02-1.55-10.5c-0.41-3.42-0.73-6.86-0.92-10.3
					c-0.58-10.53-0.23-21.49,3.58-31.45c1.84-4.81,4.48-9.81,8.41-13.23c0.22-0.19,0.43-0.37,0.66-0.55
					C301.46,362.85,303.26,362.56,304.93,362.36z"/>
			</g>
			<path style="fill:#004DBE;" d="M329.79,387.39c-0.14-0.82-0.4-1.77-1.05-2.28c-0.74-0.59-1.89-0.55-2.79-0.55
				c-2.8,0.02-5.72,0.17-8.77,0.45c-1.35,0.13-2.81,0.18-4.19,0.53c-0.31,0.08-1.86,0.05-2.36,0.93c-0.24,0.42-0.1,2.2,0,3.73
				c0.11,1.72,0.23,3.2,1.02,3.49c0.34,0,0.64,0.14,0.97,0.16c0.37,0.02,0.79-0.07,1.16-0.11c0.8-0.08,1.59-0.15,2.37-0.23
				c1.5-0.15,2.97-0.31,4.4-0.48c2.75-0.31,5.38-0.65,7.91-0.99c0.59-0.08,1.2-0.27,1.45-0.93c0.16-0.41,0.15-0.87,0.13-1.31
				C330.01,388.98,329.92,388.18,329.79,387.39z"/>
			<path style="fill:#50BCFF;" d="M295.69,365.14c-1.02,0.06-0.16-5.83,0.72-7.02c1.46-1.96,4.04-2.55,6.34-2.79
				c2.66-0.28,8.05,2.47,7.98,5.88c-1.57-2.83-6.54-5.89-9.27-2.56c-1.19,1.45,0.04,3.71-0.74,4.9
				C299.7,365.08,296.71,365.09,295.69,365.14z"/>
			<g>
				<path style="fill:#50BCFF;" d="M345.12,449.44c-1.61,1.21-15.61,3.55-24.88,3.73c-3.33,0.07-6.04-0.14-7.37-0.77
					c-2.92-1.37-4.73-14.4-4.35-27.73c0.28-9.86,3.42-18.49,9.52-21.25c2.76-1.25,5.45-1.85,8-1.86c1.1-0.01,2.17,0.1,3.21,0.3
					c9.1,1.73,15.87,11.02,17.32,23.02C348.56,441.45,347.32,447.8,345.12,449.44z"/>
				<path style="opacity:0.54;fill:#004DBE;" d="M329.25,401.85c-3.66,0.39-6.2,3-6.82,4.13c-3.35,6.1-4.27,13.72-4.48,20.81
					c-0.25,8.17-0.03,18.06,2.28,26.38c-3.33,0.07-6.04-0.14-7.37-0.77c-2.92-1.37-4.73-14.4-4.35-27.73
					c0.28-9.86,3.42-18.49,9.52-21.25c2.76-1.25,5.45-1.85,8-1.86C327.14,401.54,328.21,401.66,329.25,401.85z"/>
			</g>
			<path style="fill:#004DBE;" d="M290.78,428.14c1.66-0.02,2.33,5.26,1.95,5.77c-0.38,0.51-2.48,0.69-3.01,0.32
				C289.19,433.86,289.12,428.16,290.78,428.14z"/>
		</g>
		<g>
			<g>
				<g>
					<polygon points="414.91,453.02 411.17,453.02 423.8,341.24 434.19,341.24 					"/>
					<polygon points="539.28,453.02 543.02,453.02 530.39,341.24 520,341.24 					"/>
					<polygon points="513.18,453.02 516.92,453.02 504.3,341.24 493.9,341.24 					"/>
					<polygon points="439.63,453.02 435.89,453.02 448.52,341.24 458.91,341.24 					"/>
				</g>
				<polygon style="fill:#004DBE;" points="550.87,214.09 531.14,328.56 484.95,328.56 504.68,214.09 				"/>
				<polygon style="opacity:0.45;fill:#004DBE;" points="545.23,214.09 525.51,328.56 484.95,328.56 504.68,214.09 				"/>
				<rect x="422.03" y="328.56" style="fill:#004DBE;" width="109.11" height="15.41"/>
				<rect x="422.03" y="328.56" style="opacity:0.45;fill:#004DBE;" width="39.17" height="15.41"/>
			</g>
			<g>
				<g>
					<defs>
						<path id="XMLID_14_" d="M391.48,382.71c0,0-19.73,3.91-15.13,8.5c4.61,4.59,30.85,8.98,32.12,7.23
							c1.26-1.75,5.16-14.77,5.16-14.77l-18.22-8.23L391.48,382.71z"/>
					</defs>
					<use xlink:href="#XMLID_14_"  style="overflow:visible;fill:#FFFFFF;"/>
					<clipPath id="XMLID_4_">
						<use xlink:href="#XMLID_14_"  style="overflow:visible;"/>
					</clipPath>
					<path style="clip-path:url(#XMLID_4_);fill:#50BCFF;" d="M403.14,395.05c2.29-1.72,4.78-3.43,7.63-3.76
						c0.52-0.06,1.16-0.02,1.42,0.43c0.14,0.23,0.14,0.52,0.11,0.79c-0.15,1.52-0.97,2.9-1.85,4.15c-0.9,1.27-1.91,2.49-3.17,3.41
						c-1.26,0.92-2.8,1.52-4.36,1.44c-1.17-0.06-3.91-1.01-3.83-2.55C399.16,397.58,402.14,395.8,403.14,395.05z"/>
					<path style="clip-path:url(#XMLID_4_);fill:#50BCFF;" d="M384.43,393.02c0.1,1.41-0.03,3.03-1.13,3.92
						c-1.17,0.95-2.92,0.63-4.29-0.02c-1.87-0.9-3.5-2.36-4.42-4.22c-0.91-1.86-1.06-4.13-0.2-6.02c0.32-0.72,0.78-1.36,1.27-1.98
						c0.66-0.83,1.42-1.62,2.37-2.08c0.85-0.4,2.26-0.63,2.99,0.1c0.7,0.71,1.2,2.15,1.6,3.05
						C383.64,388.06,384.25,390.52,384.43,393.02z"/>
					<path style="opacity:0.24;clip-path:url(#XMLID_4_);fill:#50BCFF;" d="M387.63,394.9c3.71,0.89,7.43,1.04,11.09,0.94
						c1.93-0.05,4.17-0.43,4.73-2.34c0.42-1.47-0.39-3.22-1.34-4.62c-1.59-2.33-3.67-4.32-5.99-5.73c-0.97-0.59-1.98-1.08-2.88-1.81
						c-0.89-0.73-1.67-1.77-1.82-2.9c-0.15-1.19,0.45-2.26,1.31-2.87c0.86-0.61,1.93-0.82,3-0.95c4.72-0.58,10,0.41,14.22,3.74
						c4.22,3.33,7,9.31,5.77,14.14c-0.66,2.6-2.35,4.62-4.29,6.19c-4.6,3.72-10.86,5.18-17.1,3.99c-4.29-0.82-8.54-2.89-12.21-5.87
						c-1.72-1.4-5.78-4.04-7-5.97c-1.85-2.92,2.84,0.48,3.79,1.06C381.39,393.42,384.96,394.26,387.63,394.9z"/>
				</g>
				<g>
					<defs>
						<path id="XMLID_13_" d="M417.71,394.14c0,0-16.51,11.49-10.45,13.85c6.06,2.36,31.87-4.14,32.32-6.25
							c0.46-2.11-1.19-15.6-1.19-15.6l-19.99-0.24L417.71,394.14z"/>
					</defs>
					<use xlink:href="#XMLID_13_"  style="overflow:visible;fill:#FFFFFF;"/>
					<clipPath id="XMLID_5_">
						<use xlink:href="#XMLID_13_"  style="overflow:visible;"/>
					</clipPath>
					<path style="clip-path:url(#XMLID_5_);fill:#50BCFF;" d="M433.33,400.78c1.41-2.5,3-5.05,5.48-6.5
						c0.45-0.27,1.05-0.48,1.48-0.17c0.22,0.16,0.33,0.42,0.42,0.68c0.48,1.46,0.27,3.04-0.04,4.54c-0.32,1.53-0.75,3.05-1.54,4.4
						c-0.79,1.35-1.96,2.51-3.42,3.06c-1.1,0.41-3.99,0.65-4.53-0.8C430.7,404.68,432.72,401.86,433.33,400.78z"/>
					<path style="clip-path:url(#XMLID_5_);fill:#50BCFF;" d="M415.38,406.41c0.66,1.25,1.19,2.79,0.54,4.04
						c-0.7,1.34-2.43,1.75-3.94,1.7c-2.07-0.07-4.16-0.76-5.74-2.1c-1.58-1.34-2.63-3.36-2.6-5.44c0.01-0.78,0.17-1.56,0.37-2.32
						c0.27-1.02,0.65-2.05,1.34-2.85c0.61-0.71,1.82-1.49,2.78-1.1c0.92,0.37,1.96,1.49,2.69,2.15
						C412.66,402.18,414.22,404.19,415.38,406.41z"/>
					<path style="opacity:0.24;clip-path:url(#XMLID_5_);fill:#50BCFF;" d="M419.06,406.85c3.75-0.68,7.23-2.02,10.54-3.58
						c1.74-0.82,3.65-2.07,3.39-4.04c-0.2-1.52-1.65-2.79-3.08-3.69c-2.39-1.5-5.09-2.49-7.78-2.84c-1.12-0.15-2.25-0.19-3.36-0.5
						c-1.11-0.31-2.24-0.95-2.82-1.93c-0.62-1.03-0.49-2.25,0.05-3.15c0.54-0.9,1.44-1.53,2.37-2.07c4.09-2.42,9.33-3.64,14.53-2.28
						c5.2,1.36,10.15,5.72,10.96,10.65c0.44,2.65-0.3,5.18-1.45,7.39c-2.73,5.25-7.88,9.1-14.06,10.51
						c-4.26,0.97-8.98,0.78-13.53-0.48c-2.13-0.59-6.91-1.38-8.81-2.66c-2.87-1.94,2.8-0.7,3.9-0.55
						C412.76,408,416.37,407.34,419.06,406.85z"/>
				</g>
				<g>
					<path style="fill:#D44459;" d="M505.87,298.52c0,0,5.72,27.07-10.77,27.5c-16.49,0.43-60.89,2.15-60.89,2.15l-21.03,61.36
						l-25.19-9.14c0,0,18.08-67.68,24.89-73.26c6.81-5.58,50.12-9.02,58.47-8.81C479.71,298.52,505.87,298.52,505.87,298.52z"/>
					<path style="opacity:0.29;fill:#663BFF;" d="M505.87,298.52c0,0,5.72,27.07-10.77,27.5c-16.49,0.43-60.89,2.15-60.89,2.15
						l-21.03,61.36l-25.19-9.14c0,0,18.08-67.68,24.89-73.26c6.81-5.58,50.12-9.02,58.47-8.81
						C479.71,298.52,505.87,298.52,505.87,298.52z"/>
					<g>
						<polygon style="fill:#F59711;" points="387.11,381.69 412.74,390.74 417.05,382.94 388.84,372.56 						"/>
						<polygon style="opacity:0.3;fill:#D44459;" points="387.11,381.69 412.74,390.74 417.05,382.94 388.84,372.56 						"/>
						<path style="opacity:0.27;fill:#F59711;" d="M399.33,383.5c-2.12-1.88-4.05-3.98-5.65-6.32c-0.78-1.14-1.51-2.35-2.11-3.62
							l-2.72-1l-1.74,9.13l19.82,7C404.19,387.28,401.63,385.53,399.33,383.5z"/>
					</g>
				</g>
				<g>
					<g>
						<path style="fill:#D44459;" d="M520.39,299.6c0,0,5.93,28.74-11.18,29.2c-17.11,0.46-63.19,2.28-63.19,2.28l-4.85,61.94
							l-25.88-0.91c0,0,1.53-77.46,8.6-83.39c7.07-5.93,52.01-9.58,60.68-9.35C493.25,299.6,520.39,299.6,520.39,299.6z"/>
						<path style="opacity:0.1;fill:#D44459;" d="M434.37,392.17c-0.89-1.83-1.43-3.82-1.91-5.8c-0.5-2.06-0.97-4.14-1.41-6.22
							c-1.04-4.92-1.6-9.92-2.01-14.93c-0.36-4.36-0.66-8.73-1.05-13.09c-0.37-4.15-0.71-8.31-0.76-12.48
							c-0.1-8.1,0.91-16.43,5.61-23.24c3.86-5.59,8.91-10.19,14.59-13.86c-10.87,1.57-20.56,3.66-23.54,6.16
							c-7.07,5.93-8.6,83.39-8.6,83.39l19.42,0.68C434.6,392.58,434.47,392.38,434.37,392.17z"/>
						<path style="opacity:0.1;fill:#D44459;" d="M520.39,299.6c0,0-2.45,0-6.1-0.01c-0.01,0.41-0.03,0.83-0.06,1.24
							c-0.11,1.79-0.35,3.57-0.72,5.33c-0.34,1.64-0.74,3.35-1.5,4.85c-1.54,3.06-4.43,5.28-7.26,7.08c-3,1.91-6.19,3.48-9.52,4.72
							c-7.11,2.65-14.67,3.96-22.19,4.82c-5.04,0.57-10.1,0.81-15.14,1.25c-2.47,0.21-4.94,0.47-7.38,0.91
							c-0.93,0.17-1.86,0.36-2.75,0.66c-0.36,0.12-0.92,0.3-1.21,0.62c5.15-0.2,46.62-1.83,62.66-2.26
							C526.32,328.34,520.39,299.6,520.39,299.6z"/>
						<g>
							<g>
								<path style="fill:#F59711;" d="M434.65,382.72c-0.01,0-0.01,0-0.02,0c-0.14-0.01-0.24-0.13-0.23-0.27l0.11-1.49
									c0.01-0.14,0.11-0.26,0.27-0.23c0.14,0.01,0.24,0.13,0.23,0.27l-0.11,1.49C434.89,382.62,434.78,382.72,434.65,382.72z"/>
							</g>
							<g>
								<path style="fill:#F59711;" d="M434.98,378.18c-0.01,0-0.01,0-0.02,0c-0.14-0.01-0.24-0.13-0.23-0.27l0.23-3.05
									c0.01-0.14,0.13-0.26,0.27-0.23c0.14,0.01,0.24,0.13,0.23,0.27l-0.23,3.05C435.22,378.08,435.11,378.18,434.98,378.18z
									 M435.44,372.08c-0.01,0-0.01,0-0.02,0c-0.14-0.01-0.24-0.13-0.23-0.27l0.24-3.05c0.01-0.14,0.11-0.25,0.27-0.23
									c0.14,0.01,0.24,0.13,0.23,0.27l-0.24,3.05C435.68,371.98,435.57,372.08,435.44,372.08z M435.92,365.98
									c-0.01,0-0.01,0-0.02,0c-0.14-0.01-0.24-0.13-0.23-0.27c0.08-0.99,0.16-2.01,0.24-3.05c0.01-0.14,0.14-0.25,0.27-0.23
									c0.14,0.01,0.24,0.13,0.23,0.27c-0.08,1.04-0.16,2.06-0.24,3.05C436.16,365.88,436.05,365.98,435.92,365.98z M436.41,359.88
									c-0.01,0-0.01,0-0.02,0c-0.14-0.01-0.24-0.13-0.23-0.27l0.25-3.05c0.01-0.14,0.13-0.25,0.27-0.23
									c0.14,0.01,0.24,0.13,0.23,0.27l-0.25,3.05C436.65,359.78,436.54,359.88,436.41,359.88z M436.92,353.78
									c-0.01,0-0.01,0-0.02,0c-0.14-0.01-0.24-0.13-0.23-0.27l0.26-3.05c0.01-0.14,0.12-0.24,0.27-0.23
									c0.14,0.01,0.24,0.13,0.23,0.27l-0.26,3.05C437.15,353.68,437.04,353.78,436.92,353.78z M437.44,347.69
									c-0.01,0-0.01,0-0.02,0c-0.14-0.01-0.24-0.13-0.23-0.27l0.27-3.05c0.01-0.14,0.11-0.25,0.27-0.23
									c0.14,0.01,0.24,0.13,0.23,0.27l-0.27,3.05C437.68,347.59,437.57,347.69,437.44,347.69z M437.99,341.59
									c-0.01,0-0.02,0-0.02,0c-0.14-0.01-0.24-0.13-0.23-0.27c0.1-1.03,0.19-2.05,0.29-3.05c0.01-0.14,0.13-0.25,0.27-0.23
									c0.14,0.01,0.24,0.13,0.23,0.27c-0.09,1-0.19,2.01-0.29,3.05C438.23,341.5,438.12,341.59,437.99,341.59z M438.57,335.5
									c-0.01,0-0.02,0-0.02,0c-0.14-0.01-0.24-0.14-0.22-0.27c0.1-1.05,0.21-2.06,0.31-3.05c0.01-0.14,0.14-0.23,0.28-0.22
									c0.14,0.01,0.24,0.14,0.22,0.28c-0.1,0.98-0.21,2-0.31,3.04C438.81,335.41,438.7,335.5,438.57,335.5z M439.21,329.42
									c-0.01,0-0.02,0-0.03,0c-0.14-0.01-0.24-0.14-0.22-0.28c0.12-1.08,0.24-2.1,0.36-3.04c0.02-0.14,0.15-0.23,0.28-0.22
									c0.14,0.02,0.23,0.14,0.22,0.28c-0.12,0.94-0.24,1.96-0.36,3.04C439.44,329.32,439.34,329.42,439.21,329.42z M439.97,323.34
									c-0.01,0-0.02,0-0.04,0c-0.14-0.02-0.23-0.15-0.21-0.28c0.19-1.32,0.37-2.35,0.54-3.04c0.03-0.13,0.17-0.22,0.3-0.19
									c0.13,0.03,0.22,0.17,0.19,0.3c-0.16,0.68-0.34,1.69-0.53,3C440.2,323.25,440.09,323.34,439.97,323.34z M442.78,318.89
									c-0.12,0-0.23-0.09-0.25-0.22c-0.02-0.14,0.08-0.26,0.22-0.28c0.78-0.1,1.78-0.2,3.06-0.31c0.14-0.02,0.26,0.09,0.27,0.23
									c0.01,0.14-0.09,0.26-0.23,0.27c-1.27,0.11-2.27,0.21-3.04,0.31C442.8,318.89,442.79,318.89,442.78,318.89z M448.88,318.33
									c-0.13,0-0.24-0.1-0.25-0.23c-0.01-0.14,0.09-0.26,0.23-0.27c0.96-0.07,1.98-0.14,3.06-0.22c0.15-0.02,0.26,0.09,0.27,0.23
									c0.01,0.14-0.09,0.26-0.23,0.27c-1.08,0.07-2.1,0.15-3.05,0.22C448.9,318.33,448.89,318.33,448.88,318.33z M455,317.91
									c-0.13,0-0.24-0.1-0.25-0.23c-0.01-0.14,0.1-0.26,0.23-0.26c0.99-0.06,2.01-0.13,3.06-0.19c0.16,0,0.26,0.1,0.27,0.23
									c0.01,0.14-0.1,0.26-0.23,0.27c-1.05,0.06-2.07,0.13-3.06,0.19C455.01,317.91,455,317.91,455,317.91z M461.11,317.54
									c-0.13,0-0.24-0.1-0.25-0.24c-0.01-0.14,0.1-0.26,0.24-0.26l3.06-0.18c0.13,0,0.26,0.1,0.26,0.24
									c0.01,0.14-0.1,0.26-0.24,0.26l-3.06,0.18C461.12,317.54,461.11,317.54,461.11,317.54z M467.22,317.18
									c-0.13,0-0.24-0.1-0.25-0.24c-0.01-0.14,0.1-0.26,0.24-0.26l3.05-0.18c0.14-0.01,0.26,0.1,0.26,0.24
									c0.01,0.14-0.1,0.26-0.24,0.26l-3.05,0.18C467.23,317.18,467.22,317.18,467.22,317.18z M473.33,316.83
									c-0.13,0-0.24-0.1-0.25-0.24c-0.01-0.14,0.1-0.26,0.24-0.26l3.06-0.18c0.14-0.01,0.26,0.1,0.26,0.24s-0.1,0.26-0.24,0.26
									l-3.06,0.18C473.34,316.83,473.33,316.83,473.33,316.83z M479.44,316.47c-0.13,0-0.24-0.1-0.25-0.24
									c-0.01-0.14,0.1-0.26,0.24-0.26c1.04-0.06,2.06-0.13,3.05-0.19c0.14-0.02,0.26,0.1,0.27,0.23c0.01,0.14-0.1,0.26-0.23,0.26
									c-1,0.06-2.02,0.13-3.06,0.19C479.45,316.47,479.44,316.47,479.44,316.47z M485.55,316.09c-0.13,0-0.24-0.1-0.25-0.23
									c-0.01-0.14,0.09-0.26,0.23-0.27c1.06-0.07,2.08-0.14,3.05-0.21c0.14-0.02,0.26,0.09,0.27,0.23
									c0.01,0.14-0.09,0.26-0.23,0.27c-0.98,0.07-2,0.14-3.06,0.21C485.56,316.09,485.56,316.09,485.55,316.09z M491.66,315.66
									c-0.13,0-0.24-0.1-0.25-0.23c-0.01-0.14,0.09-0.26,0.23-0.27c1.11-0.09,2.13-0.17,3.05-0.25c0.15-0.02,0.26,0.09,0.27,0.23
									c0.01,0.14-0.09,0.26-0.23,0.27c-0.92,0.08-1.95,0.17-3.06,0.25C491.68,315.66,491.67,315.66,491.66,315.66z M497.77,315.08
									c-0.12,0-0.23-0.09-0.25-0.22c-0.02-0.14,0.08-0.26,0.22-0.28c1.61-0.2,2.04-0.35,2.15-0.42c0.2-0.12,0.41-0.26,0.63-0.4
									c0.11-0.08,0.27-0.05,0.35,0.07c0.08,0.11,0.05,0.27-0.07,0.35c-0.22,0.15-0.44,0.29-0.65,0.42
									c-0.18,0.11-0.62,0.27-2.35,0.49C497.79,315.08,497.77,315.08,497.77,315.08z M503.02,312.29c-0.07,0-0.13-0.03-0.18-0.08
									c-0.1-0.1-0.09-0.26,0.01-0.35c0.75-0.73,1.41-1.49,1.95-2.28c0.08-0.12,0.24-0.14,0.35-0.06c0.11,0.08,0.14,0.24,0.06,0.35
									c-0.57,0.81-1.24,1.6-2.02,2.35C503.14,312.27,503.08,312.29,503.02,312.29z"/>
							</g>
							<g>
								<path style="fill:#F59711;" d="M506.31,307.57c-0.03,0-0.06-0.01-0.09-0.02c-0.13-0.05-0.19-0.2-0.14-0.32
									c0.18-0.47,0.32-0.94,0.42-1.4c0.03-0.13,0.17-0.22,0.3-0.19c0.14,0.03,0.22,0.16,0.19,0.3c-0.1,0.49-0.25,0.99-0.44,1.48
									C506.51,307.51,506.41,307.57,506.31,307.57z"/>
							</g>
						</g>
					</g>
					<g>
						<polygon style="fill:#F59711;" points="414.77,392.9 441.93,393.71 443.66,384.96 413.64,383.67 						"/>
						<path style="opacity:0.27;fill:#F59711;" d="M426.95,390.9c-2.6-1.14-5.06-2.56-7.31-4.3c-1.09-0.85-2.16-1.78-3.11-2.81
							l-2.9-0.12l1.13,9.23l21.02,0.63C432.74,393.02,429.76,392.13,426.95,390.9z"/>
					</g>
				</g>
				<g>
					<path style="fill:#FFA18B;" d="M463.13,242.39c0,0-17.62,19.93-20.21,20.76c-2.59,0.83-29.93,5.48-29.93,5.48l-1.46,8.75
						c0,0,33.15,3.24,36.95,0.98c3.79-2.27,26.22-21.21,26.22-21.21L463.13,242.39z"/>
				</g>
				<path style="fill:#50BCFF;" d="M450.9,252.61c0,0,14.62-22.99,21.02-24.65c6.4-1.66,18.59,3.25,11.76,16.01
					c-6.83,12.76-15.53,21.87-15.53,21.87S455.02,264.24,450.9,252.61z"/>
				<path style="opacity:0.38;fill:#50BCFF;" d="M474.37,227.65c-1.76,2.33-3.26,4.85-4.65,7.41c-1.72,3.18-3.25,6.46-4.73,9.76
					c-1.5,3.35-2.89,6.76-4.05,10.24c-0.8,2.41-1.48,4.86-2.01,7.34c4.61,2.88,9.23,3.44,9.23,3.44s8.71-9.11,15.53-21.87
					C489.71,232.7,480.92,227.56,474.37,227.65z"/>
				<g>
					<defs>
						<path id="SVGID_1_" d="M522.28,267.7c-1.82-26.76-3.05-33.41-6.17-37.33c-3.1-3.88-14.54-5.58-22.6-5.9
							c-8.06-0.32-19.82,1.96-23.17,4.26c-3.36,2.3-5.36,12.05-4.85,24.18c0.45,10.51,2.66,21.67,2.57,26.54
							c-0.16,9.03-1.94,12.51-3.23,19.23c10.07,7.01,49.06,10.77,57.42,9.09C523.08,298.63,523.16,280.65,522.28,267.7z"/>
					</defs>
					<use xlink:href="#SVGID_1_"  style="overflow:visible;fill:#FFFFFF;"/>
					<clipPath id="SVGID_2_">
						<use xlink:href="#SVGID_1_"  style="overflow:visible;"/>
					</clipPath>
					<path style="clip-path:url(#SVGID_2_);fill:#50BCFF;" d="M479.48,230.69c-0.25,1.21,0.24,2.51,1.08,3.43
						c0.84,0.92,2.08,1.36,3.26,1.69c2.29,0.63,7.48-0.05,9.81-2.66c3.88,9.22,8.36,19.03,17.42,23.98c2.51,1.37,5.21,2.53,8.02,2.9
						c2.84,0.37,5.82-0.12,8.02-1.8c2.59-1.98,3.76-5.38,3.76-8.72c0-3.33-1.04-6.61-2.22-9.77c-2.03-5.41-4.62-10.77-8.85-14.69
						c-6.36-5.91-15.37-7.64-23.69-7.92c-7-0.24-13.98,0.38-20.38,2.64c-6.32,2.23-12.11,6.17-15.89,11.73
						c-4.89,7.2-6.1,17.09-3.11,25.67c0.47,0.06,1.25,0.16,1.65-0.1c4.47-2.81,6.74-8.22,9.53-12.91
						C470.9,239.11,474.96,234.41,479.48,230.69z"/>
					<path style="opacity:0.24;clip-path:url(#SVGID_2_);fill:#50BCFF;" d="M507.25,290.94c-1.17,3.64-2.51,7.41-5.25,10.07
						c-4.6,4.47-11.88,4.72-17.22,8.25c1.39,3.89,5.99,5.42,10.02,6.34c7.95,1.81,16.44,3.2,24.13,0.49
						c2.6-0.91,5.13-2.37,6.63-4.68c1.18-1.82,1.63-4.01,1.97-6.16c1.7-10.76,1.21-21.73,0.59-32.6
						c-0.65-11.42-1.44-22.84-2.41-34.24c-0.28-3.25-0.62-6.64-2.44-9.35c-1.09-1.63-2.75-2.97-4.6-3.64
						c-2.88-1.06-2.37,1.08-2.2,3.3c0.38,5.11,0.42,10.24,0.16,15.35c-0.52,10.14-2.2,20.19-4.6,30.05
						C510.66,279.79,509.04,285.39,507.25,290.94z"/>
					<path style="opacity:0.24;clip-path:url(#SVGID_2_);fill:#50BCFF;" d="M487.15,305.88c-4.25-1.53-8.32-2.94-12.29-5.05
						c-1.86-0.99-3.77-2.14-4.64-3.9c2.21-0.28,4.46-0.03,6.67,0.21c3.59,0.39,7.17,0.79,10.76,1.18
						c-3.78-1.27-7.31-3.36-10.74-5.31c-1.73-0.98-6.56-2.98-5.16-5.74c0.47-0.94,1.54-1.37,2.37-1.93c1.06-0.73,1.2-1.75,0.58-2.87
						c-0.82-1.47-2.41-2.41-3.77-3.29c-1.52-0.99-2.89-2.07-4.19-3.34c-0.72-0.71-1.43-1.47-2.07-2.28
						c-0.28,2.21,0.21,4.52,0.11,6.77c-0.1,2.26-0.81,4.46-1.32,6.67c-1.16,4.99-1.33,10.16-0.5,15.18
						c0.15,0.92,0.35,1.86,0.93,2.63c0.66,0.88,1.75,1.44,2.83,1.9c5.58,2.39,11.9,3.08,18.1,3.59
						C488.53,310.59,491.32,307.38,487.15,305.88z"/>
				</g>
				<g>
					<g>
						<path style="fill:#FFC9B0;" d="M423.21,265.44c1.03-2.57,3.14-4.79,5.6-6.48c0.75-0.52,1.56-1,2.45-1.26
							c1.79-0.54,3.88-0.28,5.57,0.11c2.16,0.5,4.15,1.39,6.16,2.16c1.88,0.72,3.76,1.44,5.64,2.17c0.43,0.17,0.96,0.51,1.43,0.57
							c3.84,0.5,27.76,3.58,32.06,3.72c4.4-4.66,11.08-17.1,11.08-17.1s11.91,1.45,15.49,8.32c0.04-0.19-14.47,20.55-16.63,21.69
							c-2.16,1.14-11.95-0.49-23.78-3.55c-8.95-2.32-16.7-4.73-19.93-5.77c-0.47,0.13-1,0.22-1.59,0.26
							c-6.26,0.44-5.31-3.12-5.61-3.33l0.16-0.21c-1.21,0.43-2.43,0.83-3.66,1.19c-0.5,0.14-1.16,0.23-1.37-0.16
							c-0.17-0.31,0.08-0.69,0.32-0.99c0.8-1.01,1.7-1.96,2.66-2.85c-2.02,1.35-4.05,2.69-6.07,4.04c-0.4,0.27-0.96,0.54-1.32,0.3
							c-0.36-0.24-0.21-0.78,0-1.18c1.01-1.93,2.53-3.69,4.4-5.06c-1.36,1.03-2.73,2.05-4.09,3.08c-0.93,0.7-1.87,1.41-2.87,2.04
							c-0.9,0.57-2.02,1.09-2.97,0.77c-0.12-0.04-0.25-0.11-0.29-0.22c-0.03-0.11,0.02-0.23,0.08-0.33
							c1.17-2.27,3.24-4.11,5.27-5.88c-1.8,1.38-3.61,2.77-5.41,4.15c-0.7,0.53-1.56,1.11-2.39,0.91c-0.18-0.04-0.35-0.13-0.44-0.27
							C423.01,266.03,423.1,265.71,423.21,265.44z"/>
						<path style="fill:#FFC9B0;" d="M489.41,265.92c-1.43-1.65-2.33-3.39-2.98-5.21c3.48-5.26,6.77-11.39,6.77-11.39
							s11.91,1.45,15.49,8.32c0.03-0.12-6.06,8.55-10.93,14.97C494.4,271.46,491.35,268.17,489.41,265.92z"/>
						<path style="opacity:0.3;fill:#FFC9B0;" d="M441.05,265.77c1.47,0.18,2.74,0.78,4.15,1.12c1.36,0.33,2.78,0.45,4.16,0.69
							c3.72,0.66,7.24,1.96,10.75,3.11c6.61,2.17,13.36,4.02,20.27,5.5c4.19,0.9,8.62,2.09,13.06,1.82c-0.62,0.7-1.1,1.17-1.38,1.31
							c-2.16,1.14-11.95-0.49-23.78-3.55c-8.95-2.32-16.7-4.73-19.93-5.77c-0.47,0.13-1,0.22-1.59,0.26
							c-6.26,0.44-5.31-3.12-5.61-3.33l0.16-0.21c-1.21,0.43-2.43,0.83-3.66,1.19c-0.32,0.09-0.7,0.16-0.99,0.1
							C438.08,267.14,439.55,266.49,441.05,265.77z"/>
					</g>
					<g>
						<g>
							<path style="fill:#50BCFF;" d="M484.79,258.88c1.11-1.54,10.01-15.47,13.07-20.65c1.61-2.74,3.42-5.5,6.1-7.55
								c1.9-1.46,7.27-4.76,11.13-0.28c0.2,0.24,0.4,0.49,0.58,0.74c0.2,0.29,0.39,0.58,0.56,0.88c2.56,4.44,1.81,10.53,0.29,15.67
								c-0.3,1.01-0.66,1.99-1.08,2.96c-2.68,6.23-7.18,13.99-11.62,19.65C497.89,269.86,487.76,264.5,484.79,258.88z"/>
						</g>
					</g>
					<g>
						<g>
							<path style="opacity:0.38;fill:#50BCFF;" d="M515.81,248.02c-1.14,1.53-2.32,3.02-3.55,4.48c-2.07,2.45-4.32,4.76-6.59,7.03
								c-2.23,2.23-4.51,4.39-6.91,6.44c-0.84,0.72-1.7,1.42-2.57,2.1c2.73,1.25,5.46,2.07,7.63,2.23
								c4.45-5.66,8.95-13.42,11.62-19.65c0.42-0.97,0.79-1.95,1.08-2.96c0.1-0.34,0.2-0.69,0.29-1.04
								C516.48,247.1,516.15,247.56,515.81,248.02z"/>
						</g>
					</g>
				</g>
				<g>
					<defs>
						<path id="XMLID_3_" d="M480.85,217l13.73-1.99l1.5,11.32c0.11,0.82-0.13,1.63-0.66,2.28c-1.18,1.43-3.67,3.75-7.77,4.23
							c-4.21,0.49-4.74-1.44-4.68-2.64c0.06-1.11-0.09-2.23-0.29-3.34L480.85,217z"/>
					</defs>
					<use xlink:href="#XMLID_3_"  style="overflow:visible;fill:#FFC9B0;"/>
					<clipPath id="XMLID_6_">
						<use xlink:href="#XMLID_3_"  style="overflow:visible;"/>
					</clipPath>
					<path style="clip-path:url(#XMLID_6_);fill:#FFC9B0;" d="M478.39,224.76c11.33,0.43,16.19-10.46,15.86-10.92
						c-0.4-0.57-1.49-0.54-2.36-0.39c-6.19,1.05-14.82,3.87-15.8,6.17C475.1,221.93,476.79,224.7,478.39,224.76z"/>
				</g>
				<g>
					<path d="M504.56,204.46c-0.73-0.03-1.59-0.08-2.14-0.6c-0.52-0.49-0.63-1.29-0.93-1.89c-1-1.97-3.25-3.02-5.28-1.63
						c-4.97,3.4-2.63,9.16-2.18,10.07c0.64,1.3,2,2.53,3.43,2.96c0.48,0.15,1.36,0.32,1.5-0.35c0.08-0.4-0.38-0.78-0.44-1.13
						c0.96,0.37,1.75,0.81,2.84,0.85c1.23,0.04,3.28-0.31,3.9-1.49c0.65-1.24-0.6-1.77-1.53-2.28c1.59,0.06,3.15-2.07,3.71-3.28
						C508.17,204.12,505.54,204.5,504.56,204.46z"/>
					<g>
						<path d="M459.99,179.12c-0.5,0.79-0.73,1.7-0.89,2.61c-0.42,2.3-0.47,4.67-0.14,6.98c0.14,1.01,0.37,2.04,0.92,2.91
							c0.77,1.22,2.08,2.01,3.41,2.64c0.82,0.39,1.78,0.74,2.63,0.41c0.57-0.22,0.97-0.71,1.26-1.24c0.98-1.82,0.7-4,0.37-6.03
							c-0.31-1.94-0.64-3.91-1.45-5.71c-0.6-1.34-1.5-2.62-2.72-3.52C462.03,177.19,460.84,177.77,459.99,179.12z"/>
					</g>
					<g>
						<path style="fill:#FFC9B0;" d="M481.46,221.31c-8.21,1.98-12.65,0-15.06-2.77c-0.18-0.21-0.35-0.42-0.51-0.64
							c-2.26-3.1-4.1-10.02-4.64-12.67c-0.04-0.23-0.08-0.45-0.13-0.69c0-0.03,0-0.06-0.01-0.08c-0.68-3.78-0.92-7.92-0.78-12.23
							c0.66-18.3,16.03-26.19,29.09-20.17c4.93,2.28,9.16,6.55,11.65,11.69c0.19,0.39,0.38,0.79,0.55,1.21
							C509.43,203.33,497.05,217.57,481.46,221.31z"/>
						<g style="opacity:0.21;">
							<g>
								<path style="fill:#D44459;" d="M467.97,217.51c-0.38,0.49-0.93,0.82-1.56,1.02c-0.18-0.21-0.35-0.42-0.51-0.64
									c-2.26-3.1-4.1-10.02-4.64-12.67c-0.04-0.23-0.08-0.45-0.13-0.69c1.05,0.12,2.02,0.77,2.8,1.48
									c2.57,2.37,4.21,5.54,4.54,8.81C468.57,215.76,468.55,216.75,467.97,217.51z"/>
								<path style="fill:#D44459;" d="M492.26,214.48c0.19-0.15,0.38-0.29,0.55-0.45c2.92-2.52,6.22-7.71,3.26-11.61
									c-1.46-1.92-4.2-2.44-6.35-1.62c-2.16,0.82-3.78,2.74-4.83,4.87c-0.78,1.59-1.3,3.38-1.17,5.19c0.14,1.81,1.01,3.64,2.5,4.6
									C488.19,216.74,490.54,215.78,492.26,214.48z"/>
							</g>
						</g>
					</g>
					<g>
						<path d="M509.54,189c-0.24,1.55-0.59,3.08-0.99,4.6c-0.16,0.57-0.82,4.12-1.32,4.28c-0.22,0.07-0.43,0.11-0.65,0.1
							c-0.47-0.03-0.89-0.3-1.24-0.64c-0.69-0.66-1.34-1.52-2.46-1.35c-1.61,0.21-2.82,3.85-4.46,3.91c-2,0.07-2.79-1.85-3.37-3.73
							c0.1-1.96-0.09-3,0.46-7.14c0.03-0.12,0.03-0.25,0.04-0.37c-0.1-0.18-0.2-0.33-0.29-0.44c-1.24-1.73-3.31-2.36-5.14-3.29
							c-1.21-0.61-2.17-1.57-3.18-2.44c-1.17-1.01-2.19-2.17-2.82-3.58c-0.6-1.35-0.95-2.89-1.37-4.3c-2.42,2.85-5.6,5.4-9.08,6.99
							c-2.4,1.12-5.09,2.2-7.67,2.83c-2.03,0.5-5.18,1.02-6.92-0.44c-1.6-1.34-1.52-3.34-1.14-5.22c0.59-2.83,2.56-4.74,4.76-6.55
							c6-4.93,13.68-8.23,21.57-8.62c1.73-0.08,3.47-0.03,5.19,0.19c2.27,0.28,4.5,0.83,6.62,1.67c0.73,0.28,1.44,0.59,2.14,0.95
							c0.55,0.29,1.09,0.58,1.63,0.91c1.8,1.08,3.5,2.47,4.95,4.06c2.17,2.33,3.83,5.14,4.55,8.15c0.01,0.04,0.01,0.08,0.03,0.12
							C510.1,182.73,510.02,185.92,509.54,189z"/>
						<path style="fill:#004DBE;" d="M504.82,171.39c-1.32,0.5-3.45-0.93-4.56-1.13c-3.09-0.55,0.24,3.85-0.07,4.96
							c-0.35,1.22-1.93,1.27-3.01,1.15c-1.78-0.18-2.69-1.38-4.2-2.06c-1.12-0.5-2.24,0.03-2.56,1.24
							c-0.23,0.86,0.85,3.05,0.22,3.65c-0.95,0.87-3.48-0.54-4.16-1.15c-1.27-1.13-2.24-3.3-1.54-4.96c0.19-0.52,1.6-0.68,2.17-0.99
							c1.18-0.61,2.26-1.38,3.42-2c1.65-0.87,3.24-2.06,5.01-2.76c0.79-0.32,1.73-0.65,2.7-0.91c0.55,0.29,1.09,0.58,1.63,0.91
							C501.67,168.41,503.36,169.8,504.82,171.39z"/>
						<path style="fill:#004DBE;" d="M496.1,165.47c-0.85,0.41-1.7,0.83-2.6,1.16c-1.97,0.73-3.84,1.55-5.67,2.56
							c-1.58,0.87-3.21,1.74-4.59,2.9c-0.82,0.69-1.81,2.32-2.5,2.32c-1.64,2.4-5.06,2.29-7.44,1.23c-1.4-0.62-1.76-1.63-0.17-2.44
							c1.73-0.88,3.86-0.86,5.65-1.67c1.41-0.65,2.69-1.78,2.14-3.38c-0.35-0.99-1.5-2.5,0.24-2.87c1.32-0.28,2.86,1.01,4.17,1.24
							c1.24,0.22,1.8-0.03,2.52-0.99c0.56-0.75,0.88-1.31,1.63-1.71C491.75,164.07,493.98,164.62,496.1,165.47z"/>
					</g>
					<g>
						<path d="M467.6,202.2c0.21,1.31-0.28,2.47-1.11,2.6c-0.82,0.12-1.67-0.84-1.88-2.15c-0.21-1.31,0.28-2.47,1.11-2.6
							C466.55,199.92,467.39,200.88,467.6,202.2z"/>
						<path d="M484.73,199.97c0.22,1.36-0.37,2.58-1.33,2.72c-0.95,0.14-1.91-0.84-2.13-2.2c-0.22-1.36,0.37-2.58,1.33-2.72
							C483.56,197.63,484.51,198.61,484.73,199.97z"/>
						<path style="fill:#C72C19;" d="M471.9,210.55c1.89-0.14,3.79-0.58,5.5-1.37c1.71-0.8,3.16-1.92,4.55-3.15
							c0.12-0.1,0.33,0.03,0.23,0.17c-2.16,3.1-6.47,4.87-10.29,4.73C471.65,210.91,471.65,210.57,471.9,210.55z"/>
						<path style="fill:#C72C19;" d="M472.02,207.38c-1.1-0.25-2.22-1.08-2.19-2.27c0.01-0.53,0.25-1.07,0.72-1.36
							c0.36-0.23,0.81-0.3,1.18-0.52c0.94-0.55,0.48-1.53,0.22-2.34c-0.38-1.17-0.67-2.54-1.36-3.58c-0.1-0.14-0.39-0.1-0.37,0.1
							c0.07,0.65,0.32,1.29,0.54,1.9c0.24,0.67,0.47,1.34,0.69,2.01c0.11,0.34,0.42,0.88,0.21,1.22c-0.12,0.2-0.42,0.3-0.62,0.39
							c-0.45,0.19-0.86,0.34-1.19,0.71c-0.59,0.67-0.69,1.67-0.31,2.45c0.44,0.9,1.45,1.4,2.44,1.52
							C472.13,207.62,472.15,207.41,472.02,207.38z"/>
						<path d="M467.24,191.54c0.3,0.74-0.79,0.65-2.42,1.11c-1.63,0.46-1.73,1.88-2.22,1.82c-0.49-0.06-0.42-2.55,1.68-3.41
							C465.89,190.41,467.05,191.05,467.24,191.54z"/>
						<path d="M477.41,189.76c-0.15,0.67,1.86,0.39,4.09,0.24c2.23-0.15,3.83,1.44,4.08,0.86c0.25-0.58-1.34-2.46-4.04-2.52
							C478.84,188.28,477.51,189.32,477.41,189.76z"/>
					</g>
					<g>
						<path style="fill:#FFC9B0;" d="M498.87,197.37c1.18-3.02,3.63-5.44,7.14-4.35c1.14,0.35,2,1.33,2.39,2.42
							c0.39,1.09,0.38,2.28,0.21,3.42c-0.44,2.88-1.98,5.68-4.5,7.29c-0.96,0.61-2.16,1.04-3.24,0.67
							c-1.48-0.52-2.24-2.09-2.58-3.47C497.87,201.66,498.09,199.38,498.87,197.37z"/>
						<path style="opacity:0.3;fill:#FFC9B0;" d="M502.8,194.58c-0.86,0.86-1.33,2.05-2.15,2.89c-0.58,0.59-0.95,1.46-1.94,0.46
							c-0.01-0.01-0.02-0.03-0.03-0.04c0.06-0.18,0.12-0.36,0.19-0.53c1.1-2.83,3.32-5.13,6.49-4.52
							C504.41,193.21,503.54,193.83,502.8,194.58z"/>
						<path style="fill:#C72C19;" d="M506.19,195.87c-0.33-0.23-0.73-0.32-1.13-0.3c-0.92,0.06-1.71,0.68-2.2,1.4
							c-0.51,0.75-0.86,1.64-1.14,2.49c-0.29,0.89-0.43,1.83-0.37,2.77c0.01,0.19,0.34,0.18,0.34-0.01c0.02-1.54,0.64-3.1,1.4-4.44
							c0.12-0.2,0.25-0.4,0.4-0.59c0.47,0.64,0.73,1.4,0.78,2.18c0.06,0.94-0.17,1.8-0.47,2.68c-0.03,0.09,0.09,0.16,0.15,0.08
							c1.13-1.55,1.06-3.79-0.21-5.24c0.27-0.28,0.59-0.51,0.98-0.62c0.61-0.18,1.46,0.01,1.82,0.55c0.07,0.1,0.26,0.02,0.23-0.1
							C506.66,196.38,506.5,196.08,506.19,195.87z"/>
					</g>
				</g>
			</g>
		</g>
		<g>
			<g>
				<g>
					<polygon points="225.79,453.02 221.05,453.02 237.07,291.48 250.27,291.48 					"/>
					<polygon points="491.26,453.02 496,453.02 479.98,291.48 466.78,291.48 					"/>
				</g>
				<g>
					<rect x="229.58" y="277.45" style="fill:#004DBE;" width="257.9" height="17.66"/>
					<rect x="229.58" y="277.45" style="opacity:0.45;fill:#004DBE;" width="257.9" height="6.91"/>
					<rect x="223.96" y="272.36" style="fill:#004DBE;" width="269.12" height="8.73"/>
				</g>
			</g>
			<g>
				<g>
					<path style="fill:#94D5FF;" d="M312.06,215.01h70.19c1.38,0,2.61,0.85,3.09,2.14l18.86,50.35h-75.62l-18.56-49.55
						C309.48,216.53,310.54,215.01,312.06,215.01z"/>
					
						<rect x="326.02" y="267.5" transform="matrix(-1 -1.224647e-16 1.224647e-16 -1 763.7198 540.2434)" style="fill:#94D5FF;" width="111.69" height="5.24"/>
					<path style="fill:#50BCFF;" d="M424.4,272.03c2.84-0.56,8.33-1.95,11.45-4.53h1.85v5.24h-17.38
						C421.7,272.53,423.07,272.3,424.4,272.03z"/>
					
						<rect x="326.02" y="267.5" transform="matrix(-1 -1.224647e-16 1.224647e-16 -1 727.6539 540.2434)" style="fill:#50BCFF;" width="75.62" height="5.24"/>
					<g>
						<rect x="371.82" y="269.1" style="opacity:0.8;fill:#50BCFF;" width="21.75" height="2.25"/>
						<rect x="328.47" y="269.1" style="opacity:0.8;fill:#50BCFF;" width="5.03" height="2.25"/>
						<rect x="335.15" y="269.1" style="opacity:0.8;fill:#50BCFF;" width="5.03" height="2.25"/>
					</g>
					<path style="fill:#50BCFF;" d="M309.49,215.01h70.19c1.38,0,2.61,0.85,3.09,2.14l18.86,50.35h-75.62l-18.56-49.55
						C306.92,216.53,307.97,215.01,309.49,215.01z"/>
					<path style="opacity:0.51;fill:#94D5FF;" d="M309.49,215.01h59.14c-28.76,0.73-44.13,1.6-50.04,2.47
						c-5.91,0.87-9.89,2.18-8.86,6.54l-2.27-6.07C306.92,216.53,307.97,215.01,309.49,215.01z"/>
					<path style="opacity:0.35;fill:#50BCFF;" d="M325.64,263.33c15.48,4.2,35.31,3.16,47.67-8.18c6.56-6.01,9.75-15.2,9.63-23.98
						c-0.07-4.95-0.99-11.06-3.29-16.16h0.03c1.38,0,2.61,0.85,3.09,2.14l18.86,50.35h-75.62l-1.71-4.56
						C324.75,263.08,325.2,263.21,325.64,263.33z"/>
					<g>
						<path style="opacity:0.46;fill:#50BCFF;" d="M395.64,270.12c0,0.8,0.65,1.44,1.44,1.44c0.8,0,1.44-0.65,1.44-1.44
							c0-0.8-0.65-1.44-1.44-1.44C396.29,268.68,395.64,269.32,395.64,270.12z"/>
						<path style="opacity:0.8;fill:#50BCFF;" d="M396.12,270.12c0,0.53,0.43,0.97,0.97,0.97c0.53,0,0.97-0.43,0.97-0.97
							c0-0.53-0.43-0.97-0.97-0.97C396.55,269.16,396.12,269.59,396.12,270.12z"/>
					</g>
				</g>
				<g>
					<g>
						<path style="fill:#414379;" d="M362.74,250.53l-5.32-4.27c-0.51-0.41-1.12-0.58-1.65-0.46l-5.53,1.22
							c-1.33,0.29-2.81-1.2-2.5-2.52l1.26-5.52c0.12-0.53-0.05-1.14-0.45-1.65l-4.23-5.35c-1.01-1.28-0.37-2.84,1.1-2.63l6.1,0.86
							c0.58,0.08,1.09-0.13,1.37-0.56l2.92-4.52c0.7-1.08,2.58-0.56,3.18,0.89l2.51,6.05c0.24,0.58,0.72,1.07,1.3,1.31l6.03,2.55
							c1.45,0.61,1.96,2.5,0.87,3.19l-4.55,2.88c-0.43,0.27-0.65,0.79-0.57,1.37l0.81,6.1
							C365.58,250.92,364.01,251.56,362.74,250.53z"/>
						<path style="fill:#FFD245;" d="M362.71,248.38l-5.75-4.61c-0.17-0.14-0.38-0.2-0.56-0.16l-5.98,1.31
							c-0.45,0.1-0.95-0.41-0.85-0.86l1.36-5.96c0.04-0.18-0.02-0.39-0.15-0.56l-4.57-5.78c-0.34-0.44-0.12-0.96,0.37-0.89
							l6.59,0.93c0.2,0.03,0.37-0.04,0.47-0.19l3.15-4.89c0.24-0.37,0.88-0.19,1.08,0.3l2.71,6.54c0.08,0.2,0.25,0.36,0.44,0.44
							l6.52,2.76c0.49,0.21,0.67,0.85,0.3,1.08l-4.92,3.11c-0.15,0.09-0.22,0.27-0.19,0.46l0.88,6.59
							C363.68,248.52,363.14,248.73,362.71,248.38z"/>
						<path style="fill:#FFFFFF;" d="M358.95,240.71l-1.99-1.6c-0.06-0.05-0.13-0.07-0.19-0.05l-2.07,0.46
							c-0.16,0.03-0.33-0.14-0.29-0.3l0.47-2.07c0.01-0.06-0.01-0.13-0.05-0.19l-1.58-2c-0.12-0.15-0.04-0.33,0.13-0.31l2.28,0.32
							c0.07,0.01,0.13-0.01,0.16-0.07l1.09-1.69c0.08-0.13,0.3-0.07,0.37,0.11l0.94,2.26c0.03,0.07,0.09,0.13,0.15,0.15l2.26,0.96
							c0.17,0.07,0.23,0.29,0.1,0.37l-1.7,1.08c-0.05,0.03-0.08,0.09-0.07,0.16l0.3,2.28C359.28,240.76,359.1,240.83,358.95,240.71z
							"/>
					</g>
					<path style="fill:#FFFFFF;" d="M341.32,250.99c1.57,5.5,6.73,9.75,11.53,9.49c4.8-0.26,7.42-4.92,5.85-10.42
						c-1.57-5.5-6.73-9.75-11.53-9.49C342.36,240.83,339.75,245.5,341.32,250.99z"/>
					<path style="fill:#D44459;" d="M342.9,250.91c1.28,4.49,5.5,7.97,9.43,7.76c3.92-0.21,6.06-4.02,4.78-8.51
						c-1.28-4.49-5.5-7.97-9.43-7.76C343.76,242.6,341.62,246.42,342.9,250.91z"/>
					<path style="fill:#FFD245;" d="M355.36,249.85c-0.09-0.22-0.32-0.29-0.52-0.14c-0.67,0.55-1.44-0.84-1.76-1.24
						c-0.68-0.83-1.36-1.66-2.04-2.49c-0.26-0.32-0.93-0.17-0.99,0.26c-0.08,0.58-0.04,1.15,0.04,1.72c-0.1-0.15-0.18-0.3-0.28-0.44
						c-0.37-0.51-0.96-1.01-1.63-0.74c-0.71,0.28-0.74,1.11-0.74,1.76c0.01,1.6,0.43,3.16,0.9,4.67c0.12,0.39,0.25,0.77,0.38,1.15
						c0.11,0.34,0.18,0.76,0.34,1.09c-0.03-0.01-0.05-0.02-0.08-0.04c-0.14-0.08-0.26-0.2-0.38-0.3c-0.26-0.23-0.5-0.48-0.73-0.74
						c-0.53-0.61-0.96-1.33-1.27-2.07c-0.24-0.6-0.69-1.65-0.21-2.22c0.24-0.28-0.13-0.65-0.4-0.4c-1.03,0.9-0.35,2.62,0.12,3.64
						c0.3,0.67,0.71,1.28,1.18,1.85c0.4,0.48,0.9,1.06,1.51,1.28c0.58,0.21,1.28,0,1.35-0.7c0.04-0.36-0.11-0.75-0.2-1.1
						c-0.12-0.45-0.24-0.89-0.37-1.33c-0.46-1.62-0.98-3.24-0.94-4.95c0-0.11,0-0.23,0.02-0.34l0-0.01
						c0.06,0.06,0.13,0.13,0.16,0.18c0.28,0.37,0.51,0.78,0.74,1.19c0.45,0.83,0.79,1.7,1.04,2.6c0.19,0.69,1.11,0.49,1.17-0.16
						c0.12-1.25-0.28-2.44-0.48-3.66c0.59,0.75,1.19,1.49,1.84,2.18c0.39,0.41,0.95,0.75,1.54,0.61
						C355.17,250.84,355.58,250.37,355.36,249.85z"/>
				</g>
			</g>
			<g>
				<g>
					<path style="fill:#94D5FF;" d="M288.79,229.9c-3.05-2.51-3.3-7.18-2.23-10.69c0.55-1.8,1.11-3.72,1.35-5.59
						c0.2-1.54,0.35-3.26-0.2-4.75c0.41,0.67,0.89,1.13,1.31,1.8c0.65,1.03,1.06,2.13,1.44,3.28c0.6,1.8,1.05,3.55,1.05,5.46
						c0,1.82-0.45,3.58-0.75,5.37c-0.2,1.19-0.35,2.4-0.75,3.54C289.88,228.64,289.29,230.31,288.79,229.9z"/>
					<path style="fill:#94D5FF;" d="M286.04,230.21c-3.66-1.49-6.27-3.91-7.56-7.31c-0.56-1.48-0.93-2.99-1.2-4.54
						c-0.13-0.75-0.34-1.55-0.36-2.32c0.01,0.43,0.39,0.8,0.67,1.1c0.62,0.68,1.32,1.23,2.02,1.82c0.77,0.65,1.48,1.29,2.32,1.85
						c0.89,0.6,1.86,1.17,2.67,1.9c1.59,1.42,2.89,3.24,3.44,5.32c0.2,0.76,0.12,1.74-0.2,2.02
						C287.45,230.4,286.69,230.47,286.04,230.21z"/>
					<path style="fill:#94D5FF;" d="M288.68,229.78c-0.56-0.84,0.34-2.45,0.81-3.1c1.15-1.61,2.9-2.93,4.64-3.86
						c1.93-1.04,4.04-1.73,6.1-2.46c0.88-0.31,1.81-0.58,2.58-1.11c0.41-0.28,1.04-0.69,1.16-1.21c-0.01,2.27-1.65,4.25-3.05,5.9
						c-1.45,1.71-3.07,3.01-5.1,3.95c-1.23,0.57-2.42,1.05-3.69,1.5c-0.72,0.25-1.46,0.5-2.22,0.53
						C289.45,229.94,288.9,230.13,288.68,229.78z"/>
					<path style="fill:#004DBE;" d="M302.55,203.86c-1.78,1.77-3.2,3.91-4.56,6.01c-1.43,2.22-2.74,4.52-3.92,6.89
						c-2.29,4.6-4.14,9.52-5.14,14.57c-0.04,0.21,0.25,0.29,0.32,0.09c1.52-4.94,3.27-9.76,5.59-14.39
						c1.12-2.22,2.35-4.39,3.69-6.48c1.4-2.18,3.01-4.21,4.4-6.39C303.09,203.92,302.74,203.66,302.55,203.86z"/>
					<path style="fill:#004DBE;" d="M286.11,217.89c-1.23-4.09-2.9-8.4-5.97-11.46c-0.1-0.1-0.29,0.04-0.2,0.16
						c2.62,3.51,4.27,7.49,5.42,11.69c1.23,4.47,1.6,8.98,2.09,13.57c0.03,0.28,0.4,0.28,0.43,0
						C288.35,227.22,287.43,222.32,286.11,217.89z"/>
					<path style="fill:#D44459;" d="M279.07,210.02c-0.77,0.02-1.72-0.26-2.36-0.7c-0.57-0.39-0.82-1.01-1.01-1.66
						c-0.23-0.78-0.67-1.28-1.28-1.8c-0.81-0.69-1.69-1.19-2.75-1.32c-0.2-0.02-0.78,0.03-0.84-0.23c-0.08-0.33,0.78-0.82,1-0.93
						c0.7-0.35,1.56-0.51,2.34-0.52c0.57-0.01,1.16,0.31,1.71,0.24c-0.6-0.46-1.04-1.42-1.09-2.15c-0.05-0.71,0.2-2.18,1.01-2.46
						c0.6-0.21,0.58,0.72,0.65,1.1c0.13,0.69,0.42,1.79,0.97,2.26c-0.01-1.06,0.58-2.62,1.68-2.96c0.06,0.68-0.46,1.45-0.2,2.14
						c0.21-0.41,0.47-0.77,0.85-1.08c0.23-0.19,0.59-0.62,0.92-0.6c-0.21,0.45-0.22,1.11-0.24,1.61c-0.05,1.09,0.83,1.52,1.52,2.22
						c0.37,0.38,0.84,0.69,1.07,1.18c0.35,0.72,0.35,1.69,0.24,2.46C283.06,208.14,281.92,209.93,279.07,210.02z"/>
					<path style="fill:#D44459;" d="M308.35,200.72c0.13-0.04,0.4-0.05,0.44-0.21c0.11-0.45-1.34-0.68-1.58-0.73
						c-0.52-0.11-1.06-0.07-1.58,0.03c-0.17,0.03-0.48,0.2-0.55,0.01c-0.06-0.17,0.29-0.71,0.36-0.86c0.11-0.23,0.33-0.53,0.29-0.8
						c-0.64-0.11-1.89,0.56-2.02,1.22c-0.37-0.52-0.5-1.2-0.91-1.71c-0.2-0.26-0.47-0.57-0.77-0.69c-0.16-0.06-0.58-0.15-0.73-0.03
						c-0.15,0.12-0.1,0.44-0.09,0.61c0.04,0.58,0.14,1.21,0,1.79c-0.18,0.74-0.72,0.91-1.32,1.25c-0.39,0.23-0.75,0.56-1.04,0.9
						c-0.43,0.51-0.71,1.13-0.75,1.8c-0.08,1.29,0.69,2.49,1.65,3.27c0.26,0.22,0.55,0.41,0.85,0.57c1.88,1,4.7,1.45,5.81-0.87
						c0.48-1.01,0.46-2.02,0.37-3.1c-0.01-0.17-0.02-0.36,0.06-0.51c0.15-0.3,0.54-0.43,0.84-0.5c0.25-0.06,0.7-0.17,0.29-0.41
						c-0.33-0.2-0.79-0.05-1.14-0.07c0.27-0.27,0.55-0.46,0.88-0.65C307.92,200.9,308.12,200.8,308.35,200.72z"/>
				</g>
				<g>
					<path style="fill:#FFD245;" d="M303.48,253.23c0-4.76-2.28-7.97-5.81-9.81c-2.34-1.22-3.9-3.53-3.9-6.17v-7.56H284v7.56
						c0,2.64-1.56,4.95-3.9,6.17c-3.53,1.84-5.81,5.05-5.81,9.81c0,3.15,1,6.51,2.71,9.43c1.55,2.65,5.24,5.68,5.24,8.75v0h13.3l0,0
						c0-3.07,3.69-6.09,5.24-8.75C302.48,259.74,303.48,256.38,303.48,253.23z"/>
					<path style="fill:#F59711;" d="M294.2,230.96h-10.63c-0.34,0-0.62-0.28-0.62-0.62v-0.55c0-0.34,0.28-0.62,0.62-0.62h10.63
						c0.34,0,0.62,0.28,0.62,0.62v0.55C294.83,230.68,294.55,230.96,294.2,230.96z"/>
					<path style="fill:#F59711;" d="M295.9,270.76h-14.02c-0.34,0-0.61,0.27-0.61,0.61v0.54c0,0.34,0.27,0.61,0.61,0.61h14.02
						c0.34,0,0.61-0.27,0.61-0.61v-0.54C296.5,271.03,296.23,270.76,295.9,270.76z"/>
				</g>
			</g>
		</g>
	</g>
</g>
</svg>
