<?xml version="1.0" encoding="utf-8"?>
<!-- Generator: Adobe Illustrator 22.0.1, SVG Export Plug-In . SVG Version: 6.00 Build 0)  -->
<svg version="1.1" id="Layer_1" xmlns="http://www.w3.org/2000/svg" xmlns:xlink="http://www.w3.org/1999/xlink" x="0px" y="0px"
	 viewBox="0 0 150.79 160.04" style="enable-background:new 0 0 150.79 160.04;" xml:space="preserve">
<g>
	<g>
		<g>
			<path style="fill:#3F2138;" d="M144,157.37H6.8c0,0,0.12-1.45,0.48-3.58c0.19-1.07,0.43-2.31,0.76-3.62
				c0.47-1.9,1.12-3.97,1.98-5.9c0.48-1.07,1.02-2.11,1.64-3.06c1.26-1.92,2.83-3.48,4.8-4.27c1.71-0.69,4.56-2.02,8.01-3.71
				c0.48-0.23,0.97-0.47,1.46-0.72c0,0,0.01,0,0.01-0.01c0.95-0.47,1.92-0.96,2.93-1.46c1.15-0.58,2.34-1.18,3.54-1.79
				c5.73-2.91,11.88-6.11,16.88-8.73c0.79-0.41,1.55-0.81,2.27-1.19h0c0.48-0.25,0.94-0.49,1.38-0.72c0,0,0.01,0,0.01,0
				c3.96-2.09,6.58-3.48,6.58-3.48l1.05,0.23c9.75,2.18,19.88,2.1,29.59-0.23c0,0,2.71,1.39,6.8,3.49c0.59,0.3,1.21,0.62,1.85,0.94
				c0.27,0.14,0.55,0.28,0.83,0.42c0,0,0,0,0,0c2.84,1.45,6.11,3.1,9.49,4.81c3,1.51,6.1,3.06,9.07,4.53
				c1.26,0.62,2.49,1.23,3.69,1.82c5.42,2.65,10.06,4.85,12.43,5.8c1.95,0.78,3.51,2.32,4.77,4.23c0.63,0.96,1.19,2.01,1.67,3.11
				c0.86,1.94,1.5,4.01,1.98,5.91c0.32,1.29,0.56,2.51,0.75,3.56C143.88,155.9,144,157.37,144,157.37z"/>
		</g>
		<g>
			<g>
				<g>
					<path style="fill:#734769;" d="M55.83,121.05c0,1.37-1.11,2.48-2.48,2.48c-1.37,0-2.48-1.11-2.48-2.48
						c0-0.67,0.27-1.28,0.7-1.72h0c0.48-0.25,0.94-0.49,1.38-0.72c0,0,0.01,0,0.01,0c0.13-0.02,0.26-0.03,0.4-0.03
						C54.72,118.57,55.83,119.68,55.83,121.05z"/>
				</g>
				<g>
					<path style="fill:#734769;" d="M66.84,121.05c0,1.37-1.11,2.48-2.48,2.48c-1.37,0-2.48-1.11-2.48-2.48
						c0-1.37,1.11-2.48,2.48-2.48C65.73,118.57,66.84,119.68,66.84,121.05z"/>
				</g>
				<g>
					<path style="fill:#734769;" d="M77.86,121.05c0,1.37-1.11,2.48-2.48,2.48c-1.37,0-2.48-1.11-2.48-2.48
						c0-1.37,1.11-2.48,2.48-2.48C76.75,118.57,77.86,119.68,77.86,121.05z"/>
				</g>
				<g>
					<path style="fill:#734769;" d="M88.88,121.05c0,1.37-1.11,2.48-2.48,2.48c-1.37,0-2.48-1.11-2.48-2.48
						c0-1.37,1.11-2.48,2.48-2.48C87.77,118.57,88.88,119.68,88.88,121.05z"/>
				</g>
				<g>
					<path style="fill:#734769;" d="M99.89,121.05c0,1.37-1.11,2.48-2.48,2.48c-1.37,0-2.48-1.11-2.48-2.48
						c0-1.22,0.88-2.23,2.04-2.44c0.59,0.3,1.21,0.62,1.85,0.94c0.27,0.14,0.55,0.28,0.83,0.42c0,0,0,0,0,0
						C99.81,120.3,99.89,120.67,99.89,121.05z"/>
				</g>
			</g>
			<g>
				<g>
					<path style="fill:#734769;" d="M33.79,131.47c0,1.37-1.11,2.48-2.48,2.48c-1.37,0-2.48-1.11-2.48-2.48
						c0-0.15,0.01-0.29,0.04-0.44c1.15-0.58,2.34-1.18,3.54-1.79C33.23,129.66,33.79,130.5,33.79,131.47z"/>
				</g>
				<g>
					<path style="fill:#734769;" d="M44.81,131.47c0,1.37-1.11,2.48-2.48,2.48s-2.48-1.11-2.48-2.48c0-1.37,1.11-2.48,2.48-2.48
						S44.81,130.1,44.81,131.47z"/>
				</g>
				<g>
					<path style="fill:#734769;" d="M55.83,131.47c0,1.37-1.11,2.48-2.48,2.48c-1.37,0-2.48-1.11-2.48-2.48
						c0-1.37,1.11-2.48,2.48-2.48C54.71,128.99,55.83,130.1,55.83,131.47z"/>
				</g>
				<g>
					<path style="fill:#734769;" d="M66.84,131.47c0,1.37-1.11,2.48-2.48,2.48c-1.37,0-2.48-1.11-2.48-2.48
						c0-1.37,1.11-2.48,2.48-2.48C65.73,128.99,66.84,130.1,66.84,131.47z"/>
				</g>
				<g>
					<path style="fill:#734769;" d="M77.86,131.47c0,1.37-1.11,2.48-2.48,2.48c-1.37,0-2.48-1.11-2.48-2.48
						c0-1.37,1.11-2.48,2.48-2.48C76.75,128.99,77.86,130.1,77.86,131.47z"/>
				</g>
				<g>
					<path style="fill:#734769;" d="M88.88,131.47c0,1.37-1.11,2.48-2.48,2.48c-1.37,0-2.48-1.11-2.48-2.48
						c0-1.37,1.11-2.48,2.48-2.48C87.77,128.99,88.88,130.1,88.88,131.47z"/>
				</g>
				<g>
					<path style="fill:#734769;" d="M99.89,131.47c0,1.37-1.11,2.48-2.48,2.48c-1.37,0-2.48-1.11-2.48-2.48
						c0-1.37,1.11-2.48,2.48-2.48C98.78,128.99,99.89,130.1,99.89,131.47z"/>
				</g>
				<g>
					<path style="fill:#734769;" d="M110.91,131.47c0,1.37-1.11,2.48-2.48,2.48s-2.48-1.11-2.48-2.48c0-1.37,1.11-2.48,2.48-2.48
						S110.91,130.1,110.91,131.47z"/>
				</g>
				<g>
					<path style="fill:#734769;" d="M121.93,131.47c0,1.37-1.11,2.48-2.48,2.48c-1.37,0-2.48-1.11-2.48-2.48
						c0-0.92,0.5-1.72,1.25-2.15c1.26,0.62,2.49,1.23,3.69,1.82C121.92,131.25,121.93,131.36,121.93,131.47z"/>
				</g>
			</g>
			<g>
				<g>
					<path style="fill:#734769;" d="M11.76,141.89c0,1.11-0.73,2.05-1.74,2.37c0.48-1.07,1.02-2.11,1.64-3.06
						C11.72,141.43,11.76,141.65,11.76,141.89z"/>
				</g>
				<g>
					<path style="fill:#734769;" d="M22.77,141.89c0,1.37-1.11,2.48-2.48,2.48c-1.37,0-2.48-1.11-2.48-2.48
						c0-1.37,1.11-2.48,2.48-2.48C21.66,139.41,22.77,140.52,22.77,141.89z"/>
				</g>
				<g>
					<path style="fill:#734769;" d="M33.79,141.89c0,1.37-1.11,2.48-2.48,2.48c-1.37,0-2.48-1.11-2.48-2.48
						c0-1.37,1.11-2.48,2.48-2.48C32.68,139.41,33.79,140.52,33.79,141.89z"/>
				</g>
				<g>
					<path style="fill:#734769;" d="M44.81,141.89c0,1.37-1.11,2.48-2.48,2.48s-2.48-1.11-2.48-2.48c0-1.37,1.11-2.48,2.48-2.48
						S44.81,140.52,44.81,141.89z"/>
				</g>
				<g>
					<path style="fill:#734769;" d="M55.83,141.89c0,1.37-1.11,2.48-2.48,2.48c-1.37,0-2.48-1.11-2.48-2.48
						c0-1.37,1.11-2.48,2.48-2.48C54.71,139.41,55.83,140.52,55.83,141.89z"/>
				</g>
				<g>
					<path style="fill:#734769;" d="M66.84,141.89c0,1.37-1.11,2.48-2.48,2.48c-1.37,0-2.48-1.11-2.48-2.48
						c0-1.37,1.11-2.48,2.48-2.48C65.73,139.41,66.84,140.52,66.84,141.89z"/>
				</g>
				<g>
					<path style="fill:#734769;" d="M77.86,141.89c0,1.37-1.11,2.48-2.48,2.48c-1.37,0-2.48-1.11-2.48-2.48
						c0-1.37,1.11-2.48,2.48-2.48C76.75,139.41,77.86,140.52,77.86,141.89z"/>
				</g>
				<g>
					<path style="fill:#734769;" d="M88.88,141.89c0,1.37-1.11,2.48-2.48,2.48c-1.37,0-2.48-1.11-2.48-2.48
						c0-1.37,1.11-2.48,2.48-2.48C87.77,139.41,88.88,140.52,88.88,141.89z"/>
				</g>
				<g>
					<path style="fill:#734769;" d="M99.89,141.89c0,1.37-1.11,2.48-2.48,2.48c-1.37,0-2.48-1.11-2.48-2.48
						c0-1.37,1.11-2.48,2.48-2.48C98.78,139.41,99.89,140.52,99.89,141.89z"/>
				</g>
				<g>
					<path style="fill:#734769;" d="M110.91,141.89c0,1.37-1.11,2.48-2.48,2.48s-2.48-1.11-2.48-2.48c0-1.37,1.11-2.48,2.48-2.48
						S110.91,140.52,110.91,141.89z"/>
				</g>
				<g>
					<path style="fill:#734769;" d="M121.93,141.89c0,1.37-1.11,2.48-2.48,2.48c-1.37,0-2.48-1.11-2.48-2.48
						c0-1.37,1.11-2.48,2.48-2.48C120.82,139.41,121.93,140.52,121.93,141.89z"/>
				</g>
				<g>
					<path style="fill:#734769;" d="M132.94,141.89c0,1.37-1.11,2.48-2.48,2.48s-2.48-1.11-2.48-2.48c0-1.37,1.11-2.48,2.48-2.48
						S132.94,140.52,132.94,141.89z"/>
				</g>
				<g>
					<path style="fill:#734769;" d="M140.78,144.27c-1.03-0.3-1.78-1.25-1.78-2.38c0-0.26,0.04-0.5,0.11-0.73
						C139.74,142.13,140.3,143.18,140.78,144.27z"/>
				</g>
			</g>
			<g>
				<g>
					<path style="fill:#734769;" d="M11.76,152.31c0,1.37-1.11,2.48-2.48,2.48c-0.82,0-1.54-0.4-2-1.01
						c0.19-1.07,0.43-2.31,0.76-3.62c0.36-0.21,0.79-0.33,1.24-0.33C10.65,149.83,11.76,150.95,11.76,152.31z"/>
				</g>
				<g>
					<path style="fill:#734769;" d="M22.77,152.31c0,1.37-1.11,2.48-2.48,2.48c-1.37,0-2.48-1.11-2.48-2.48
						c0-1.37,1.11-2.48,2.48-2.48C21.66,149.83,22.77,150.94,22.77,152.31z"/>
				</g>
				<g>
					<path style="fill:#734769;" d="M33.79,152.31c0,1.37-1.11,2.48-2.48,2.48c-1.37,0-2.48-1.11-2.48-2.48
						c0-1.37,1.11-2.48,2.48-2.48C32.68,149.83,33.79,150.94,33.79,152.31z"/>
				</g>
				<g>
					<path style="fill:#734769;" d="M44.81,152.31c0,1.37-1.11,2.48-2.48,2.48s-2.48-1.11-2.48-2.48c0-1.37,1.11-2.48,2.48-2.48
						S44.81,150.94,44.81,152.31z"/>
				</g>
				<g>
					<path style="fill:#734769;" d="M55.83,152.31c0,1.37-1.11,2.48-2.48,2.48c-1.37,0-2.48-1.11-2.48-2.48
						c0-1.37,1.11-2.48,2.48-2.48C54.71,149.83,55.83,150.94,55.83,152.31z"/>
				</g>
				<g>
					<path style="fill:#734769;" d="M66.84,152.31c0,1.37-1.11,2.48-2.48,2.48c-1.37,0-2.48-1.11-2.48-2.48
						c0-1.37,1.11-2.48,2.48-2.48C65.73,149.83,66.84,150.94,66.84,152.31z"/>
				</g>
				<g>
					<path style="fill:#734769;" d="M77.86,152.31c0,1.37-1.11,2.48-2.48,2.48c-1.37,0-2.48-1.11-2.48-2.48
						c0-1.37,1.11-2.48,2.48-2.48C76.75,149.83,77.86,150.94,77.86,152.31z"/>
				</g>
				<g>
					<path style="fill:#734769;" d="M88.88,152.31c0,1.37-1.11,2.48-2.48,2.48c-1.37,0-2.48-1.11-2.48-2.48
						c0-1.37,1.11-2.48,2.48-2.48C87.77,149.83,88.88,150.94,88.88,152.31z"/>
				</g>
				<g>
					<path style="fill:#734769;" d="M99.89,152.31c0,1.37-1.11,2.48-2.48,2.48c-1.37,0-2.48-1.11-2.48-2.48
						c0-1.37,1.11-2.48,2.48-2.48C98.78,149.83,99.89,150.94,99.89,152.31z"/>
				</g>
				<g>
					<path style="fill:#734769;" d="M110.91,152.31c0,1.37-1.11,2.48-2.48,2.48s-2.48-1.11-2.48-2.48c0-1.37,1.11-2.48,2.48-2.48
						S110.91,150.94,110.91,152.31z"/>
				</g>
				<g>
					<path style="fill:#734769;" d="M121.93,152.31c0,1.37-1.11,2.48-2.48,2.48c-1.37,0-2.48-1.11-2.48-2.48
						c0-1.37,1.11-2.48,2.48-2.48C120.82,149.83,121.93,150.94,121.93,152.31z"/>
				</g>
				<g>
					<path style="fill:#734769;" d="M132.94,152.31c0,1.37-1.11,2.48-2.48,2.48s-2.48-1.11-2.48-2.48c0-1.37,1.11-2.48,2.48-2.48
						S132.94,150.94,132.94,152.31z"/>
				</g>
				<g>
					<path style="fill:#734769;" d="M143.5,153.75c-0.45,0.63-1.19,1.05-2.03,1.05c-1.37,0-2.48-1.11-2.48-2.48
						c0-1.37,1.11-2.48,2.48-2.48c0.47,0,0.9,0.13,1.28,0.35C143.08,151.48,143.32,152.69,143.5,153.75z"/>
				</g>
			</g>
		</g>
		<g>
			<path style="fill:#FAB7A2;" d="M96.64,118.44c-2.47,5.67-4.95,11.34-7.44,17.01c-3.2,7.31-6.41,14.62-9.64,21.91h-5.54
				c-4.23-7.28-8.55-14.5-12.81-21.76c-1.72-2.93-3.44-5.88-5.13-8.83c-1.44-2.52-2.83-5.06-4.15-7.64
				c4.53-2.38,7.59-4.01,7.59-4.01l1.05,0.23c9.75,2.18,19.88,2.1,29.59-0.23C90.16,115.13,92.73,116.45,96.64,118.44z"/>
		</g>
		<g>
			<path style="fill:#FFF7F1;" d="M89.2,135.45c-3.2,7.31-6.41,14.62-9.64,21.91h-5.54c-4.23-7.28-8.55-14.5-12.81-21.76
				C67.66,137.41,77.71,138.82,89.2,135.45z"/>
		</g>
	</g>
	<g>
		<g>
			<g>
				<g>
					<g>
						<g>
							<path style="fill:#FAB7A2;" d="M90.86,118.62c0,0-2.69,8.46-15.05,8.46c-14.42,0-17.82-7.69-17.82-7.69
								c1.25-3.32,2.11-6.4,2.69-9.15h0c1.07-5.04,1.22-8.99,1.15-11.42l25.34-1c0.23,2.15,0.62,4.67,1.05,7.21
								C89.37,111.78,90.86,118.62,90.86,118.62z"/>
						</g>
						<g>
							<path style="fill:#FFF7F1;" d="M75.98,130.99c-7.56,0-12.51-3.88-15.33-7.13c-3.04-3.51-4.28-6.97-4.34-7.12
								c-0.09-0.26,0.04-0.55,0.3-0.64c0.26-0.09,0.55,0.04,0.64,0.3c0.01,0.03,1.25,3.45,4.17,6.82c3.9,4.48,8.79,6.76,14.55,6.76
								c13.72,0,17.02-13.39,17.05-13.53c0.06-0.27,0.33-0.44,0.6-0.37c0.27,0.06,0.44,0.33,0.37,0.6c-0.03,0.15-0.87,3.62-3.5,7.14
								C88.06,127.1,83.56,130.99,75.98,130.99z"/>
						</g>
					</g>
				</g>
			</g>
			<g>
				<g>
					<g>
						<g>
							<path style="fill:#3F2138;" d="M88.23,105.03c-3.93,2.73-12.51,6.79-27.53,5.21c1.07-5.04,1.22-8.99,1.15-11.42l25.34-1
								C87.42,99.97,87.8,102.49,88.23,105.03z"/>
						</g>
					</g>
				</g>
			</g>
		</g>
		<g>
			<g>
				<g>
					<g>
						<g>
							<g>
								<path style="fill:#FAB7A2;" d="M52.17,65.79c0,0-7.84-10.67-13.94-4.36c-6.1,6.32,5.66,28.31,16.33,23.52L52.17,65.79z"/>
							</g>
						</g>
					</g>
				</g>
				<g>
					<circle style="fill:#FFF7F1;" cx="45.57" cy="79.37" r="2.18"/>
				</g>
				<g>
					<g>
						<g>
							<g>
								<path style="fill:#F48A8B;" d="M48.92,78.4c-0.27,0-0.5-0.2-0.54-0.47c-1.03-7.42-6.92-11.97-6.98-12.01
									c-0.24-0.18-0.28-0.52-0.1-0.76c0.18-0.24,0.52-0.28,0.76-0.1c0.26,0.19,6.31,4.87,7.4,12.72c0.04,0.3-0.17,0.57-0.46,0.61
									C48.97,78.4,48.94,78.4,48.92,78.4z"/>
							</g>
						</g>
					</g>
				</g>
				<g>
					<g>
						<g>
							<g>
								<path style="fill:#F48A8B;" d="M47.28,73.07c-0.17,0-0.34-0.08-0.45-0.24c-0.79-1.16-3.14-1.28-3.98-1.23
									c-0.3,0.02-0.56-0.21-0.57-0.51c-0.02-0.3,0.21-0.56,0.51-0.57c0.15-0.01,3.65-0.2,4.94,1.71c0.17,0.25,0.1,0.58-0.15,0.75
									C47.49,73.04,47.38,73.07,47.28,73.07z"/>
							</g>
						</g>
					</g>
				</g>
			</g>
		</g>
		<g>
			<g>
				<g>
					<g>
						<g>
							<g>
								<path style="fill:#FAB7A2;" d="M99.94,65.79c0,0,7.84-10.67,13.94-4.36c6.1,6.32-5.66,28.31-16.33,23.52L99.94,65.79z"/>
							</g>
						</g>
					</g>
				</g>
				<g>
					<circle style="fill:#FFF7F1;" cx="105.95" cy="79.37" r="2.18"/>
				</g>
				<g>
					<g>
						<g>
							<g>
								<path style="fill:#F48A8B;" d="M103.09,78.4c-0.02,0-0.05,0-0.08-0.01c-0.3-0.04-0.5-0.31-0.46-0.61
									c1.09-7.85,7.14-12.53,7.4-12.72c0.24-0.18,0.58-0.13,0.76,0.1c0.18,0.24,0.13,0.58-0.1,0.76
									c-0.06,0.04-5.96,4.61-6.98,12.01C103.59,78.2,103.36,78.4,103.09,78.4z"/>
							</g>
						</g>
					</g>
				</g>
				<g>
					<g>
						<g>
							<g>
								<path style="fill:#F48A8B;" d="M104.74,73.07c-0.1,0-0.21-0.03-0.3-0.09c-0.25-0.17-0.31-0.5-0.15-0.75
									c1.29-1.91,4.79-1.71,4.94-1.7c0.3,0.02,0.52,0.28,0.51,0.57c-0.02,0.3-0.28,0.53-0.57,0.51c-0.84-0.05-3.19,0.07-3.98,1.23
									C105.08,72.99,104.91,73.07,104.74,73.07z"/>
							</g>
						</g>
					</g>
				</g>
			</g>
		</g>
		<g>
			<g>
				<g>
					<g>
						<path style="fill:#FAB7A2;" d="M79.58,33.79C56.42,33.12,45.57,45.51,47.33,71.1c1.1,15.9,9.65,35.23,28.47,35.67
							c19.62,0.46,28.55-21.79,28.97-38.24c0.45-17.29-3.66-28.85-17.96-33.54C85.83,34.67,80.65,33.82,79.58,33.79z"/>
					</g>
				</g>
			</g>
		</g>
		<g>
			<g>
				<g>
					<path style="fill:#F05252;" d="M94.28,25.48c-0.13,0.32-0.28,0.65-0.43,0.98c-1.44,3.03-3.88,6.19-7.55,9.37H68.21
						c0,0-6.49-3.58-9.88-9.4c-0.18-0.31-0.35-0.62-0.51-0.94c-2.36-4.71-2.52-10.72,4.05-17.39C74.88-5.11,101.48,7.81,94.28,25.48
						z"/>
				</g>
			</g>
			<g>
				<path style="fill:#C52D31;" d="M93.85,26.46c-1.44,3.03-3.88,6.19-7.55,9.37H68.21c0,0-6.49-3.58-9.88-9.4
					c2.12-1.29,9.7-3.88,17.23-2.07C75.57,24.36,85.44,21.87,93.85,26.46z"/>
			</g>
		</g>
		<g>
			<path style="fill:#F05252;" d="M51.35,58.65c0,0,24.63-6.37,24.63-19.23c0,0,5.66,17.75,24.73,19.23l4.1,3.09
				c0,0,2.19-1.77,3.87-2.24c0,0,4.93-39.06-32.76-33.84c0,0-11.71-2.62-21.35,4.05c-13.96,9.66-8.39,30.87-8.39,30.87L51.35,58.65z
				"/>
		</g>
		<g>
			<g>
				<path style="fill:#F48A8B;" d="M59.17,76.07c0,0.37-0.3,0.67-0.67,0.67s-0.67-0.3-0.67-0.67c0-0.37,0.3-0.67,0.67-0.67
					S59.17,75.7,59.17,76.07z"/>
			</g>
			<g>
				<path style="fill:#F48A8B;" d="M62.46,77.7c0,0.37-0.3,0.67-0.67,0.67c-0.37,0-0.67-0.3-0.67-0.67c0-0.37,0.3-0.67,0.67-0.67
					C62.16,77.03,62.46,77.33,62.46,77.7z"/>
			</g>
			<g>
				<path style="fill:#F48A8B;" d="M59.17,80.05c0,0.37-0.3,0.67-0.67,0.67s-0.67-0.3-0.67-0.67c0-0.37,0.3-0.67,0.67-0.67
					S59.17,79.67,59.17,80.05z"/>
			</g>
			<g>
				<path style="fill:#F48A8B;" d="M64.35,80.72c0,0.37-0.3,0.67-0.67,0.67S63,81.09,63,80.72c0-0.37,0.3-0.67,0.67-0.67
					S64.35,80.35,64.35,80.72z"/>
			</g>
			<g>
				<path style="fill:#F48A8B;" d="M67.8,80.05c0,0.37-0.3,0.67-0.67,0.67c-0.37,0-0.67-0.3-0.67-0.67c0-0.37,0.3-0.67,0.67-0.67
					C67.5,79.37,67.8,79.67,67.8,80.05z"/>
			</g>
			<g>
				<path style="fill:#F48A8B;" d="M66.23,76.75c0,0.37-0.3,0.67-0.67,0.67c-0.37,0-0.67-0.3-0.67-0.67c0-0.37,0.3-0.67,0.67-0.67
					C65.93,76.07,66.23,76.37,66.23,76.75z"/>
			</g>
		</g>
		<g>
			<g>
				<path style="fill:#F48A8B;" d="M93.52,76.07c0,0.37,0.3,0.67,0.67,0.67c0.37,0,0.67-0.3,0.67-0.67c0-0.37-0.3-0.67-0.67-0.67
					C93.82,75.4,93.52,75.7,93.52,76.07z"/>
			</g>
			<g>
				<path style="fill:#F48A8B;" d="M90.22,77.7c0,0.37,0.3,0.67,0.67,0.67c0.37,0,0.67-0.3,0.67-0.67c0-0.37-0.3-0.67-0.67-0.67
					C90.53,77.03,90.22,77.33,90.22,77.7z"/>
			</g>
			<g>
				<path style="fill:#F48A8B;" d="M93.52,80.05c0,0.37,0.3,0.67,0.67,0.67c0.37,0,0.67-0.3,0.67-0.67c0-0.37-0.3-0.67-0.67-0.67
					C93.82,79.37,93.52,79.67,93.52,80.05z"/>
			</g>
			<g>
				<path style="fill:#F48A8B;" d="M88.34,80.72c0,0.37,0.3,0.67,0.67,0.67s0.67-0.3,0.67-0.67c0-0.37-0.3-0.67-0.67-0.67
					S88.34,80.35,88.34,80.72z"/>
			</g>
			<g>
				<path style="fill:#F48A8B;" d="M84.89,80.05c0,0.37,0.3,0.67,0.67,0.67c0.37,0,0.67-0.3,0.67-0.67c0-0.37-0.3-0.67-0.67-0.67
					C85.19,79.37,84.89,79.67,84.89,80.05z"/>
			</g>
			<g>
				<path style="fill:#F48A8B;" d="M86.46,76.75c0,0.37,0.3,0.67,0.67,0.67s0.67-0.3,0.67-0.67c0-0.37-0.3-0.67-0.67-0.67
					S86.46,76.37,86.46,76.75z"/>
			</g>
		</g>
		<g>
			<g>
				<path style="fill:#F05252;" d="M48.26,75.66c0,0,4.64-9.79,3.09-17l-6.09-3.87C45.26,54.78,46.21,69.6,48.26,75.66z"/>
			</g>
			<g>
				<path style="fill:#F05252;" d="M103.8,75.66c0,0-4.64-9.79-3.09-17l5.07-1.48C105.78,57.17,106.55,69.56,103.8,75.66z"/>
			</g>
		</g>
		<g>
			<path style="fill:#F05252;" d="M56.81,63.98c0,0,1.25-3.1,5.51-5.75c5.37-3.35,9.24,2.41,9.24,2.41s-4.21-1.47-7.45-0.44
				C60.94,61.2,56.81,63.98,56.81,63.98z"/>
		</g>
		<g>
			<path style="fill:#F05252;" d="M96.39,63.98c0,0-1.25-3.1-5.51-5.75c-5.37-3.35-9.24,2.41-9.24,2.41s4.21-1.47,7.45-0.44
				C92.26,61.2,96.39,63.98,96.39,63.98z"/>
		</g>
		<g>
			<path style="fill:#F48A8B;" d="M77.37,84.57c-0.93,0-1.95-0.24-3.07-0.73c-0.31-0.13-0.49-0.45-0.45-0.78l1.57-12.04
				c0.05-0.41,0.43-0.7,0.84-0.65c0.41,0.05,0.7,0.43,0.65,0.84l-1.49,11.47c1.55,0.57,2.75,0.52,3.74-0.14
				c0.34-0.23,0.81-0.14,1.04,0.2c0.23,0.34,0.14,0.81-0.2,1.04C79.22,84.3,78.34,84.57,77.37,84.57z"/>
		</g>
		<g>
			<path style="fill:#F48A8B;" d="M75.89,92.53c-0.66,0-1.28-0.04-1.85-0.11c-3.43-0.39-5.82-1.72-5.93-1.77
				c-0.36-0.2-0.49-0.66-0.29-1.02c0.2-0.36,0.66-0.49,1.02-0.29l0,0c0.36,0.2,8.94,4.83,16.37-2.04c0.3-0.28,0.78-0.26,1.06,0.04
				c0.28,0.3,0.26,0.78-0.04,1.06C82.69,91.67,78.89,92.53,75.89,92.53z"/>
		</g>
		<g>
			<path style="fill:#F48A8B;" d="M77.19,96.93c-1.75,0-3.14-0.43-3.24-0.46c-0.4-0.12-0.62-0.54-0.49-0.94
				c0.12-0.4,0.54-0.62,0.94-0.49c0.05,0.02,3.48,1.04,5.89-0.32c0.36-0.2,0.82-0.08,1.02,0.28c0.2,0.36,0.08,0.82-0.28,1.02
				C79.8,96.72,78.41,96.93,77.19,96.93z"/>
		</g>
		<g>
			<g>
				<g>
					<g>
						<g>
							<g>
								<path style="fill:#3F2138;" d="M67.08,68.51c0.04,2.09-0.74,3.81-1.72,3.82c-0.99,0.02-1.82-1.67-1.86-3.76
									c-0.04-2.09,0.74-3.81,1.72-3.82C66.21,64.73,67.04,66.42,67.08,68.51z"/>
							</g>
						</g>
					</g>
				</g>
			</g>
			<g>
				<g>
					<g>
						<g>
							<g>
								<path style="fill:#3F2138;" d="M85.8,68.51c-0.04,2.09,0.74,3.81,1.72,3.82c0.99,0.02,1.82-1.67,1.86-3.76
									c0.04-2.09-0.74-3.81-1.72-3.82C86.66,64.73,85.83,66.42,85.8,68.51z"/>
							</g>
						</g>
					</g>
				</g>
			</g>
		</g>
	</g>
	<g>
		<g>
			<path style="fill:#FFFFFF;" d="M63.37,83.2c-6.37,0-11.56-5.19-11.56-11.56c0-6.37,5.19-11.56,11.56-11.56
				c6.37,0,11.56,5.19,11.56,11.56C74.93,78.01,69.74,83.2,63.37,83.2z M63.37,61.08c-5.82,0-10.56,4.74-10.56,10.56
				c0,5.82,4.74,10.56,10.56,10.56c5.82,0,10.56-4.74,10.56-10.56C73.93,65.81,69.19,61.08,63.37,61.08z"/>
		</g>
		<g>
			<path style="fill:#FFFFFF;" d="M89.38,83.2c-6.37,0-11.56-5.19-11.56-11.56c0-6.37,5.19-11.56,11.56-11.56
				c6.37,0,11.56,5.19,11.56,11.56C100.94,78.01,95.75,83.2,89.38,83.2z M89.38,61.08c-5.82,0-10.56,4.74-10.56,10.56
				c0,5.82,4.74,10.56,10.56,10.56c5.82,0,10.56-4.74,10.56-10.56C99.94,65.81,95.2,61.08,89.38,61.08z"/>
		</g>
		<g>
			<path style="fill:#FFFFFF;" d="M53.62,66.92c-0.17,0-0.33-0.08-0.43-0.24c-0.03-0.05-3.23-5.2-8.1-7.05
				c-0.26-0.1-0.39-0.39-0.29-0.64c0.1-0.26,0.39-0.39,0.64-0.29c5.2,1.97,8.47,7.24,8.6,7.46c0.14,0.24,0.07,0.54-0.17,0.69
				C53.79,66.89,53.7,66.92,53.62,66.92z"/>
		</g>
		<g>
			<path style="fill:#FFFFFF;" d="M100.02,66.92c-0.09,0-0.19-0.03-0.27-0.08c-0.23-0.15-0.3-0.46-0.15-0.69
				c0.15-0.23,3.77-5.72,8.96-7.69c0.26-0.1,0.55,0.03,0.64,0.29c0.1,0.26-0.03,0.55-0.29,0.64c-4.88,1.85-8.44,7.25-8.48,7.3
				C100.34,66.84,100.18,66.92,100.02,66.92z"/>
		</g>
		<g>
			<path style="fill:#FFFFFF;" d="M78.32,70.56c-0.25,0-0.47-0.19-0.5-0.45c-0.02-0.15-0.21-1.48-1.54-1.48
				c-1.32,0-1.45,1.31-1.46,1.46c-0.02,0.27-0.26,0.49-0.53,0.46c-0.27-0.02-0.48-0.25-0.46-0.53c0.05-0.83,0.64-2.4,2.46-2.4
				c1.81,0,2.45,1.55,2.54,2.38c0.03,0.27-0.17,0.52-0.45,0.55C78.35,70.56,78.33,70.56,78.32,70.56z"/>
		</g>
	</g>
</g>
</svg>
