<?xml version="1.0" encoding="utf-8"?>
<!-- Generator: Adobe Illustrator 22.0.1, SVG Export Plug-In . SVG Version: 6.00 Build 0)  -->
<svg version="1.1" id="Layer_1" xmlns="http://www.w3.org/2000/svg" xmlns:xlink="http://www.w3.org/1999/xlink" x="0px" y="0px"
	 viewBox="0 0 150.79 160.04" style="enable-background:new 0 0 150.79 160.04;" xml:space="preserve">
<g>
	<g>
		<path style="fill:#3F2138;" d="M52.08,19.49c0,0-15.11,13.09-15.74,34.68c-0.62,21.58,11.11,30.86,0.22,40.13
			c-10.89,9.28-35.11,19.32-20.42,44.31h59.84V23.97L52.08,19.49z"/>
	</g>
	<g>
		<path style="fill:#3F2138;" d="M99.3,19.49c0,0,15.11,13.09,15.74,34.68c0.62,21.58-11.11,30.86-0.22,40.13
			s35.11,19.32,20.42,44.31H75.4V23.97L99.3,19.49z"/>
	</g>
	<g>
		<g>
			<path style="fill:#F05252;" d="M144,149.39H6.8c0,0,1.38-17.12,9.66-20.43c1.71-0.69,4.56-2.02,8-3.71
				c0.48-0.23,0.97-0.47,1.46-0.72c0,0,0.01,0,0.01-0.01c7.17-3.55,16.39-8.33,23.35-11.98c5.93-3.11,10.23-5.39,10.23-5.39
				l1.05,0.23c9.75,2.18,19.88,2.11,29.59-0.23c0,0,3.54,1.82,8.65,4.43c3.02,1.54,6.6,3.36,10.33,5.23
				c10.01,5.04,21.05,10.49,25.19,12.15C142.62,132.27,144,149.39,144,149.39z"/>
		</g>
		<g>
			<path style="fill:#C52D31;" d="M37.94,149.39h-3.66c-2.84-6.25-7.58-17.03-9.81-24.14c0.48-0.23,0.97-0.47,1.46-0.72
				C27.57,128.74,32.97,142.07,37.94,149.39z"/>
		</g>
		<g>
			<path style="fill:#C52D31;" d="M110.37,149.39h3.66c2.84-6.25,8.05-17.94,10.28-25.05c-0.48-0.23-0.83-0.4-1.33-0.65
				C121.33,127.89,115.34,142.07,110.37,149.39z"/>
		</g>
		<g>
			<path style="fill:#F05252;" d="M68.2,149.39H38.23c-5.04-7.51-9.72-18.4-12.3-24.87c-1.3-3.28-2.07-5.42-2.07-5.42
				c7.73-6.12,25.42-6.56,25.42-6.56C55.59,120.99,63.71,138.93,68.2,149.39z"/>
		</g>
		<g>
			<path style="fill:#F05252;" d="M80.39,149.39h29.97c5.04-7.51,9.72-18.4,12.3-24.87c1.3-3.28,2.07-5.42,2.07-5.42
				c-7.73-6.12-25.9-7.52-25.9-7.52C92.52,120.02,84.88,138.93,80.39,149.39z"/>
		</g>
		<g>
			<path style="fill:#FAB7A2;" d="M98.82,111.58c-0.37,3.23-1.14,8.84-2.59,14.81c-2.26,9.29-6.16,19.48-12.73,23H72.68
				c-9.04-3.75-15.22-14.53-19.01-23.7c-2.34-5.67-3.76-10.73-4.38-13.14c5.93-3.11,10.23-5.39,10.23-5.39l1.05,0.23
				c9.75,2.18,19.88,2.11,29.59-0.23C90.16,107.15,93.7,108.98,98.82,111.58z"/>
		</g>
		<g>
			<path style="fill:#FFF7F1;" d="M96.23,126.39c-2.26,9.29-6.16,19.48-12.73,23H72.68c-9.04-3.75-15.22-14.53-19.01-23.7
				c4.74,1.96,11.81,3.74,21.81,3.74C84.26,129.43,91.13,128.05,96.23,126.39z"/>
		</g>
	</g>
	<g>
		<g>
			<g>
				<g>
					<g>
						<g>
							<path style="fill:#FAB7A2;" d="M90.86,110.64c0,0-2.69,8.46-15.05,8.46c-14.42,0-17.82-7.69-17.82-7.69
								c1.25-3.32,2.11-6.4,2.69-9.15h0c1.07-5.04,1.22-8.99,1.15-11.42l25.33-1c0.23,2.15,0.62,4.67,1.05,7.21
								C89.37,103.81,90.86,110.64,90.86,110.64z"/>
						</g>
						<g>
							<path style="fill:#FFF7F1;" d="M75.98,123.01c-7.56,0-12.51-3.88-15.33-7.13c-3.04-3.51-4.28-6.97-4.34-7.12
								c-0.09-0.26,0.04-0.55,0.3-0.64c0.26-0.09,0.55,0.04,0.64,0.3c0.01,0.03,1.25,3.45,4.17,6.82c3.9,4.48,8.79,6.76,14.55,6.76
								c5.74,0,10.35-2.26,13.7-6.73c2.52-3.36,3.34-6.77,3.35-6.8c0.06-0.27,0.33-0.43,0.6-0.37c0.27,0.06,0.44,0.33,0.37,0.6
								c-0.03,0.15-0.87,3.62-3.5,7.14C88.06,119.12,83.56,123.01,75.98,123.01z"/>
						</g>
					</g>
				</g>
			</g>
			<g>
				<g>
					<g>
						<g>
							<path style="fill:#3F2138;" d="M88.23,97.06c-3.93,2.73-12.51,6.79-27.53,5.21c1.07-5.04,1.22-8.99,1.15-11.42l25.33-1
								C87.42,91.99,87.8,94.52,88.23,97.06z"/>
						</g>
					</g>
				</g>
			</g>
		</g>
		<g>
			<g>
				<g>
					<g>
						<g>
							<g>
								<path style="fill:#FAB7A2;" d="M52.17,57.81c0,0-7.84-10.67-13.94-4.36c-6.1,6.32,5.66,28.31,16.33,23.52L52.17,57.81z"/>
							</g>
						</g>
					</g>
				</g>
				<g>
					<g>
						<g>
							<g>
								<path style="fill:#F48A8B;" d="M48.92,70.42c-0.27,0-0.5-0.2-0.54-0.47c-1.03-7.42-6.92-11.97-6.98-12.01
									c-0.24-0.18-0.28-0.52-0.1-0.76c0.18-0.24,0.52-0.28,0.76-0.1c0.26,0.19,6.31,4.87,7.4,12.72c0.04,0.3-0.17,0.57-0.46,0.61
									C48.97,70.42,48.94,70.42,48.92,70.42z"/>
							</g>
						</g>
					</g>
				</g>
				<g>
					<g>
						<g>
							<g>
								<path style="fill:#F48A8B;" d="M47.28,65.1c-0.17,0-0.34-0.08-0.45-0.24c-0.79-1.16-3.14-1.28-3.98-1.23
									c-0.3,0.02-0.56-0.21-0.57-0.51c-0.02-0.3,0.21-0.56,0.51-0.57c0.15-0.01,3.65-0.2,4.94,1.71c0.17,0.25,0.1,0.58-0.15,0.75
									C47.49,65.07,47.38,65.1,47.28,65.1z"/>
							</g>
						</g>
					</g>
				</g>
			</g>
			<g>
				<g>
					<g>
						<g>
							<g>
								<path style="fill:#FFF7F1;" d="M49.72,77.46c-0.15-0.02-0.3-0.07-0.46-0.11c-0.72,0.29-1.55,0.25-2.14-0.16
									c-1.81-1.27-0.23-4.33-0.21-4.38c0.15-0.28,0.04-0.63-0.24-0.78c-0.28-0.15-0.63-0.04-0.78,0.24
									c-0.09,0.16-2.07,4,0.57,5.86c0.53,0.38,1.19,0.56,1.87,0.56c0.66,0,1.33-0.18,1.91-0.54c0.23-0.15,0.43-0.32,0.61-0.51
									C50.46,77.58,50.1,77.52,49.72,77.46z"/>
							</g>
						</g>
					</g>
				</g>
			</g>
		</g>
		<g>
			<g>
				<g>
					<g>
						<g>
							<g>
								<path style="fill:#FAB7A2;" d="M99.94,57.81c0,0,7.84-10.67,13.94-4.36c6.1,6.32-5.66,28.31-16.33,23.52L99.94,57.81z"/>
							</g>
						</g>
					</g>
				</g>
				<g>
					<g>
						<g>
							<g>
								<path style="fill:#F48A8B;" d="M103.09,70.42c-0.02,0-0.05,0-0.08-0.01c-0.3-0.04-0.5-0.31-0.46-0.61
									c1.09-7.85,7.14-12.53,7.4-12.72c0.24-0.18,0.58-0.13,0.76,0.1c0.18,0.24,0.13,0.58-0.1,0.76
									c-0.06,0.04-5.96,4.61-6.98,12.01C103.59,70.23,103.36,70.42,103.09,70.42z"/>
							</g>
						</g>
					</g>
				</g>
				<g>
					<g>
						<g>
							<g>
								<path style="fill:#F48A8B;" d="M104.74,65.1c-0.1,0-0.21-0.03-0.3-0.09c-0.25-0.17-0.31-0.5-0.14-0.75
									c1.29-1.91,4.79-1.71,4.94-1.7c0.3,0.02,0.52,0.28,0.51,0.57c-0.02,0.3-0.28,0.53-0.57,0.51c-0.84-0.05-3.19,0.07-3.98,1.23
									C105.08,65.01,104.91,65.1,104.74,65.1z"/>
							</g>
						</g>
					</g>
				</g>
			</g>
			<g>
				<g>
					<g>
						<g>
							<g>
								<path style="fill:#FFF7F1;" d="M102.39,77.46c0.15-0.02,0.3-0.07,0.46-0.11c0.72,0.29,1.55,0.25,2.14-0.16
									c1.81-1.27,0.23-4.33,0.21-4.38c-0.15-0.28-0.04-0.63,0.24-0.78c0.28-0.15,0.63-0.04,0.78,0.24c0.09,0.16,2.07,4-0.57,5.86
									c-0.53,0.38-1.19,0.56-1.87,0.56c-0.66,0-1.33-0.18-1.91-0.54c-0.23-0.15-0.43-0.32-0.61-0.51
									C101.65,77.58,102.01,77.52,102.39,77.46z"/>
							</g>
						</g>
					</g>
				</g>
			</g>
		</g>
		<g>
			<g>
				<g>
					<g>
						<path style="fill:#FAB7A2;" d="M79.58,25.82c-23.17-0.68-34.02,11.72-32.25,37.31c1.1,15.9,9.65,35.23,28.47,35.67
							c19.62,0.46,28.55-21.79,28.97-38.24c0.45-17.29-3.66-28.85-17.96-33.54C85.83,26.7,80.65,25.85,79.58,25.82z"/>
					</g>
				</g>
			</g>
		</g>
		<g>
			<g>
				<path style="fill:#F48A8B;" d="M59.17,68.1c0,0.37-0.3,0.67-0.67,0.67c-0.37,0-0.67-0.3-0.67-0.67c0-0.37,0.3-0.67,0.67-0.67
					C58.87,67.42,59.17,67.72,59.17,68.1z"/>
			</g>
			<g>
				<path style="fill:#F48A8B;" d="M62.46,69.73c0,0.37-0.3,0.67-0.67,0.67s-0.67-0.3-0.67-0.67c0-0.37,0.3-0.67,0.67-0.67
					S62.46,69.35,62.46,69.73z"/>
			</g>
			<g>
				<path style="fill:#F48A8B;" d="M59.17,72.07c0,0.37-0.3,0.67-0.67,0.67c-0.37,0-0.67-0.3-0.67-0.67c0-0.37,0.3-0.67,0.67-0.67
					C58.87,71.4,59.17,71.7,59.17,72.07z"/>
			</g>
			<g>
				<path style="fill:#F48A8B;" d="M64.35,72.75c0,0.37-0.3,0.67-0.67,0.67c-0.37,0-0.67-0.3-0.67-0.67c0-0.37,0.3-0.67,0.67-0.67
					C64.05,72.07,64.35,72.37,64.35,72.75z"/>
			</g>
			<g>
				<path style="fill:#F48A8B;" d="M67.8,72.07c0,0.37-0.3,0.67-0.67,0.67c-0.37,0-0.67-0.3-0.67-0.67c0-0.37,0.3-0.67,0.67-0.67
					C67.5,71.4,67.8,71.7,67.8,72.07z"/>
			</g>
			<g>
				<path style="fill:#F48A8B;" d="M66.23,68.77c0,0.37-0.3,0.67-0.67,0.67c-0.37,0-0.67-0.3-0.67-0.67c0-0.37,0.3-0.67,0.67-0.67
					C65.93,68.1,66.23,68.4,66.23,68.77z"/>
			</g>
		</g>
		<g>
			<g>
				<path style="fill:#F48A8B;" d="M93.52,68.1c0,0.37,0.3,0.67,0.67,0.67c0.37,0,0.67-0.3,0.67-0.67c0-0.37-0.3-0.67-0.67-0.67
					C93.82,67.42,93.52,67.72,93.52,68.1z"/>
			</g>
			<g>
				<path style="fill:#F48A8B;" d="M90.22,69.73c0,0.37,0.3,0.67,0.67,0.67c0.37,0,0.67-0.3,0.67-0.67c0-0.37-0.3-0.67-0.67-0.67
					C90.53,69.05,90.22,69.35,90.22,69.73z"/>
			</g>
			<g>
				<path style="fill:#F48A8B;" d="M93.52,72.07c0,0.37,0.3,0.67,0.67,0.67c0.37,0,0.67-0.3,0.67-0.67c0-0.37-0.3-0.67-0.67-0.67
					C93.82,71.4,93.52,71.7,93.52,72.07z"/>
			</g>
			<g>
				<path style="fill:#F48A8B;" d="M88.34,72.75c0,0.37,0.3,0.67,0.67,0.67c0.37,0,0.67-0.3,0.67-0.67c0-0.37-0.3-0.67-0.67-0.67
					C88.64,72.07,88.34,72.37,88.34,72.75z"/>
			</g>
			<g>
				<path style="fill:#F48A8B;" d="M84.89,72.07c0,0.37,0.3,0.67,0.67,0.67c0.37,0,0.67-0.3,0.67-0.67c0-0.37-0.3-0.67-0.67-0.67
					C85.19,71.4,84.89,71.7,84.89,72.07z"/>
			</g>
			<g>
				<path style="fill:#F48A8B;" d="M86.46,68.77c0,0.37,0.3,0.67,0.67,0.67c0.37,0,0.67-0.3,0.67-0.67c0-0.37-0.3-0.67-0.67-0.67
					C86.76,68.1,86.46,68.4,86.46,68.77z"/>
			</g>
		</g>
		<g>
			<g>
				<path style="fill:#3F2138;" d="M48.26,67.68c0,0,4.64-9.79,3.09-17l-5.07-1.48C46.28,49.2,45.51,61.58,48.26,67.68z"/>
			</g>
			<g>
				<path style="fill:#3F2138;" d="M103.8,67.68c0,0-4.64-9.79-3.09-17l5.07-1.48C105.78,49.2,106.55,61.58,103.8,67.68z"/>
			</g>
		</g>
		<g>
			<path style="fill:#3F2138;" d="M52.08,19.49c-5.62,5.55-10,14.64-10.29,20.19c-0.3,5.62,1.14,11.21,5.36,13.35
				c13.18,6.7,40.44-18.5,40.44-18.5s9.62,19.55,17.19,18.63c7.58-0.92,10.8-22.97-7.24-35.3C79.54,5.55,60.69,10.98,52.08,19.49z"
				/>
		</g>
		<g>
			<path style="fill:#3F2138;" d="M56.81,56c0,0,1.25-3.1,5.51-5.75c5.37-3.35,9.24,2.41,9.24,2.41s-4.21-1.47-7.45-0.44
				C60.94,53.23,56.81,56,56.81,56z"/>
		</g>
		<g>
			<path style="fill:#3F2138;" d="M96.39,56c0,0-1.25-3.1-5.51-5.75c-5.37-3.35-9.24,2.41-9.24,2.41s4.21-1.47,7.45-0.44
				C92.26,53.23,96.39,56,96.39,56z"/>
		</g>
		<g>
			<path style="fill:#F48A8B;" d="M77.37,76.59c-0.93,0-1.95-0.24-3.07-0.73c-0.31-0.13-0.49-0.45-0.45-0.78l1.57-12.04
				c0.05-0.41,0.43-0.7,0.84-0.65c0.41,0.05,0.7,0.43,0.65,0.84l-1.49,11.47c1.55,0.57,2.75,0.52,3.74-0.14
				c0.34-0.23,0.81-0.14,1.04,0.2c0.23,0.34,0.14,0.81-0.2,1.04C79.22,76.33,78.34,76.59,77.37,76.59z"/>
		</g>
		<g>
			<path style="fill:#F48A8B;" d="M75.89,84.55c-0.66,0-1.28-0.04-1.85-0.11c-3.43-0.39-5.82-1.72-5.93-1.77
				c-0.36-0.2-0.49-0.66-0.29-1.02c0.2-0.36,0.66-0.49,1.02-0.29l0,0c0.36,0.2,8.94,4.83,16.37-2.04c0.3-0.28,0.78-0.26,1.06,0.04
				c0.28,0.3,0.26,0.78-0.04,1.06C82.69,83.7,78.89,84.55,75.89,84.55z"/>
		</g>
		<g>
			<path style="fill:#F48A8B;" d="M77.19,88.95c-1.75,0-3.14-0.43-3.24-0.46c-0.4-0.12-0.62-0.54-0.49-0.94
				c0.12-0.4,0.54-0.62,0.94-0.49c0.05,0.02,3.48,1.04,5.89-0.32c0.36-0.2,0.82-0.08,1.02,0.28c0.2,0.36,0.08,0.82-0.28,1.02
				C79.8,88.74,78.41,88.95,77.19,88.95z"/>
		</g>
		<g>
			<g>
				<g>
					<g>
						<g>
							<g>
								<path style="fill:#3F2138;" d="M67.08,60.53c0.04,2.09-0.74,3.81-1.72,3.82c-0.99,0.02-1.82-1.67-1.86-3.76
									c-0.04-2.09,0.74-3.81,1.72-3.82C66.21,56.76,67.04,58.44,67.08,60.53z"/>
							</g>
						</g>
					</g>
				</g>
			</g>
			<g>
				<g>
					<g>
						<g>
							<g>
								<path style="fill:#3F2138;" d="M85.8,60.53c-0.04,2.09,0.74,3.81,1.72,3.82c0.99,0.02,1.82-1.67,1.86-3.76
									c0.04-2.09-0.74-3.81-1.72-3.82C86.66,56.76,85.83,58.44,85.8,60.53z"/>
							</g>
						</g>
					</g>
				</g>
			</g>
		</g>
	</g>
</g>
</svg>
