<?xml version="1.0" encoding="utf-8"?>
<!-- Generator: Adobe Illustrator 22.0.1, SVG Export Plug-In . SVG Version: 6.00 Build 0)  -->
<svg version="1.1" id="Layer_1" xmlns="http://www.w3.org/2000/svg" xmlns:xlink="http://www.w3.org/1999/xlink" x="0px" y="0px"
	 viewBox="0 0 150.79 160.04" style="enable-background:new 0 0 150.79 160.04;" xml:space="preserve">
<g>
	<g>
		<path style="fill:#3F2138;" d="M43.87,134.81c0,0-23.97,4.82-24.98-15.36c-0.44-8.74-1.62-7.37-9.25-14.73S2,94.34,3.63,87.52
			c1.64-6.82,8.52-9.16,5.12-15.47c-4.48-8.3-3.1-22.49,6.63-28.02c9.41-5.35,10.46-5.28,10.46-10.76c0-7.16,7.44-18.7,22.78-17.5
			c13.19,1.03,11.14-5.39,20.5-8.25c17.42-5.33,25.86,9.76,31.86,10.3c6,0.55,16.39,0.65,21.66,8.62
			c6.54,9.89,0.76,17.96,8.95,18.78c8.18,0.82,16.37,7.91,16.09,15.28c-0.27,7.37-4.64,13.64-1.64,16.91
			c3,3.27,4.16,22.66-7.95,26.37c-16.55,5.07,0,29.57-30.43,29.11C80.3,132.51,43.87,134.81,43.87,134.81z"/>
	</g>
	<g>
		<g>
			<path style="fill:#2A74BB;" d="M142.3,153.65H5.1c0,0,1.38-17.12,9.66-20.43c1.71-0.69,4.56-2.02,8.01-3.71
				c0.48-0.23,0.97-0.47,1.46-0.72c0,0,0.01,0,0.01-0.01c0.88-0.44,1.79-0.89,2.72-1.36c6.67-3.35,14.52-7.42,20.63-10.62
				c0.71-0.37,1.4-0.73,2.06-1.08c4.84-2.55,8.17-4.32,8.17-4.32l1.05,0.23c9.75,2.18,19.88,2.1,29.59-0.23c0,0,3.45,1.78,8.46,4.33
				c0.06,0.03,0.13,0.06,0.19,0.1c3.02,1.54,6.6,3.36,10.33,5.23c10.01,5.04,21.05,10.49,25.19,12.15
				C140.92,136.53,142.3,153.65,142.3,153.65z"/>
		</g>
	</g>
	<g>
		<path style="fill:#0758A7;" d="M75.06,144.51c-3.4,0-6.36-0.49-8.73-1.11c-5.9-1.53-9.42-4.07-9.57-4.18
			c-0.33-0.24-0.41-0.71-0.16-1.05c0.24-0.33,0.71-0.41,1.05-0.16c0.05,0.04,3.49,2.51,9.12,3.95c5.19,1.34,13.37,2.05,22.86-2.12
			c0.38-0.17,0.82,0.01,0.99,0.38c0.17,0.38-0.01,0.82-0.38,0.99C84.64,143.69,79.47,144.51,75.06,144.51z"/>
	</g>
	<g>
		<path style="fill:#FAB7A2;" d="M96.93,115.74c-1.62,7.04-6.84,20.18-23.23,20.18c-17.46,0-22.62-14.02-24.05-20.19
			c4.84-2.55,8.17-4.32,8.17-4.32l1.05,0.23c9.75,2.18,19.88,2.1,29.59-0.23C88.47,111.41,91.92,113.19,96.93,115.74z"/>
	</g>
	<g>
		<path style="fill:#FAB7A2;" d="M32.68,153.65H5.1c0,0,1.38-17.12,9.66-20.43c1.71-0.69,4.56-2.02,8.01-3.71
			c0.48-0.23,0.97-0.47,1.46-0.72c0,0,0.01,0,0.01-0.01c0.88-0.44,1.79-0.89,2.72-1.36C29.02,133.18,32.44,144.07,32.68,153.65z"/>
	</g>
	<g>
		<path style="fill:#FAB7A2;" d="M114.72,153.65h27.58c0,0-1.38-17.12-9.66-20.43c-1.71-0.69-4.56-2.02-8.01-3.71
			c-0.48-0.23-0.97-0.47-1.46-0.72c0,0-0.01,0-0.01-0.01c-0.88-0.44-1.79-0.89-2.72-1.36C118.38,133.18,114.96,144.07,114.72,153.65
			z"/>
	</g>
	<g>
		<g>
			<g>
				<g>
					<g>
						<g>
							<path style="fill:#FAB7A2;" d="M89.17,114.91c0,0-2.69,8.46-15.05,8.46c-14.42,0-17.82-7.69-17.82-7.69
								c1.25-3.32,2.11-6.4,2.69-9.15h0c1.07-5.04,1.22-8.99,1.15-11.42l25.33-1c0.23,2.15,0.62,4.67,1.05,7.21
								C87.68,108.07,89.17,114.91,89.17,114.91z"/>
						</g>
					</g>
				</g>
			</g>
			<g>
				<g>
					<g>
						<g>
							<path style="fill:#3F2138;" d="M86.53,101.32c-3.93,2.73-12.51,6.79-27.53,5.21c1.07-5.04,1.22-8.99,1.15-11.42l25.33-1
								C85.72,96.25,86.1,98.78,86.53,101.32z"/>
						</g>
					</g>
				</g>
			</g>
		</g>
		<g>
			<g>
				<g>
					<g>
						<g>
							<g>
								<path style="fill:#FAB7A2;" d="M100.08,63.51c0,0,5.94-8.08,10.55-3.3c4.62,4.78-4.29,21.43-12.37,17.81L100.08,63.51z"/>
							</g>
						</g>
					</g>
				</g>
				<g>
					<g>
						<path style="fill:#FFF7F1;" d="M97.62,77.86c-3.79,1.84-6.4,5.72-6.4,10.21c0,6.26,5.09,11.35,11.34,11.35
							c6.26,0,11.34-5.09,11.34-11.35c0-5.62-4.1-10.29-9.47-11.18c-0.51-0.09-1.03-0.14-1.56-0.15c0.04-0.44,0.13-0.87,0.27-1.28
							c0.88,0.04,1.73,0.17,2.55,0.38c5.46,1.4,9.5,6.35,9.5,12.24c0,6.97-5.67,12.63-12.63,12.63c-6.97,0-12.63-5.67-12.63-12.63
							c0-5.28,3.26-9.82,7.88-11.7L97.62,77.86z"/>
					</g>
				</g>
				<g>
					<g>
						<g>
							<g>
								<path style="fill:#F48A8B;" d="M102.46,73.06c-0.02,0-0.04,0-0.06,0c-0.22-0.03-0.38-0.24-0.35-0.46
									c0.83-5.95,5.41-9.48,5.6-9.63c0.18-0.14,0.44-0.1,0.57,0.08c0.14,0.18,0.1,0.44-0.08,0.57c-0.05,0.03-4.51,3.49-5.29,9.09
									C102.84,72.91,102.67,73.06,102.46,73.06z"/>
							</g>
						</g>
					</g>
				</g>
				<g>
					<g>
						<g>
							<g>
								<path style="fill:#F48A8B;" d="M103.71,69.03c-0.08,0-0.16-0.02-0.23-0.07c-0.19-0.13-0.24-0.38-0.11-0.57
									c0.98-1.45,3.63-1.3,3.74-1.29c0.23,0.01,0.4,0.21,0.38,0.43c-0.01,0.23-0.21,0.4-0.43,0.38c-0.64-0.04-2.42,0.05-3.01,0.93
									C103.97,68.96,103.84,69.03,103.71,69.03z"/>
							</g>
						</g>
					</g>
				</g>
			</g>
		</g>
		<g>
			<g>
				<g>
					<g>
						<g>
							<g>
								<path style="fill:#FAB7A2;" d="M48.6,63.51c0,0-5.94-8.08-10.55-3.3C33.43,65,42.33,81.65,50.41,78.02L48.6,63.51z"/>
							</g>
						</g>
					</g>
				</g>
				<g>
					<g>
						<path style="fill:#FFF7F1;" d="M50.21,76.36c4.62,1.88,7.88,6.42,7.88,11.7c0,6.97-5.67,12.63-12.63,12.63
							s-12.63-5.67-12.63-12.63c0-5.88,4.04-10.84,9.5-12.24c0.82-0.21,1.67-0.34,2.55-0.38c0.14,0.41,0.23,0.84,0.27,1.28
							c-0.53,0.02-1.05,0.06-1.56,0.15c-5.37,0.89-9.47,5.57-9.47,11.18c0,6.26,5.09,11.35,11.34,11.35S56.8,94.32,56.8,88.07
							c0-4.48-2.62-8.37-6.4-10.21L50.21,76.36z"/>
					</g>
				</g>
				<g>
					<g>
						<path style="fill:#FFF7F1;" d="M50.21,76.36c4.62,1.88,7.88,6.42,7.88,11.7c0,6.97-5.67,12.63-12.63,12.63
							s-12.63-5.67-12.63-12.63c0-5.88,4.04-10.84,9.5-12.24c0.82-0.21,1.67-0.34,2.55-0.38c0.14,0.41,0.23,0.84,0.27,1.28
							c-0.53,0.02-1.05,0.06-1.56,0.15c-5.37,0.89-9.47,5.57-9.47,11.18c0,6.26,5.09,11.35,11.34,11.35S56.8,94.32,56.8,88.07
							c0-4.48-2.62-8.37-6.4-10.21L50.21,76.36z"/>
					</g>
				</g>
				<g>
					<g>
						<g>
							<g>
								<path style="fill:#F48A8B;" d="M46.21,73.06c0.02,0,0.04,0,0.06,0c0.22-0.03,0.38-0.24,0.35-0.46
									c-0.83-5.95-5.41-9.48-5.6-9.63c-0.18-0.14-0.44-0.1-0.57,0.08c-0.14,0.18-0.1,0.44,0.08,0.57
									c0.05,0.03,4.51,3.49,5.29,9.09C45.83,72.91,46.01,73.06,46.21,73.06z"/>
							</g>
						</g>
					</g>
				</g>
				<g>
					<g>
						<g>
							<g>
								<path style="fill:#F48A8B;" d="M44.97,69.03c0.08,0,0.16-0.02,0.23-0.07c0.19-0.13,0.24-0.38,0.11-0.57
									c-0.98-1.45-3.63-1.3-3.74-1.29c-0.23,0.01-0.4,0.21-0.38,0.43c0.01,0.23,0.21,0.4,0.43,0.38c0.64-0.04,2.42,0.05,3.01,0.93
									C44.71,68.96,44.84,69.03,44.97,69.03z"/>
							</g>
						</g>
					</g>
				</g>
			</g>
		</g>
		<g>
			<g>
				<g>
					<g>
						<path style="fill:#FAB7A2;" d="M103.08,64.83c-0.43,16.44-9.36,38.7-28.97,38.23c-17.36-0.41-25.98-16.88-28.08-31.91
							c-0.18-1.27-0.31-2.53-0.39-3.76c-1.67-24.23,7.96-36.63,28.66-37.31c1.16-0.04,2.36-0.04,3.59,0
							c1.07,0.03,6.25,0.88,7.24,1.21C99.43,35.97,103.53,47.54,103.08,64.83z"/>
					</g>
				</g>
			</g>
		</g>
		<g style="opacity:0.5;">
			<g>
				<path style="fill:#F48A8B;" d="M64.33,74.68c0,1.9-3.5,3.43-7.82,3.43c-4.32,0-7.82-1.54-7.82-3.43c0-1.9,3.5-3.43,7.82-3.43
					C60.83,71.25,64.33,72.79,64.33,74.68z"/>
			</g>
		</g>
		<g style="opacity:0.5;">
			<g>
				<path style="fill:#F48A8B;" d="M101.11,74.68c0,1.9-3.5,3.43-7.82,3.43c-4.32,0-7.82-1.54-7.82-3.43c0-1.9,3.5-3.43,7.82-3.43
					C97.61,71.25,101.11,72.79,101.11,74.68z"/>
			</g>
		</g>
		<g>
			<g>
				<path style="fill:#3F2138;" d="M62.85,44.89c-5.09,0.39-3.56,6.28-8.56,9.16c-5.5,3.16-4.82,5.06-3.49,9.49
					c1.98,6.59-4.52,8.15-4.52,8.15c-0.08-0.17-0.16-0.35-0.24-0.53c-0.18-1.27-0.31-2.53-0.39-3.76
					c-1.67-24.23,6.07-38.35,28.66-37.31C77.09,40.69,69.65,44.37,62.85,44.89z"/>
			</g>
			<g>
				<path style="fill:#3F2138;" d="M85.31,43.15c6.76-0.11,4.4,6.89,8.39,10.11c4.94,3.98,6.56,2.29,4.39,8.81
					c-2.24,6.75,4.2,9.61,4.2,9.61c0.08-0.17,0.16-0.35,0.24-0.53c0.18-1.27,0.31-2.53,0.39-3.76c1.67-24.23-6.52-38.28-28.65-37.31
					C71.48,40.69,78.49,43.25,85.31,43.15z"/>
			</g>
		</g>
		<g>
			<path style="fill:#3F2138;" d="M67.55,53.27c-2.65,0.06-8.44,0.77-11.04,5.59c0,0,5.98-2.84,10.98-2.54
				c0.96,0.06,1.73-0.77,1.61-1.72l0,0C69,53.83,68.34,53.25,67.55,53.27z"/>
		</g>
		<g>
			<path style="fill:#3F2138;" d="M82.24,53.27c2.65,0.06,8.44,0.77,11.04,5.59c0,0-5.98-2.84-10.98-2.54
				c-0.96,0.06-1.73-0.77-1.61-1.72h0C80.8,53.83,81.46,53.25,82.24,53.27z"/>
		</g>
		<g>
			<path style="fill:#F48A8B;" d="M75.68,80.85c-0.93,0-1.95-0.24-3.07-0.73c-0.31-0.13-0.49-0.45-0.45-0.78l1.57-12.04
				c0.05-0.41,0.43-0.7,0.84-0.65c0.41,0.05,0.7,0.43,0.65,0.84l-1.49,11.47c1.55,0.57,2.75,0.52,3.74-0.14
				c0.34-0.23,0.81-0.14,1.04,0.2c0.23,0.34,0.14,0.81-0.2,1.04C77.52,80.59,76.65,80.85,75.68,80.85z"/>
		</g>
		<g>
			<path style="fill:#F48A8B;" d="M74.19,88.82c-0.66,0-1.28-0.04-1.85-0.11c-3.43-0.39-5.82-1.72-5.93-1.77
				c-0.36-0.2-0.49-0.66-0.29-1.02c0.2-0.36,0.66-0.49,1.02-0.29l0,0c0.36,0.2,8.94,4.83,16.37-2.04c0.3-0.28,0.78-0.26,1.06,0.04
				c0.28,0.3,0.26,0.78-0.04,1.06C80.99,87.96,77.2,88.82,74.19,88.82z"/>
		</g>
		<g>
			<path style="fill:#F48A8B;" d="M75.5,93.21c-1.75,0-3.14-0.43-3.24-0.46c-0.4-0.12-0.62-0.54-0.49-0.94
				c0.12-0.39,0.54-0.62,0.94-0.49c0.04,0.01,3.47,1.05,5.89-0.32c0.36-0.2,0.82-0.08,1.02,0.28c0.2,0.36,0.08,0.82-0.28,1.02
				C78.1,93.01,76.72,93.21,75.5,93.21z"/>
		</g>
		<g>
			<g>
				<g>
					<g>
						<g>
							<g>
								<path style="fill:#3F2138;" d="M65.39,64.8c0.04,2.09-0.74,3.81-1.72,3.82c-0.99,0.02-1.82-1.67-1.86-3.76
									c-0.04-2.09,0.74-3.81,1.72-3.82C64.52,61.02,65.35,62.7,65.39,64.8z"/>
							</g>
						</g>
					</g>
				</g>
			</g>
			<g>
				<g>
					<g>
						<g>
							<g>
								<path style="fill:#3F2138;" d="M84.1,64.8c-0.04,2.09,0.74,3.81,1.72,3.82c0.99,0.02,1.82-1.67,1.86-3.76
									c0.04-2.09-0.74-3.81-1.72-3.82C84.97,61.02,84.14,62.7,84.1,64.8z"/>
							</g>
						</g>
					</g>
				</g>
			</g>
		</g>
	</g>
</g>
</svg>
