<?xml version="1.0" encoding="utf-8"?>
<!-- Generator: Adobe Illustrator 22.0.1, SVG Export Plug-In . SVG Version: 6.00 Build 0)  -->
<svg version="1.1" id="Layer_1" xmlns="http://www.w3.org/2000/svg" xmlns:xlink="http://www.w3.org/1999/xlink" x="0px" y="0px"
	 viewBox="0 0 150.79 160.04" style="enable-background:new 0 0 150.79 160.04;" xml:space="preserve">
<g>
	<g>
		<g>
			<path style="fill:#F05252;" d="M144,151.67H6.8c0,0,1.38-17.11,9.66-20.43c3.35-1.34,11.02-5.16,18.97-9.23
				c2.96-1.51,5.95-3.06,8.77-4.53c0.3-0.15,0.6-0.31,0.89-0.46c2.32-1.21,4.5-2.35,6.44-3.37c4.26-2.24,7.31-3.86,7.89-4.17
				c0.07-0.03,0.1-0.05,0.1-0.05l1.05,0.24c1.31,0.29,2.63,0.55,3.95,0.75c1.31,0.21,2.62,0.38,3.93,0.51
				c7.24,0.71,14.57,0.21,21.68-1.49c0.01,0,0.02,0,0.03-0.01c0,0,3.22,1.66,7.96,4.07c1.97,1,4.2,2.14,6.57,3.34
				c0.3,0.15,0.6,0.3,0.9,0.46c1.16,0.58,2.35,1.18,3.55,1.79c1.28,0.65,2.58,1.3,3.88,1.95c8.85,4.43,17.7,8.75,21.31,10.2
				C142.62,134.56,144,151.67,144,151.67z"/>
		</g>
	</g>
	<g>
		<g>
			<path style="fill:#C52D31;" d="M105.6,117.31c-0.47,1.37-1.01,2.77-1.63,4.17c-2.46,5.53-5.68,9.94-9.58,13.1
				c-4.89,3.97-10.85,5.98-17.72,5.98c-14.35,0-23.2-8.41-28.11-15.46c-1.83-2.64-3.26-5.29-4.35-7.63c0.3-0.15,0.6-0.31,0.89-0.46
				c1.07,2.31,2.49,4.93,4.3,7.54c6.93,9.95,16.11,15,27.27,15c12.06,0,20.93-6.22,26.38-18.49c0.63-1.42,1.18-2.84,1.65-4.22
				C104.99,117,105.29,117.15,105.6,117.31z"/>
		</g>
	</g>
	<g>
		<path style="fill:#FFF7F1;" d="M98.12,113.51c-1.73,7.43-8.27,18.74-22.73,18.74c-15.87,0-21.83-12.84-23.87-18.6
			c4.26-2.24,7.31-3.86,7.89-4.17c0.07-0.03,0.1-0.05,0.1-0.05l1.05,0.24c1.31,0.29,2.63,0.55,3.95,0.75
			c1.31,0.21,2.62,0.38,3.93,0.51c7.24,0.71,14.57,0.21,21.68-1.49c0.01,0,0.02,0,0.03-0.01C90.17,109.44,93.39,111.1,98.12,113.51z
			"/>
	</g>
	<g>
		<g>
			<g>
				<g>
					<g>
						<g>
							<g>
								<path style="fill:#FAB7A2;" d="M90.86,112.93c0,0-2.69,8.46-15.05,8.46c-14.42,0-17.82-7.69-17.82-7.69
									c1.25-3.32,2.11-6.4,2.69-9.15h0c1.07-5.04,1.22-8.99,1.15-11.42l25.34-1c0.23,2.15,0.62,4.67,1.05,7.21
									C89.37,106.09,90.86,112.93,90.86,112.93z"/>
							</g>
						</g>
					</g>
				</g>
			</g>
			<g>
				<g>
					<g>
						<g>
							<g>
								<path style="fill:#3F2138;" d="M88.23,99.34c-3.93,2.73-12.51,6.79-27.53,5.21c1.07-5.04,1.22-8.99,1.15-11.42l25.34-1
									C87.42,94.28,87.8,96.8,88.23,99.34z"/>
							</g>
						</g>
					</g>
				</g>
			</g>
		</g>
		<g>
			<g>
				<g>
					<g>
						<g>
							<g>
								<g>
									<path style="fill:#FAB7A2;" d="M52.18,60.1c0,0-7.84-10.67-13.94-4.36c-6.1,6.32,5.66,28.31,16.33,23.52L52.18,60.1z"/>
								</g>
							</g>
						</g>
					</g>
				</g>
				<g>
					<g>
						<g>
							<g>
								<g>
									<path style="fill:#F48A8B;" d="M48.44,72.71c-0.27,0-0.5-0.2-0.54-0.47c-1.03-7.42-6.92-11.97-6.98-12.01
										c-0.24-0.18-0.28-0.52-0.1-0.76c0.18-0.24,0.52-0.28,0.76-0.1c0.26,0.19,6.31,4.87,7.4,12.72c0.04,0.3-0.17,0.57-0.46,0.61
										C48.49,72.71,48.46,72.71,48.44,72.71z"/>
								</g>
							</g>
						</g>
					</g>
				</g>
				<g>
					<g>
						<g>
							<g>
								<g>
									<path style="fill:#F48A8B;" d="M46.79,67.38c-0.17,0-0.34-0.08-0.45-0.24c-0.79-1.16-3.14-1.28-3.98-1.23
										c-0.3,0.02-0.56-0.21-0.57-0.51c-0.02-0.3,0.21-0.56,0.51-0.57c0.15-0.01,3.65-0.2,4.94,1.71c0.17,0.25,0.1,0.58-0.15,0.75
										C47,67.35,46.9,67.38,46.79,67.38z"/>
								</g>
							</g>
						</g>
					</g>
				</g>
			</g>
		</g>
		<g>
			<g>
				<g>
					<g>
						<g>
							<g>
								<g>
									<path style="fill:#FAB7A2;" d="M99.94,60.1c0,0,7.84-10.67,13.94-4.36c6.1,6.32-5.66,28.31-16.33,23.52L99.94,60.1z"/>
								</g>
							</g>
						</g>
					</g>
				</g>
				<g>
					<g>
						<g>
							<g>
								<g>
									<path style="fill:#F48A8B;" d="M103.68,72.71c-0.02,0-0.05,0-0.08-0.01c-0.3-0.04-0.5-0.31-0.46-0.61
										c1.09-7.85,7.14-12.53,7.4-12.72c0.24-0.18,0.58-0.13,0.76,0.1c0.18,0.24,0.13,0.58-0.1,0.76
										c-0.06,0.05-5.96,4.61-6.98,12.01C104.18,72.51,103.95,72.71,103.68,72.71z"/>
								</g>
							</g>
						</g>
					</g>
				</g>
				<g>
					<g>
						<g>
							<g>
								<g>
									<path style="fill:#F48A8B;" d="M105.32,67.38c-0.1,0-0.21-0.03-0.3-0.09c-0.25-0.17-0.31-0.5-0.14-0.75
										c1.29-1.91,4.79-1.71,4.94-1.7c0.3,0.02,0.52,0.28,0.51,0.57c-0.02,0.3-0.28,0.53-0.57,0.51
										c-0.84-0.05-3.19,0.07-3.98,1.23C105.67,67.3,105.5,67.38,105.32,67.38z"/>
								</g>
							</g>
						</g>
					</g>
				</g>
			</g>
		</g>
		<g>
			<g>
				<g>
					<g>
						<g>
							<path style="fill:#FAB7A2;" d="M81.06,27c-22.35-0.01-36.22,11.57-33.73,38.15c1.49,15.86,9.65,35.49,28.47,35.94
								c19.62,0.46,27.49-20.9,30.29-37.11c2.56-14.83-4.98-31.27-19.28-35.96C85.82,27.69,82.32,27,81.06,27z"/>
						</g>
						<g>
							<path style="fill:#3F2138;" d="M47.08,60.3c0,0-2.6-25.2-2.68-30.78C44.22,15.94,57.92,8.32,78.02,8.37
								C94.24,8.4,96.24,15.5,97.54,21.25c0,0,11.99,0.31,13.82,8.67c1.83,8.36-5.78,33.6-5.78,33.6s-2.55-5.81-4.38-14.17
								c-1.83-8.36-4.21-13.48-9.43-13.58c-5.22-0.1-11.76,0.16-18.81,4.34c-7.05,4.18-14.11,4.7-19.07,1.05
								C53.89,41.15,52.56,53.77,47.08,60.3z"/>
						</g>
					</g>
				</g>
			</g>
		</g>
		<g style="opacity:0.5;">
			<g>
				<path style="fill:#F48A8B;" d="M66.54,70.81c0,1.9-3.5,3.43-7.82,3.43c-4.32,0-7.82-1.54-7.82-3.43c0-1.9,3.5-3.43,7.82-3.43
					C63.04,67.38,66.54,68.92,66.54,70.81z"/>
			</g>
		</g>
		<g style="opacity:0.5;">
			<g>
				<path style="fill:#F48A8B;" d="M103.31,70.81c0,1.9-3.5,3.43-7.82,3.43s-7.82-1.54-7.82-3.43c0-1.9,3.5-3.43,7.82-3.43
					S103.31,68.92,103.31,70.81z"/>
			</g>
		</g>
		<g>
			<path style="fill:#3F2138;" d="M106.25,60.3c0,0-0.17,12.27-3.82,27.7c-5.86,24.73-25.96,21.44-25.96,21.44S56.76,112.73,50.9,88
				c-3.65-15.43-3.82-27.7-3.82-27.7l3.21-5.36c0,0,2.25,21.31,10.41,25c0,0,3.63-5.51,15.78-0.36c12.15-5.15,16.17,0.36,16.17,0.36
				c8.16-3.69,10.41-25,10.41-25L106.25,60.3z"/>
		</g>
		<g>
			<g>
				<path style="fill:#F48A8B;" d="M77.37,77.48c-0.93,0-1.95-0.24-3.08-0.73c-0.32-0.14-0.5-0.47-0.46-0.81L75.4,63.9
					c0.06-0.42,0.44-0.72,0.87-0.67c0.42,0.06,0.72,0.44,0.67,0.87l-1.49,11.45c1.54,0.56,2.73,0.51,3.71-0.15
					c0.35-0.24,0.83-0.15,1.07,0.21c0.24,0.35,0.14,0.83-0.21,1.07C79.22,77.22,78.35,77.48,77.37,77.48z"/>
			</g>
		</g>
		<g>
			<g>
				<path style="fill:#734769;" d="M75.94,86.84c-4.43,0-7.79-1.83-7.84-1.86c-0.37-0.21-0.51-0.68-0.3-1.05
					c0.21-0.37,0.68-0.51,1.05-0.3c0.37,0.21,8.93,4.82,16.34-2.03c0.31-0.29,0.8-0.27,1.09,0.04c0.29,0.31,0.27,0.8-0.04,1.09
					C82.8,85.91,79.1,86.84,75.94,86.84z"/>
			</g>
		</g>
		<g>
			<g>
				<path style="fill:#734769;" d="M77.19,91.26c-1.75,0-3.15-0.43-3.25-0.46c-0.41-0.13-0.63-0.56-0.51-0.97
					c0.13-0.41,0.56-0.63,0.97-0.51l0,0c0.03,0.01,3.46,1.05,5.87-0.32c0.37-0.21,0.84-0.08,1.05,0.29
					c0.21,0.37,0.08,0.84-0.29,1.05C79.81,91.05,78.42,91.26,77.19,91.26z"/>
			</g>
		</g>
		<g>
			<g>
				<path style="fill:#3F2138;" d="M60.87,56.92c1.66-0.89,4.09-2,6.46-2.34c1.27-0.19,2.07-1.46,1.63-2.67l-0.09-0.24
					c-0.31-0.87-1.18-1.42-2.1-1.32c-2.11,0.22-5.84,0.96-8.28,3.39c-0.53,0.53-0.71,1.31-0.49,2.02l0,0
					C58.39,56.95,59.76,57.51,60.87,56.92z"/>
			</g>
		</g>
		<g>
			<g>
				<path style="fill:#3F2138;" d="M92.86,56.92c-1.66-0.89-4.09-2-6.46-2.34c-1.27-0.19-2.07-1.46-1.63-2.67l0.09-0.24
					c0.31-0.87,1.18-1.42,2.1-1.32c2.11,0.22,5.84,0.96,8.28,3.39c0.53,0.53,0.71,1.31,0.49,2.02l0,0
					C95.35,56.95,93.97,57.51,92.86,56.92z"/>
			</g>
		</g>
		<g>
			<g>
				<g>
					<g>
						<g>
							<g>
								<g>
									<path style="fill:#3F2138;" d="M67.08,62.82c0.04,2.09-0.74,3.81-1.72,3.82c-0.99,0.02-1.82-1.67-1.86-3.76
										c-0.04-2.09,0.74-3.81,1.72-3.82C66.21,59.04,67.04,60.72,67.08,62.82z"/>
								</g>
							</g>
						</g>
					</g>
				</g>
			</g>
			<g>
				<g>
					<g>
						<g>
							<g>
								<g>
									<path style="fill:#3F2138;" d="M85.8,62.82c-0.04,2.09,0.74,3.81,1.72,3.82c0.99,0.02,1.82-1.67,1.86-3.76
										c0.04-2.09-0.74-3.81-1.72-3.82C86.67,59.04,85.83,60.72,85.8,62.82z"/>
								</g>
							</g>
						</g>
					</g>
				</g>
			</g>
		</g>
	</g>
</g>
</svg>
