<?xml version="1.0" encoding="utf-8"?>
<!-- Generator: Adobe Illustrator 22.0.1, SVG Export Plug-In . SVG Version: 6.00 Build 0)  -->
<svg version="1.1" id="Layer_1" xmlns="http://www.w3.org/2000/svg" xmlns:xlink="http://www.w3.org/1999/xlink" x="0px" y="0px"
	 viewBox="0 0 150.79 160.04" style="enable-background:new 0 0 150.79 160.04;" xml:space="preserve">
<g>
	<g>
		<path style="fill:#3F2138;" d="M48.46,74.58c0,0-4.17,10.52-1.83,14.09c2.34,3.56,6.85-3.52,6.85-3.52s-3.61,12.88,1.42,14.17
			c5.02,1.29,10.39-9.78,10.39-9.78S55.67,69.94,48.46,74.58z"/>
	</g>
	<g>
		<path style="fill:#3F2138;" d="M102.64,74.58c0,0,4.17,10.52,1.83,14.09c-2.34,3.56-6.85-3.52-6.85-3.52s3.61,12.88-1.42,14.17
			c-5.02,1.29-10.39-9.78-10.39-9.78S95.43,69.94,102.64,74.58z"/>
	</g>
	<g>
		<g>
			<path style="fill:#2A74BB;" d="M144,149.08H6.8c0,0,0.12-1.55,0.52-3.8c0.14-0.76,0.3-1.61,0.51-2.5
				c0.38-1.67,0.89-3.51,1.58-5.31c0.32-0.85,0.68-1.69,1.09-2.5c1.07-2.14,2.43-4.05,4.16-5.31c0.56-0.41,1.16-0.75,1.81-1.01
				c0.86-0.35,2.01-0.86,3.38-1.49c2.86-1.33,6.68-3.22,10.82-5.31c1.56-0.79,3.16-1.61,4.78-2.43c0.05-0.02,0.09-0.05,0.14-0.07
				c3.49-1.79,7.02-3.62,10.27-5.31c1.06-0.56,2.1-1.09,3.09-1.61c0.58-0.3,1.15-0.6,1.7-0.89c0.09-0.05,0.17-0.09,0.26-0.13
				c4.44-2.33,7.71-4.06,8.48-4.47c0,0,0.01,0,0.01,0c0.02-0.01,0.05-0.02,0.06-0.03c0.07-0.04,0.1-0.05,0.1-0.05l1.05,0.24
				c1.31,0.29,2.63,0.55,3.95,0.75c1.31,0.21,2.62,0.38,3.93,0.51c7.24,0.71,14.57,0.21,21.68-1.49c0.01,0,0.02-0.01,0.03-0.01
				c0,0,3.26,1.68,8.05,4.12c0.37,0.19,0.74,0.38,1.13,0.58c1.53,0.78,3.19,1.62,4.93,2.5c1.57,0.8,3.21,1.62,4.88,2.46
				c1.28,0.64,2.58,1.3,3.88,1.95c0.6,0.3,1.2,0.6,1.8,0.9c1.71,0.85,3.4,1.69,5.04,2.5c4.25,2.09,8.15,3.98,11.06,5.31
				c1.39,0.64,2.55,1.15,3.41,1.49c0.64,0.26,1.25,0.6,1.81,1.01c1.73,1.26,3.09,3.17,4.16,5.31c0.4,0.81,0.77,1.65,1.09,2.5
				c0.68,1.8,1.2,3.64,1.58,5.31c0.2,0.89,0.37,1.74,0.51,2.5C143.87,147.53,144,149.08,144,149.08z"/>
		</g>
	</g>
	<g>
		<g>
			<path style="fill:#0758A7;" d="M104.27,114.04H45.84c1.69-0.88,3.3-1.72,4.78-2.5h48.72
				C100.87,112.31,102.53,113.16,104.27,114.04z"/>
		</g>
		<g>
			<path style="fill:#0758A7;" d="M119.86,121.85H30.66c1.56-0.79,3.16-1.61,4.78-2.43c0.05-0.02,0.09-0.05,0.14-0.07h79.25
				C116.53,120.2,118.22,121.04,119.86,121.85z"/>
		</g>
		<g>
			<path style="fill:#0758A7;" d="M136.14,129.66H14.65c0.56-0.41,1.16-0.75,1.81-1.01c0.86-0.35,2.01-0.86,3.38-1.49h111.09
				c1.39,0.64,2.55,1.15,3.41,1.49C134.98,128.91,135.58,129.25,136.14,129.66z"/>
		</g>
		<g>
			<path style="fill:#0758A7;" d="M141.39,137.47H9.4c0.32-0.85,0.68-1.69,1.09-2.5H140.3
				C140.71,135.78,141.07,136.62,141.39,137.47z"/>
		</g>
		<g>
			<path style="fill:#0758A7;" d="M143.47,145.28H7.32c0.14-0.76,0.3-1.61,0.51-2.5h135.14
				C143.17,143.67,143.34,144.52,143.47,145.28z"/>
		</g>
	</g>
	<g>
		<path style="fill:#0758A7;" d="M98.21,110.96c-1.57,5.54-8.37,14.25-22.81,14.25c-14.94,0-23.22-8.07-26.47-12.78
			c0.58-0.3,1.15-0.6,1.7-0.89c0.09-0.05,0.17-0.09,0.26-0.13c4.44-2.33,7.71-4.06,8.48-4.47c0,0,0.01,0,0.01,0
			c0.02-0.01,0.05-0.02,0.06-0.03c0.07-0.04,0.1-0.05,0.1-0.05l1.05,0.24c1.31,0.29,2.63,0.55,3.95,0.75
			c1.31,0.21,2.62,0.38,3.93,0.51c7.24,0.71,14.57,0.21,21.68-1.49c0.01,0,0.02-0.01,0.03-0.01
			C90.16,106.84,93.43,108.52,98.21,110.96z"/>
	</g>
	<g>
		<g>
			<g>
				<g>
					<g>
						<g>
							<g>
								<path style="fill:#FAB7A2;" d="M90.86,110.33c0,0-2.69,8.46-15.05,8.46c-14.42,0-17.82-7.69-17.82-7.69
									c1.25-3.32,2.11-6.4,2.69-9.15h0c1.07-5.04,1.22-8.99,1.15-11.42l25.34-1c0.23,2.15,0.62,4.67,1.05,7.21
									C89.37,103.5,90.86,110.33,90.86,110.33z"/>
							</g>
						</g>
					</g>
				</g>
			</g>
			<g>
				<g>
					<g>
						<g>
							<g>
								<path style="fill:#3F2138;" d="M88.23,96.75c-3.93,2.73-12.51,6.79-27.53,5.21c1.07-5.04,1.22-8.99,1.15-11.42l25.34-1
									C87.41,91.68,87.8,94.21,88.23,96.75z"/>
							</g>
						</g>
					</g>
				</g>
			</g>
		</g>
		<g>
			<g>
				<g>
					<g>
						<g>
							<g>
								<g>
									<path style="fill:#FAB7A2;" d="M52.17,57.5c0,0-7.84-10.67-13.94-4.36c-6.1,6.32,5.66,28.31,16.33,23.52L52.17,57.5z"/>
								</g>
							</g>
						</g>
					</g>
				</g>
				<g>
					<g>
						<g>
							<g>
								<g>
									<path style="fill:#F48A8B;" d="M48.43,70.11c-0.27,0-0.5-0.2-0.54-0.47c-1.03-7.42-6.92-11.97-6.98-12.01
										c-0.24-0.18-0.28-0.52-0.1-0.76c0.18-0.24,0.52-0.28,0.76-0.1c0.26,0.19,6.31,4.87,7.4,12.72c0.04,0.3-0.17,0.57-0.46,0.61
										C48.48,70.11,48.46,70.11,48.43,70.11z"/>
								</g>
							</g>
						</g>
					</g>
				</g>
				<g>
					<g>
						<g>
							<g>
								<g>
									<path style="fill:#F48A8B;" d="M46.79,64.79c-0.17,0-0.34-0.08-0.45-0.24c-0.79-1.16-3.14-1.28-3.98-1.23
										c-0.3,0.02-0.56-0.21-0.57-0.51c-0.02-0.3,0.21-0.56,0.51-0.57c0.15-0.01,3.65-0.2,4.94,1.71c0.17,0.25,0.1,0.58-0.15,0.75
										C47,64.76,46.9,64.79,46.79,64.79z"/>
								</g>
							</g>
						</g>
					</g>
				</g>
			</g>
		</g>
		<g>
			<g>
				<g>
					<g>
						<g>
							<g>
								<g>
									<path style="fill:#FAB7A2;" d="M100.67,57.5c0,0,7.84-10.67,13.94-4.36c6.1,6.32-5.66,28.31-16.33,23.52L100.67,57.5z"/>
								</g>
							</g>
						</g>
					</g>
				</g>
				<g>
					<g>
						<g>
							<g>
								<g>
									<path style="fill:#F48A8B;" d="M104.41,70.11c-0.02,0-0.05,0-0.08-0.01c-0.3-0.04-0.5-0.31-0.46-0.61
										c1.09-7.85,7.14-12.53,7.4-12.72c0.24-0.18,0.58-0.13,0.76,0.1c0.18,0.24,0.13,0.58-0.1,0.76
										c-0.06,0.05-5.96,4.61-6.98,12.01C104.9,69.91,104.67,70.11,104.41,70.11z"/>
								</g>
							</g>
						</g>
					</g>
				</g>
				<g>
					<g>
						<g>
							<g>
								<g>
									<path style="fill:#F48A8B;" d="M106.05,64.79c-0.1,0-0.21-0.03-0.3-0.09c-0.25-0.17-0.31-0.5-0.15-0.75
										c1.29-1.91,4.79-1.71,4.94-1.7c0.3,0.02,0.52,0.28,0.51,0.57c-0.02,0.3-0.28,0.53-0.57,0.51
										c-0.84-0.05-3.19,0.07-3.98,1.23C106.39,64.7,106.22,64.79,106.05,64.79z"/>
								</g>
							</g>
						</g>
					</g>
				</g>
			</g>
		</g>
		<g>
			<g>
				<g>
					<g>
						<g>
							<path style="fill:#FAB7A2;" d="M82.67,26.39c-21.93-5.35-37.1,10.83-35.07,35.84c1.29,15.88,9.39,35.82,28.21,36.26
								c19.62,0.46,29.86-18.37,29.86-40.36c0-16.83-5.65-26.18-19.96-30.87C84.72,26.93,83.7,26.64,82.67,26.39z"/>
						</g>
					</g>
				</g>
			</g>
		</g>
		<g>
			<path style="fill:#3F2138;" d="M44.56,39.37c0,0-4.34,10.03-2.77,11.83c1.33,1.54,3.38,0.48,3.38,0.48s-0.84,10.96,3.81,11.39
				c4.65,0.43,4.07-20.12,4.07-20.12s7.69,0.21,6.25-6.16c0,0,19.92,3.79,35.3-0.26c0,0-0.64,6.15,4.55,6.96
				c0,0-3.01,18.65,2.49,20.02c5.5,1.37,5.22-11.45,5.22-11.45s2.42,0.03,3.37-0.91c2.26-2.22-1.43-14.27-7.47-22.17
				C96.13,20.33,63.07,3.9,44.56,39.37z"/>
		</g>
		<g>
			<g>
				<path style="fill:#F05252;" d="M109.9,37.03c0,0-1.46-0.32-4.1-0.75c-0.26-0.04-0.53-0.09-0.81-0.13
					c-2.69-0.42-6.39-0.92-10.87-1.31c-0.26-0.02-0.52-0.05-0.79-0.07c-3.2-0.26-6.77-0.47-10.64-0.56
					c-0.26-0.01-0.52-0.01-0.78-0.02c-3.33-0.06-6.87-0.03-10.57,0.12c-0.26,0.01-0.52,0.02-0.78,0.03
					c-3.44,0.16-7.02,0.44-10.69,0.86c-0.26,0.03-0.53,0.06-0.79,0.09c-3.58,0.43-7.25,0.99-10.96,1.72
					c-0.27,0.05-0.54,0.11-0.81,0.16c-1.4,0.28-2.81,0.59-4.22,0.93c0,0,1.65-11.77,11.14-19.81c0.52-0.44,1.05-0.86,1.62-1.27
					c2.58-1.89,5.66-3.5,9.35-4.58c0.31-0.09,0.62-0.18,0.94-0.26c2.02-0.53,4.22-0.91,6.61-1.09h0c0.26-0.02,0.52-0.04,0.79-0.05
					c0.85-0.05,1.73-0.07,2.63-0.07c1.23,0,2.41,0.04,3.55,0.13c0.27,0.02,0.53,0.04,0.79,0.07c2.41,0.22,4.63,0.63,6.67,1.19
					c0.32,0.09,0.63,0.18,0.94,0.27h0c3.74,1.13,6.84,2.76,9.43,4.66l0,0c0.56,0.41,1.09,0.83,1.6,1.26c0,0,0,0,0,0
					C108.25,26.24,109.9,37.03,109.9,37.03z"/>
			</g>
			<g>
				<g>
					<g>
						<path style="fill:#C52D31;" d="M55.85,17.03c-3.12,5.32-6.56,12.53-7.73,20c-0.22,1.38-0.36,2.77-0.4,4.16l-0.77-0.02
							c0.04-1.33,0.17-2.66,0.37-3.98c1.03-6.93,4-13.64,6.92-18.89C54.75,17.86,55.29,17.44,55.85,17.03z"/>
					</g>
				</g>
				<g>
					<g>
						<path style="fill:#C52D31;" d="M66.14,12.19c-1.97,4.82-5.11,13.61-6.27,23.02c-0.24,1.97-0.4,3.98-0.44,5.97l-0.77-0.02
							c0.04-1.96,0.19-3.93,0.42-5.86c1.11-9.22,4.11-17.85,6.11-22.85C65.51,12.36,65.82,12.27,66.14,12.19z"/>
					</g>
				</g>
				<g>
					<g>
						<path style="fill:#C52D31;" d="M73.54,11.04c-0.62,4.39-1.76,13.43-2.2,23.28c-0.1,2.26-0.17,4.56-0.18,6.86l-0.77-0.01
							c0.02-2.29,0.08-4.57,0.18-6.82c0.44-9.78,1.56-18.78,2.19-23.25h0C73.01,11.07,73.27,11.06,73.54,11.04z"/>
					</g>
				</g>
				<g>
					<g>
						<path style="fill:#C52D31;" d="M82.87,41.17l-0.77,0.01c-0.02-2.34-0.08-4.68-0.19-6.98c-0.45-9.76-1.57-18.71-2.19-23.1
							c0.27,0.02,0.53,0.04,0.79,0.07c0.62,4.47,1.73,13.37,2.17,23.05C82.79,36.5,82.86,38.84,82.87,41.17z"/>
					</g>
				</g>
				<g>
					<g>
						<path style="fill:#C52D31;" d="M94.59,41.16l-0.77,0.02c-0.04-2.15-0.22-4.29-0.49-6.41c-1.18-9.15-4.2-17.65-6.14-22.42
							c0.32,0.09,0.63,0.18,0.94,0.27h0c1.97,4.93,4.85,13.28,5.99,22.22C94.38,36.92,94.55,39.04,94.59,41.16z"/>
					</g>
				</g>
				<g>
					<g>
						<path style="fill:#C52D31;" d="M106.31,41.16l-0.77,0.02c-0.05-1.68-0.25-3.37-0.55-5.04c-1.27-7.04-4.48-13.79-7.43-18.86
							c0.56,0.41,1.09,0.83,1.6,1.26c0,0,0,0,0,0c2.74,4.98,5.51,11.24,6.64,17.73C106.08,37.9,106.26,39.53,106.31,41.16z"/>
					</g>
				</g>
			</g>
			<g>
				<path style="fill:#C52D31;" d="M41.45,38.11c0,0-1.83,3.9,0.34,9.62c0,0,21.88-13.09,69.16-0.85c0,0,2.96-3.35,0-9.4
					C110.95,37.48,74.46,21.47,41.45,38.11z"/>
			</g>
		</g>
		<g>
			<g>
				<path style="fill:#F48A8B;" d="M77.37,76.3c-0.93,0-1.95-0.24-3.08-0.73c-0.32-0.14-0.5-0.47-0.46-0.81l1.57-12.04
					c0.06-0.42,0.44-0.72,0.87-0.67c0.42,0.06,0.72,0.44,0.67,0.87l-1.49,11.45c1.54,0.56,2.73,0.51,3.71-0.15
					c0.35-0.24,0.83-0.15,1.07,0.21c0.24,0.35,0.15,0.83-0.21,1.07C79.22,76.04,78.35,76.3,77.37,76.3z"/>
			</g>
		</g>
		<g>
			<g>
				<path style="fill:#F48A8B;" d="M75.94,84.24c-4.43,0-7.79-1.83-7.85-1.86c-0.37-0.21-0.51-0.68-0.3-1.05
					c0.21-0.37,0.68-0.51,1.05-0.3c0.37,0.21,8.93,4.82,16.34-2.03c0.31-0.29,0.8-0.27,1.09,0.04c0.29,0.31,0.27,0.8-0.04,1.09
					C82.8,83.31,79.1,84.24,75.94,84.24z"/>
			</g>
		</g>
		<g>
			<g>
				<path style="fill:#F48A8B;" d="M77.19,88.66c-1.75,0-3.15-0.43-3.25-0.46c-0.41-0.13-0.63-0.56-0.51-0.97
					c0.13-0.41,0.56-0.63,0.97-0.51l0,0c0.03,0.01,3.46,1.05,5.87-0.32c0.37-0.21,0.84-0.08,1.05,0.29
					c0.21,0.37,0.08,0.84-0.29,1.05C79.81,88.46,78.42,88.66,77.19,88.66z"/>
			</g>
		</g>
		<g>
			<g>
				<path style="fill:#3F2138;" d="M60.87,54.32c1.66-0.89,4.09-2,6.46-2.34c1.27-0.19,2.07-1.46,1.63-2.67l-0.09-0.24
					c-0.31-0.87-1.18-1.42-2.1-1.32c-2.11,0.22-5.84,0.96-8.28,3.39c-0.53,0.53-0.71,1.31-0.49,2.02l0,0
					C58.39,54.35,59.76,54.92,60.87,54.32z"/>
			</g>
		</g>
		<g>
			<g>
				<path style="fill:#3F2138;" d="M92.86,54.32c-1.66-0.89-4.09-2-6.46-2.34c-1.27-0.19-2.07-1.46-1.63-2.67l0.09-0.24
					c0.31-0.87,1.18-1.42,2.1-1.32c2.11,0.22,5.84,0.96,8.28,3.39c0.53,0.53,0.71,1.31,0.49,2.02l0,0
					C95.35,54.35,93.97,54.92,92.86,54.32z"/>
			</g>
		</g>
		<g style="opacity:0.5;">
			<g>
				<path style="fill:#F48A8B;" d="M66.53,68.22c0,1.9-3.5,3.43-7.82,3.43c-4.32,0-7.82-1.54-7.82-3.43c0-1.9,3.5-3.43,7.82-3.43
					C63.03,64.79,66.53,66.32,66.53,68.22z"/>
			</g>
		</g>
		<g style="opacity:0.5;">
			<g>
				<path style="fill:#F48A8B;" d="M103.31,68.22c0,1.9-3.5,3.43-7.82,3.43c-4.32,0-7.82-1.54-7.82-3.43c0-1.9,3.5-3.43,7.82-3.43
					C99.81,64.79,103.31,66.32,103.31,68.22z"/>
			</g>
		</g>
		<g>
			<g>
				<g>
					<g>
						<g>
							<g>
								<g>
									<path style="fill:#3F2138;" d="M67.08,60.22c0.04,2.09-0.74,3.81-1.72,3.82c-0.99,0.02-1.82-1.67-1.86-3.76
										c-0.04-2.09,0.74-3.81,1.72-3.82C66.21,56.45,67.04,58.13,67.08,60.22z"/>
								</g>
							</g>
						</g>
					</g>
				</g>
			</g>
			<g>
				<g>
					<g>
						<g>
							<g>
								<g>
									<path style="fill:#3F2138;" d="M85.8,60.22c-0.04,2.09,0.74,3.81,1.72,3.82c0.99,0.02,1.82-1.67,1.86-3.76
										c0.04-2.09-0.74-3.81-1.72-3.82C86.66,56.45,85.83,58.13,85.8,60.22z"/>
								</g>
							</g>
						</g>
					</g>
				</g>
			</g>
		</g>
	</g>
</g>
</svg>
