<?xml version="1.0" encoding="utf-8"?>
<!-- Generator: Adobe Illustrator 22.0.1, SVG Export Plug-In . SVG Version: 6.00 Build 0)  -->
<svg version="1.1" id="Layer_1" xmlns="http://www.w3.org/2000/svg" xmlns:xlink="http://www.w3.org/1999/xlink" x="0px" y="0px"
	 viewBox="0 0 150.79 160.04" style="enable-background:new 0 0 150.79 160.04;" xml:space="preserve">
<g>
	<g>
		<g>
			<path style="fill:#F89944;" d="M38.01,129.86c0,0-10.18-8.57-4.16-22.55c6.02-13.98,23.62-16.05,40.56-16.05
				c25.84-0.01,56.72,8.89,36.12,38.6C110.53,129.86,84.89,146.82,38.01,129.86z"/>
		</g>
	</g>
	<g>
		<g>
			<path style="fill:#E86E24;" d="M63.5,113.11c-0.33,0-0.63-0.21-0.74-0.54c-1.89-5.85-7.1-9.53-7.15-9.56
				c-0.35-0.24-0.44-0.73-0.19-1.08c0.24-0.35,0.72-0.44,1.08-0.19c0.23,0.16,5.69,4,7.74,10.36c0.13,0.41-0.09,0.84-0.5,0.97
				C63.66,113.1,63.58,113.11,63.5,113.11z"/>
		</g>
	</g>
	<g>
		<g>
			<path style="fill:#E86E24;" d="M74.46,123.51c-0.25,0-0.5-0.13-0.65-0.36c-6.74-10.5-26.8-13.54-27-13.57
				c-0.42-0.06-0.71-0.45-0.65-0.88c0.06-0.42,0.45-0.71,0.88-0.65c0.85,0.12,20.95,3.17,28.08,14.26c0.23,0.36,0.13,0.84-0.23,1.07
				C74.75,123.47,74.6,123.51,74.46,123.51z"/>
		</g>
	</g>
	<g>
		<g>
			<path style="fill:#F89944;" d="M144,156.56H6.8c0,0,1.38-17.12,9.66-20.43c3.35-1.34,11.02-5.16,18.98-9.23
				c11.12-5.69,22.8-11.89,23.99-12.52c0.07-0.04,0.1-0.05,0.1-0.05l1.05,0.24c1.31,0.29,2.63,0.55,3.95,0.75
				c1.31,0.21,2.62,0.38,3.93,0.51c7.24,0.71,14.57,0.21,21.68-1.49c0.01,0,0.02-0.01,0.03-0.01c0,0,8.97,4.62,18.98,9.66
				c1.28,0.64,2.58,1.3,3.88,1.95c8.84,4.43,17.7,8.75,21.31,10.2C142.62,139.45,144,156.56,144,156.56z"/>
		</g>
	</g>
	<g>
		<g>
			<g>
				<g>
					<g>
						<g>
							<path style="fill:#E86E24;" d="M81.76,134.78c-7.55,0-13.81-1.99-18.26-4.03c-7.04-3.23-11.05-7.19-11.21-7.36
								c-0.28-0.28-0.28-0.74,0-1.02c0.28-0.28,0.74-0.28,1.02,0c0.04,0.04,4.03,3.97,10.85,7.09c6.27,2.87,16.29,5.63,28.44,2.46
								c0.39-0.1,0.78,0.13,0.88,0.52c0.1,0.39-0.13,0.78-0.52,0.88C89,134.35,85.24,134.78,81.76,134.78z"/>
						</g>
					</g>
				</g>
			</g>
		</g>
		<g>
			<g>
				<g>
					<g>
						<g>
							<path style="fill:#E86E24;" d="M78.21,141.73c-2.43,0-5.11-0.24-7.99-0.85c-0.39-0.08-0.64-0.46-0.56-0.85
								c0.08-0.39,0.47-0.64,0.85-0.56c14.26,2.98,23.18-3.28,23.27-3.34c0.32-0.23,0.78-0.16,1.01,0.17
								c0.23,0.32,0.16,0.78-0.17,1.01C94.31,137.53,88.31,141.73,78.21,141.73z"/>
						</g>
					</g>
				</g>
			</g>
		</g>
	</g>
	<g>
		<g>
			<g>
				<g>
					<g>
						<g>
							<g>
								<path style="fill:#FAB7A2;" d="M90.86,117.82c0,0-2.69,8.46-15.05,8.46c-14.42,0-17.82-7.69-17.82-7.69
									c1.25-3.32,2.11-6.4,2.69-9.15h0c1.07-5.04,1.22-8.99,1.15-11.42l25.34-1c0.23,2.15,0.62,4.67,1.05,7.21
									C89.37,110.98,90.86,117.82,90.86,117.82z"/>
							</g>
						</g>
					</g>
				</g>
			</g>
			<g>
				<g>
					<g>
						<g>
							<g>
								<path style="fill:#3F2138;" d="M88.23,104.23c-3.93,2.73-12.51,6.79-27.53,5.21c1.07-5.04,1.22-8.99,1.15-11.42l25.34-1
									C87.41,99.16,87.8,101.69,88.23,104.23z"/>
							</g>
						</g>
					</g>
				</g>
			</g>
		</g>
		<g>
			<g>
				<g>
					<g>
						<g>
							<g>
								<g>
									<path style="fill:#FAB7A2;" d="M52.17,64.98c0,0-7.84-10.67-13.94-4.36c-6.1,6.32,5.66,28.31,16.33,23.52L52.17,64.98z"/>
								</g>
							</g>
						</g>
					</g>
				</g>
				<g>
					<g>
						<g>
							<g>
								<g>
									<path style="fill:#F48A8B;" d="M48.43,77.59c-0.27,0-0.5-0.2-0.54-0.47c-1.03-7.42-6.92-11.97-6.98-12.01
										c-0.24-0.18-0.28-0.52-0.1-0.76c0.18-0.24,0.52-0.28,0.76-0.1c0.26,0.19,6.31,4.87,7.4,12.72c0.04,0.3-0.17,0.57-0.46,0.61
										C48.48,77.59,48.46,77.59,48.43,77.59z"/>
								</g>
							</g>
						</g>
					</g>
				</g>
				<g>
					<g>
						<g>
							<g>
								<g>
									<path style="fill:#F48A8B;" d="M46.79,72.27c-0.17,0-0.34-0.08-0.45-0.24c-0.79-1.16-3.14-1.28-3.98-1.23
										c-0.3,0.02-0.56-0.21-0.57-0.51c-0.02-0.3,0.21-0.56,0.51-0.57c0.15-0.01,3.65-0.2,4.94,1.7c0.17,0.25,0.1,0.58-0.15,0.75
										C47,72.24,46.9,72.27,46.79,72.27z"/>
								</g>
							</g>
						</g>
					</g>
				</g>
			</g>
		</g>
		<g>
			<g>
				<g>
					<g>
						<g>
							<g>
								<g>
									<path style="fill:#FAB7A2;" d="M99.94,64.98c0,0,7.84-10.67,13.94-4.36c6.1,6.32-5.66,28.31-16.33,23.52L99.94,64.98z"/>
								</g>
							</g>
						</g>
					</g>
				</g>
				<g>
					<g>
						<g>
							<g>
								<g>
									<path style="fill:#F48A8B;" d="M103.68,77.59c-0.02,0-0.05,0-0.08-0.01c-0.3-0.04-0.5-0.31-0.46-0.61
										c1.09-7.85,7.14-12.53,7.4-12.72c0.24-0.18,0.58-0.13,0.76,0.1c0.18,0.24,0.13,0.58-0.1,0.76
										c-0.06,0.04-5.96,4.61-6.98,12.01C104.18,77.4,103.94,77.59,103.68,77.59z"/>
								</g>
							</g>
						</g>
					</g>
				</g>
				<g>
					<g>
						<g>
							<g>
								<g>
									<path style="fill:#F48A8B;" d="M105.32,72.27c-0.1,0-0.21-0.03-0.3-0.09c-0.25-0.17-0.31-0.5-0.14-0.75
										c1.29-1.91,4.79-1.71,4.94-1.7c0.3,0.02,0.52,0.28,0.51,0.57c-0.02,0.3-0.28,0.53-0.57,0.51
										c-0.84-0.05-3.19,0.07-3.98,1.23C105.67,72.19,105.49,72.27,105.32,72.27z"/>
								</g>
							</g>
						</g>
					</g>
				</g>
			</g>
		</g>
		<g>
			<g>
				<g>
					<g>
						<g>
							<path style="fill:#FAB7A2;" d="M82.67,33.87c-21.93-5.35-41.78,14.48-36.84,36.5c3.49,15.55,11.15,35.15,29.98,35.6
								c19.62,0.46,27.49-20.9,30.29-37.11c2.56-14.83-6.08-29.44-20.39-34.13C84.72,34.42,83.7,34.13,82.67,33.87z"/>
						</g>
					</g>
				</g>
			</g>
		</g>
		<g>
			<g>
				<path style="fill:#F48A8B;" d="M77.37,83.79c-0.93,0-1.95-0.24-3.08-0.73c-0.32-0.14-0.5-0.47-0.46-0.81L75.4,70.2
					c0.06-0.42,0.44-0.72,0.87-0.67c0.42,0.06,0.72,0.44,0.67,0.87l-1.49,11.45c1.54,0.56,2.73,0.51,3.71-0.15
					c0.35-0.24,0.83-0.15,1.07,0.21c0.24,0.35,0.15,0.83-0.21,1.07C79.22,83.52,78.35,83.79,77.37,83.79z"/>
			</g>
		</g>
		<g>
			<g>
				<path style="fill:#F48A8B;" d="M75.94,91.73c-4.43,0-7.79-1.83-7.84-1.86c-0.37-0.21-0.51-0.68-0.3-1.05
					c0.21-0.37,0.68-0.51,1.05-0.3c0.37,0.21,8.93,4.82,16.34-2.03c0.31-0.29,0.8-0.27,1.09,0.04c0.29,0.31,0.27,0.8-0.04,1.09
					C82.8,90.8,79.1,91.73,75.94,91.73z"/>
			</g>
		</g>
		<g>
			<g>
				<path style="fill:#F48A8B;" d="M77.19,96.15c-1.75,0-3.15-0.43-3.25-0.46c-0.41-0.13-0.63-0.56-0.51-0.97
					c0.13-0.41,0.56-0.63,0.97-0.51l0,0c0.03,0.01,3.46,1.05,5.87-0.32c0.37-0.21,0.84-0.08,1.05,0.29
					c0.21,0.37,0.08,0.84-0.29,1.05C79.81,95.94,78.42,96.15,77.19,96.15z"/>
			</g>
		</g>
		<g>
			<g>
				<path style="fill:#3F2138;" d="M60.87,61.8c1.66-0.89,4.09-2,6.46-2.34c1.27-0.19,2.07-1.46,1.63-2.67l-0.09-0.24
					c-0.31-0.87-1.18-1.42-2.1-1.32c-2.11,0.22-5.84,0.96-8.28,3.39c-0.53,0.53-0.71,1.31-0.49,2.02l0,0
					C58.39,61.83,59.76,62.4,60.87,61.8z"/>
			</g>
		</g>
		<g>
			<g>
				<path style="fill:#3F2138;" d="M92.86,61.8c-1.66-0.89-4.09-2-6.46-2.34c-1.27-0.19-2.07-1.46-1.63-2.67l0.09-0.24
					c0.31-0.87,1.18-1.42,2.1-1.32c2.11,0.22,5.84,0.96,8.28,3.39c0.53,0.53,0.71,1.31,0.49,2.02l0,0
					C95.35,61.83,93.97,62.4,92.86,61.8z"/>
			</g>
		</g>
		<g style="opacity:0.5;">
			<g>
				<path style="fill:#F48A8B;" d="M66.53,75.7c0,1.9-3.5,3.43-7.82,3.43c-4.32,0-7.82-1.54-7.82-3.43c0-1.9,3.5-3.43,7.82-3.43
					C63.03,72.27,66.53,73.81,66.53,75.7z"/>
			</g>
		</g>
		<g style="opacity:0.5;">
			<g>
				<path style="fill:#F48A8B;" d="M103.31,75.7c0,1.9-3.5,3.43-7.82,3.43c-4.32,0-7.82-1.54-7.82-3.43c0-1.9,3.5-3.43,7.82-3.43
					C99.81,72.27,103.31,73.81,103.31,75.7z"/>
			</g>
		</g>
		<g>
			<g>
				<g>
					<g>
						<g>
							<path style="fill:#3F2138;" d="M46.65,73.76c0,0-4.12-22.7-2.85-27.89c1.27-5.19,3.93-4.24,3.93-4.24S25.51,23.43,36.56,13.1
								c8-7.47,17.2,8.52,17.2,8.52S49.21,5.9,55.69,3.74c8.07-2.69,11.73,16.15,11.73,16.15S66.75,5.84,73.31,6.11
								c9.1,0.38,3.97,10.89,13.84,14.99c9.87,4.1,24.77,6.18,19.4,22.71c0,0,7.24-0.32-1.77,29.18l0,0
								c-2.32-3.23-3.49-7.16-3.3-11.13c0.15-3.05,0.13-6.59-0.49-8.76c0,0-5.64-3.94-5.38-9.71c0,0-19.86,11.79-38.19,1.28
								c0,0,1.15,6.79-4.61,7.82c0,0-1.88,4.42-2.51,10.7c-0.36,3.64-1.52,7.16-3.47,10.26L46.65,73.76z"/>
						</g>
					</g>
				</g>
			</g>
		</g>
		<g>
			<g>
				<g>
					<g>
						<g>
							<path style="fill:#3F2138;" d="M104.71,33.45c0,0,3.14-10.71,8.21-7.97c3.62,1.96-4.81,10.11-4.81,10.11
								s7.09-3.83,10.59-1.13c3.5,2.7-5.79,5.89-11.14,4.98C102.21,38.52,104.71,33.45,104.71,33.45z"/>
						</g>
					</g>
				</g>
			</g>
		</g>
		<g>
			<g>
				<g>
					<g>
						<g>
							<g>
								<g>
									<path style="fill:#3F2138;" d="M67.08,67.71c0.04,2.09-0.74,3.81-1.72,3.82c-0.99,0.02-1.82-1.67-1.86-3.76
										c-0.04-2.09,0.74-3.81,1.72-3.82C66.21,63.93,67.04,65.61,67.08,67.71z"/>
								</g>
							</g>
						</g>
					</g>
				</g>
			</g>
			<g>
				<g>
					<g>
						<g>
							<g>
								<g>
									<path style="fill:#3F2138;" d="M85.8,67.71c-0.04,2.09,0.74,3.81,1.72,3.82c0.99,0.02,1.82-1.67,1.86-3.76
										c0.04-2.09-0.74-3.81-1.72-3.82C86.66,63.93,85.83,65.61,85.8,67.71z"/>
								</g>
							</g>
						</g>
					</g>
				</g>
			</g>
		</g>
	</g>
	<g>
		<g>
			<path style="fill:#FFFFFF;" d="M55.34,135.04v21.52H53.8v-21.52c0-0.17,0.06-0.33,0.15-0.46c0.14-0.19,0.37-0.31,0.62-0.31
				c0.37,0,0.69,0.27,0.76,0.62C55.34,134.94,55.34,134.99,55.34,135.04z"/>
		</g>
	</g>
	<g>
		<g>
			<path style="fill:#FFFFFF;" d="M98.32,135.04v21.52h-1.55v-21.52c0-0.43,0.35-0.77,0.77-0.77c0.34,0,0.63,0.22,0.73,0.53
				C98.3,134.88,98.32,134.96,98.32,135.04z"/>
		</g>
	</g>
</g>
</svg>
